<?xml version="1.0" standalone="no"?>
  <!DOCTYPE svg PUBLIC "-//W3C//DTD SVG 1.1//EN" "http://www.w3.org/Graphics/SVG/1.1/DTD/svg11.dtd" >
  <svg>
  <metadata>
  Created by font-carrier
  </metadata>
  <defs>
  <font id="TimesNewRomanPS-BoldMT" horiz-adv-x="4096" vert-adv-y="4096" >
    <font-face
      
      font-family="Times New Roman"
      
      font-weight="400"
      
      font-stretch="normal"
      
      units-per-em="2048"
      
      ascent="1825"
      
      descent="-443"
      
    />
      <missing-glyph />

      

      
      <glyph glyph-name="uni21" unicode="&#x21;" d="M364 441L320 441Q313 555 274 717L222 935Q175 1131 175 1216Q175 1293 221 1340Q267 1387 341 1387Q413 1387 460.50 1339.50Q508 1292 508 1219Q508 1143 458 935L405 717Q377 601 364 441M343 298Q410 298 457.50 250.50Q505 203 505 135Q505 68 457.50 20.50Q410-27 343-27Q276-27 228.50 20.50Q181 68 181 135Q181 202 228 250Q275 298 343 298Z"  horiz-adv-x="682" vert-adv-y="2048"  />

      
      <glyph glyph-name="uni22" unicode="&#x22;" d="M349 721L300 721L196 1106Q176 1181 176 1238Q176 1300 219.50 1343.50Q263 1387 324 1387Q394 1387 433 1341.50Q472 1296 472 1243Q472 1198 448 1104L349 721M832 721L782 721L681 1105Q657 1193 657 1241Q657 1299 701.50 1343Q746 1387 808 1387Q879 1387 916.50 1340Q954 1293 954 1244Q954 1209 928 1105L832 721Z"  horiz-adv-x="1137" vert-adv-y="2048"  />

      
      <glyph glyph-name="uni23" unicode="&#x23;" d="M90-28L176 396L40 396L40 529L202 529L261 821L40 821L40 951L287 951L374 1384L506 1384L418 951L713 951L799 1384L931 1384L843 951L983 951L983 821L818 821L758 529L983 529L983 396L733 396L647-28L514-28L600 396L309 396L219-28L90-28M335 529L629 529L687 821L393 821L335 529Z"  horiz-adv-x="1024" vert-adv-y="2048"  />

      
      <glyph glyph-name="uni24" unicode="&#x24;" d="M566 835Q805 684 871 607Q959 503 959 362Q959 208 855 101.50Q751-5 566-21L566-138L479-138L479-28Q373-26 291-10.50Q209 5 103 46L103 369L145 369Q165 259 208 191Q251 123 316.50 88.50Q382 54 479 46L479 540Q238 691 158.50 781.50Q79 872 79 992Q79 1122 179 1221.50Q279 1321 479 1346L479 1393L566 1393L566 1346Q736 1334 908 1241L908 952L869 952Q840 1050 799.50 1113Q759 1176 695 1221Q646 1254 566 1276L566 835M479 1279Q406 1273 362 1239Q292 1186 292 1111Q292 1065 324.50 1018Q357 971 479 890L479 1279M566 46Q652 66 692 114.50Q732 163 732 236Q732 299 696.50 354Q661 409 566 479L566 46Z"  horiz-adv-x="1024" vert-adv-y="2048"  />

      
      <glyph glyph-name="uni25" unicode="&#x25;" d="M1573 1387L610-57L476-57L1438 1387L1573 1387M478 1387Q620 1387 717.50 1286.50Q815 1186 815 1027Q815 864 717 762.50Q619 661 474 661Q331 661 236.50 759Q142 857 142 1017Q142 1182 239 1284.50Q336 1387 478 1387M478 1334Q456 1334 442 1321Q417 1298 404.50 1241.50Q392 1185 392 1008Q392 867 409 790Q419 746 443 724Q458 711 478 711Q500 711 513 723Q536 744 547 791Q564 867 564 1004Q564 1172 548 1247Q537 1299 512 1323Q500 1334 478 1334M1566 671Q1711 671 1808.50 571.50Q1906 472 1906 311Q1906 148 1807 46Q1708-56 1568-56Q1429-56 1331.50 46Q1234 148 1234 308Q1234 469 1329 570Q1424 671 1566 671M1569 619Q1549 619 1535 607Q1511 585 1498 530.50Q1485 476 1485 322Q1485 158 1500 86Q1511 35 1537 12Q1550 0 1571 0Q1590 0 1602 11Q1627 34 1639 86Q1656 159 1656 307Q1656 463 1640 535Q1628 587 1604 608Q1592 619 1569 619Z"  horiz-adv-x="2048" vert-adv-y="2048"  />

      
      <glyph glyph-name="uni26" unicode="&#x26;" d="M1166 811L1582 811L1582 772Q1512 762 1472 730.50Q1432 699 1368 584Q1304 469 1188 327Q1290 235 1354 199Q1399 174 1442 174Q1516 174 1576 271L1617 249Q1535 88 1442 20Q1371-31 1280-31Q1202-31 1131.50 2.50Q1061 36 960 128Q835 44 725 6.50Q615-31 496-31Q306-31 194 72Q82 175 82 314Q82 464 189 575Q296 686 500 767Q474 832 461 894Q448 956 448 1014Q448 1174 560.50 1280.50Q673 1387 848 1387Q989 1387 1071.50 1316.50Q1154 1246 1154 1152Q1154 1039 1069.50 958.50Q985 878 802 811Q915 612 1133 382Q1280 547 1280 665Q1280 707 1251 736.50Q1222 766 1166 772L1166 811M768 871Q873 910 909 954.50Q945 999 945 1062Q945 1174 886 1251Q847 1302 790 1302Q743 1302 709.50 1265Q676 1228 676 1165Q676 1116 692 1060Q708 1004 768 871M528 703Q448 669 415 631Q368 575 368 506Q368 412 422.50 319Q477 226 554 175Q631 124 708 124Q746 124 793.50 140.50Q841 157 897 190Q656 437 528 703Z"  horiz-adv-x="1706" vert-adv-y="2048"  />

      
      <glyph glyph-name="uni27" unicode="&#x27;" d="M313 722L265 722L160 1104Q140 1175 140 1235Q140 1300 182.50 1343.50Q225 1387 287 1387Q358 1387 396.50 1341Q435 1295 435 1241Q435 1196 412 1105L313 722Z"  horiz-adv-x="569" vert-adv-y="2048"  />

      
      <glyph glyph-name="uni28" unicode="&#x28;" d="M658 1387L658 1341Q554 1273 505 1208Q437 1118 399 977Q351 802 351 488Q351 192 394.50 28Q438-136 513-237Q565-307 658-360L658-410Q417-329 249.50-79.50Q82 170 82 494Q82 814 249 1060.50Q416 1307 658 1387Z"  horiz-adv-x="682" vert-adv-y="2048"  />

      
      <glyph glyph-name="uni29" unicode="&#x29;" d="M25-410L25-364Q129-295 178-230Q245-140 284 0Q332 176 332 490Q332 786 288.50 949.50Q245 1113 170 1214Q118 1284 25 1337L25 1387Q266 1306 433.50 1056.50Q601 807 601 483Q601 164 433.50-82.50Q266-329 25-410Z"  horiz-adv-x="682" vert-adv-y="2048"  />

      
      <glyph glyph-name="uni2a" unicode="&#x2a;" d="M493 992Q490 1050 481.50 1080Q473 1110 440.50 1173Q408 1236 408 1271Q408 1317 440.50 1352Q473 1387 512 1387Q555 1387 586.50 1354.50Q618 1322 618 1270Q618 1229 587 1171Q556 1113 547.50 1082.50Q539 1052 534 992Q590 1015 614 1032Q638 1049 685 1099Q748 1166 806 1166Q850 1166 880 1137Q910 1108 910 1068Q910 1025 873 992Q836 959 777 959Q757 959 706 962Q682 963 654 963Q617 963 542 959Q585 910 609 891.50Q633 873 692 843Q751 813 777 779Q796 754 796 715Q796 672 767 642.50Q738 613 697 613Q654 613 619.50 648.50Q585 684 572 775Q564 834 554.50 861Q545 888 514 940Q481 887 470 858Q459 829 451 775Q438 684 405 650Q372 616 328 616Q287 616 257.50 644Q228 672 228 711Q228 751 250.50 782.50Q273 814 333.50 847.50Q394 881 417 898Q440 915 484 959L377 963Q349 963 324 962Q265 958 243 958Q186 958 150 990Q114 1022 114 1066Q114 1107 143.50 1136.50Q173 1166 218 1166Q281 1166 339 1106Q397 1046 414 1033Q438 1016 493 992Z"  horiz-adv-x="1024" vert-adv-y="2048"  />

      
      <glyph glyph-name="uni2b" unicode="&#x2b;" d="M40 744L521 744L521 1224L652 1224L652 744L1133 744L1133 612L652 612L652 136L521 136L521 612L40 612L40 744Z"  horiz-adv-x="1167" vert-adv-y="2048"  />

      
      <glyph glyph-name="uni2c" unicode="&#x2c;" d="M102-359L102-315Q218-265 270.50-185.50Q323-106 323-23Q323-6 316 3Q309 11 302 11Q296 11 284 4Q255-13 212-13Q153-13 109.50 33Q66 79 66 141Q66 207 116 257Q166 307 237 307Q323 307 384 240.50Q445 174 445 58Q445-85 358.50-196Q272-307 102-359Z"  horiz-adv-x="512" vert-adv-y="2048"  />

      
      <glyph glyph-name="uni2d" unicode="&#x2d;" d="M633 367L50 367L50 574L633 574L633 367Z"  horiz-adv-x="682" vert-adv-y="2048"  />

      
      <glyph glyph-name="uniad" unicode="&#xad;" d="M633 367L50 367L50 574L633 574L633 367Z"  horiz-adv-x="682" vert-adv-y="2048"  />

      
      <glyph glyph-name="uni2e" unicode="&#x2e;" d="M256 308Q326 308 374.50 259Q423 210 423 141Q423 72 374 23.50Q325-25 256-25Q187-25 138.50 23.50Q90 72 90 141Q90 210 138.50 259Q187 308 256 308Z"  horiz-adv-x="512" vert-adv-y="2048"  />

      
      <glyph glyph-name="uni2f" unicode="&#x2f;" d="M575 1387L130-31L2-31L449 1387L575 1387Z"  horiz-adv-x="569" vert-adv-y="2048"  />

      
      <glyph glyph-name="uni30" unicode="&#x30;" d="M949 678Q949 475 892 299Q858 191 800.50 122Q743 53 670 12.50Q597-28 511-28Q413-28 334 22Q255 72 194 165Q150 233 117 346Q74 499 74 662Q74 883 136 1068Q187 1221 291 1302.50Q395 1384 511 1384Q629 1384 731.50 1303.50Q834 1223 882 1087Q949 900 949 678M641 680Q641 1036 637 1095Q627 1234 589 1283Q564 1315 508 1315Q465 1315 440 1291Q403 1256 390 1167.50Q377 1079 377 550Q377 262 397 164Q412 93 440 69Q468 45 514 45Q564 45 589 77Q631 133 637 250L641 680Z"  horiz-adv-x="1024" vert-adv-y="2048"  />

      
      <glyph glyph-name="uni31" unicode="&#x31;" d="M667 1384L667 275Q667 150 678 115.50Q689 81 724 59Q759 37 836 37L867 37L867 0L153 0L153 37L189 37Q276 37 313 57Q350 77 363 112Q376 147 376 275L376 978Q376 1072 367 1095.50Q358 1119 333.50 1135.50Q309 1152 277 1152Q226 1152 153 1120L135 1156L634 1384L667 1384Z"  horiz-adv-x="1024" vert-adv-y="2048"  />

      
      <glyph glyph-name="uni32" unicode="&#x32;" d="M848 0L50 0L50 22Q417 459 495.50 610Q574 761 574 905Q574 1010 509 1079.50Q444 1149 350 1149Q196 1149 111 995L74 1008Q128 1200 238 1292Q348 1384 492 1384Q595 1384 680 1336Q765 1288 813 1204.50Q861 1121 861 1048Q861 915 787 778Q686 593 346 262L639 262Q747 262 779.50 271Q812 280 833 301.50Q854 323 888 392L924 392L848 0Z"  horiz-adv-x="1024" vert-adv-y="2048"  />

      
      <glyph glyph-name="uni33" unicode="&#x33;" d="M303 680L303 715Q417 748 461 776.50Q505 805 537 863.50Q569 922 569 982Q569 1065 508.50 1124.50Q448 1184 358 1184Q218 1184 120 1036L83 1049Q155 1216 267.50 1300Q380 1384 518 1384Q659 1384 750.50 1298Q842 1212 842 1097Q842 1022 799.50 952.50Q757 883 666 830Q783 773 844.50 689.50Q906 606 906 480Q906 268 752.50 119.50Q599-29 341-29Q169-29 90 28Q33 68 33 131Q33 177 66 209.50Q99 242 142 242Q175 242 204 228Q220 220 317.50 140.50Q415 61 500 61Q574 61 627 119.50Q680 178 680 268Q680 405 584 520.50Q488 636 303 680Z"  horiz-adv-x="1024" vert-adv-y="2048"  />

      
      <glyph glyph-name="uni34" unicode="&#x34;" d="M51 511L695 1384L817 1384L817 511L941 511L941 304L817 304L817 0L542 0L542 304L51 304L51 511M148 511L542 511L542 1046L148 511Z"  horiz-adv-x="1024" vert-adv-y="2048"  />

      
      <glyph glyph-name="uni35" unicode="&#x35;" d="M312 1356L947 1356L846 1098L312 1098L261 963Q606 950 792 791Q945 660 945 465Q945 340 874 220.50Q803 101 674 36.50Q545-28 391-28Q225-28 136 34Q74 78 74 134Q74 177 106.50 210Q139 243 182 243Q221 243 261 227Q301 211 398 143Q459 101 503 85Q534 73 573 73Q655 73 712.50 133Q770 193 770 277Q770 453 594 563Q418 673 150 673Q123 673 69 672L312 1356Z"  horiz-adv-x="1024" vert-adv-y="2048"  />

      
      <glyph glyph-name="uni36" unicode="&#x36;" d="M962 1384L962 1356Q781 1310 671.50 1237.50Q562 1165 498.50 1061.50Q435 958 400 805Q444 835 473 844Q538 864 604 864Q756 864 857.50 753.50Q959 643 959 452Q959 318 904 206Q849 94 748 33Q647-28 532-28Q407-28 301 40.50Q195 109 135.50 241Q76 373 76 528Q76 756 185.50 952.50Q295 1149 496.50 1265.50Q698 1382 962 1384M387 724Q379 586 379 522Q379 384 405.50 255Q432 126 478 74Q511 37 556 37Q602 37 638 90.50Q674 144 674 308Q674 584 607 689Q564 757 491 757Q451 757 387 724Z"  horiz-adv-x="1024" vert-adv-y="2048"  />

      
      <glyph glyph-name="uni37" unicode="&#x37;" d="M363-28L732 1091L451 1091Q286 1091 203 1048Q145 1018 107 935L69 935L167 1356L975 1356L520-28L363-28Z"  horiz-adv-x="1024" vert-adv-y="2048"  />

      
      <glyph glyph-name="uni38" unicode="&#x38;" d="M698 766Q841 661 896.50 570.50Q952 480 952 363Q952 199 828.50 85.50Q705-28 493-28Q292-28 182 71Q72 170 72 313Q72 422 135.50 504Q199 586 347 654Q186 777 140.50 855Q95 933 95 1036Q95 1172 210.50 1275.50Q326 1379 527 1379Q721 1379 825.50 1287.50Q930 1196 930 1068Q930 972 873.50 898.50Q817 825 698 766M622 817Q659 867 677 929Q695 991 695 1065Q695 1195 639 1264Q597 1317 523 1317Q456 1317 409 1268.50Q362 1220 362 1148Q362 1075 414.50 996.50Q467 918 622 817M422 606Q391 578 378 555Q358 520 342 453Q326 386 326 313Q326 219 350 155.50Q374 92 418.50 64Q463 36 510 36Q583 36 633 89.50Q683 143 683 236Q683 430 422 606Z"  horiz-adv-x="1024" vert-adv-y="2048"  />

      
      <glyph glyph-name="uni39" unicode="&#x39;" d="M63-28L63 0Q229 38 344.50 112Q460 186 527.50 295Q595 404 622 546Q560 514 516.50 501.50Q473 489 425 489Q271 489 168.50 600Q66 711 66 904Q66 1038 121.50 1149.50Q177 1261 280 1322.50Q383 1384 494 1384Q613 1384 719 1316Q825 1248 888 1119Q951 990 951 825Q951 611 848.50 415Q746 219 543 100.50Q340-18 63-28M637 630Q647 742 647 827Q647 1009 605 1166Q581 1253 534 1294Q509 1316 469 1316Q419 1316 391 1273Q352 1214 352 1048Q352 771 418 666Q461 598 534 598Q573 598 637 630Z"  horiz-adv-x="1024" vert-adv-y="2048"  />

      
      <glyph glyph-name="uni3a" unicode="&#x3a;" d="M342 962Q411 962 459.50 913.50Q508 865 508 796Q508 727 459.50 678.50Q411 630 342 630Q273 630 224.50 678.50Q176 727 176 796Q176 865 224.50 913.50Q273 962 342 962M341 308Q411 308 459.50 259Q508 210 508 141Q508 72 459 23.50Q410-25 341-25Q272-25 223.50 23.50Q175 72 175 141Q175 210 223.50 259Q272 308 341 308Z"  horiz-adv-x="682" vert-adv-y="2048"  />

      
      <glyph glyph-name="uni3b" unicode="&#x3b;" d="M341 962Q410 962 458 914Q506 866 506 797Q506 728 457.50 679.50Q409 631 341 631Q272 631 223.50 679.50Q175 728 175 797Q175 866 223 914Q271 962 341 962M188-359L188-315Q304-265 356.50-185.50Q409-106 409-23Q409-6 402 3Q395 11 388 11Q382 11 370 4Q341-13 298-13Q239-13 195.50 33Q152 79 152 141Q152 207 202 257Q252 307 323 307Q409 307 470 240.50Q531 174 531 58Q531-85 444.50-196Q358-307 188-359Z"  horiz-adv-x="682" vert-adv-y="2048"  />

      
      <glyph glyph-name="uni037E" unicode="&#x037E;" d="M341 962Q410 962 458 914Q506 866 506 797Q506 728 457.50 679.50Q409 631 341 631Q272 631 223.50 679.50Q175 728 175 797Q175 866 223 914Q271 962 341 962M188-359L188-315Q304-265 356.50-185.50Q409-106 409-23Q409-6 402 3Q395 11 388 11Q382 11 370 4Q341-13 298-13Q239-13 195.50 33Q152 79 152 141Q152 207 202 257Q252 307 323 307Q409 307 470 240.50Q531 174 531 58Q531-85 444.50-196Q358-307 188-359Z"  horiz-adv-x="682" vert-adv-y="2048"  />

      
      <glyph glyph-name="uni3c" unicode="&#x3c;" d="M1133 185L41 631L41 712L1133 1163L1133 1025L288 672L1133 325L1133 185Z"  horiz-adv-x="1167" vert-adv-y="2048"  />

      
      <glyph glyph-name="uni3d" unicode="&#x3d;" d="M40 904L1134 904L1134 774L40 774L40 904M40 577L1134 577L1134 447L40 447L40 577Z"  horiz-adv-x="1167" vert-adv-y="2048"  />

      
      <glyph glyph-name="uni3e" unicode="&#x3e;" d="M41 1163L1133 718L1133 636L41 185L41 324L886 676L41 1023L41 1163Z"  horiz-adv-x="1167" vert-adv-y="2048"  />

      
      <glyph glyph-name="uni3f" unicode="&#x3f;" d="M486 442L445 442Q443 553 455.50 608Q468 663 520.50 759.50Q573 856 589.50 914.50Q606 973 606 1059Q606 1192 554 1255Q502 1318 431 1318Q377 1318 340 1289Q312 1267 312 1243Q312 1227 331 1193Q374 1116 374 1062Q374 1013 340.50 980Q307 947 257 947Q201 947 163 986.50Q125 1026 125 1091Q125 1209 227 1298Q329 1387 512 1387Q706 1387 807.50 1294.50Q909 1202 909 1071Q909 976 857 895.50Q805 815 656 717Q556 651 524.50 599.50Q493 548 486 442M475 296Q542 296 589 249Q636 202 636 135Q636 68 589 20.50Q542-27 475-27Q408-27 361 20.50Q314 68 314 135Q314 202 361 249Q408 296 475 296Z"  horiz-adv-x="1024" vert-adv-y="2048"  />

      
      <glyph glyph-name="uni40" unicode="&#x40;" d="M1179 925L1423 935L1240 307Q1209 203 1209 151Q1209 119 1232.50 95.50Q1256 72 1290 72Q1359 72 1468.50 151.50Q1578 231 1649.50 378.50Q1721 526 1721 693Q1721 969 1543.50 1146.50Q1366 1324 1081 1324Q835 1324 634 1208.50Q433 1093 315 873Q197 653 197 401Q197 55 417.50-165.50Q638-386 979-386Q1260-386 1483-235Q1706-84 1799 165L1860 165Q1740-129 1510.50-285.50Q1281-442 977-442Q592-442 342-193.50Q92 55 92 436Q92 698 216 921.50Q340 1145 564 1266Q788 1387 1060 1387Q1281 1387 1446.50 1298.50Q1612 1210 1695 1050Q1778 890 1778 712Q1778 505 1688.50 334Q1599 163 1465.50 81.50Q1332 0 1178 0Q1079 0 1027 49Q975 98 975 175Q975 229 999 316Q916 178 870 125Q807 54 745 21Q705 0 654 0Q583 0 534.50 56.50Q486 113 486 222Q486 334 518.50 441.50Q551 549 607 643.50Q663 738 736.50 813Q810 888 902 937Q949 963 1003 963Q1059 963 1095.50 928Q1132 893 1145 806L1179 925M1028 891Q990 891 953 849Q903 792 846 659Q744 420 744 275Q744 231 762.50 207Q781 183 803 183Q822 183 858 211Q909 250 967 343Q1025 436 1062 549.50Q1099 663 1099 759Q1099 828 1073 864Q1054 891 1028 891Z"  horiz-adv-x="1905" vert-adv-y="2048"  />

      
      <glyph glyph-name="uni41" unicode="&#x41;" d="M852 386L373 386L316 254Q288 188 288 145Q288 88 334 61Q361 45 467 37L467 0L16 0L16 37Q89 48 136 97.50Q183 147 252 302L737 1384L756 1384L1245 272Q1315 114 1360 73Q1394 42 1456 37L1456 0L800 0L800 37L827 37Q906 37 938 59Q960 75 960 105Q960 123 954 142Q952 151 924 217L852 386M818 460L616 927L408 460L818 460Z"  horiz-adv-x="1479" vert-adv-y="2048"  />

      
      <glyph glyph-name="uni42" unicode="&#x42;" d="M911 719Q1104 674 1182 610Q1294 519 1294 374Q1294 221 1171 121Q1020 0 732 0L43 0L43 37Q137 37 170.50 54.50Q204 72 217.50 100Q231 128 231 238L231 1118Q231 1228 217.50 1256.50Q204 1285 170 1302Q136 1319 43 1319L43 1356L693 1356Q926 1356 1023 1314.50Q1120 1273 1176 1190.50Q1232 1108 1232 1015Q1232 917 1161 840.50Q1090 764 911 719M547 746Q689 746 756.50 778Q824 810 860 868Q896 926 896 1016Q896 1106 860.50 1163.50Q825 1221 759 1251Q693 1281 547 1280L547 746M547 668L547 233L546 183Q546 129 573.50 101.50Q601 74 655 74Q735 74 802.50 109.50Q870 145 906 212.50Q942 280 942 363Q942 458 898 533.50Q854 609 777 639Q700 669 547 668Z"  horiz-adv-x="1366" vert-adv-y="2048"  />

      
      <glyph glyph-name="uni43" unicode="&#x43;" d="M1367 1387L1367 917L1328 917Q1284 1101 1164 1199Q1044 1297 892 1297Q765 1297 659 1224Q553 1151 504 1033Q441 882 441 697Q441 515 487 365.50Q533 216 631 139.50Q729 63 885 63Q1013 63 1119.50 119Q1226 175 1344 312L1344 195Q1230 76 1106.50 22.50Q983-31 818-31Q601-31 432.50 56Q264 143 172.50 306Q81 469 81 653Q81 847 182.50 1021Q284 1195 456.50 1291Q629 1387 823 1387Q966 1387 1125 1325Q1217 1289 1242 1289Q1274 1289 1297.50 1312.50Q1321 1336 1328 1387L1367 1387Z"  horiz-adv-x="1479" vert-adv-y="2048"  />

      
      <glyph glyph-name="uni44" unicode="&#x44;" d="M27 0L27 37L72 37Q131 37 162.50 55.50Q194 74 209 106Q218 127 218 232L218 1124Q218 1228 207 1254Q196 1280 162.50 1299.50Q129 1319 72 1319L27 1319L27 1356L634 1356Q877 1356 1025 1290Q1206 1209 1299.50 1045Q1393 881 1393 674Q1393 531 1347 410.50Q1301 290 1228 211.50Q1155 133 1059.50 85.50Q964 38 826 12Q765 0 634 0L27 0M544 1279L544 221Q544 137 552 118Q560 99 579 89Q606 74 657 74Q824 74 912 188Q1032 342 1032 666Q1032 927 950 1083Q885 1205 783 1249Q711 1280 544 1279Z"  horiz-adv-x="1479" vert-adv-y="2048"  />

      
      <glyph glyph-name="uni45" unicode="&#x45;" d="M558 1278L558 726L585 726Q714 726 772 807Q830 888 846 1046L884 1046L884 336L846 336Q834 452 795.50 526Q757 600 706 625.50Q655 651 558 651L558 269Q558 157 567.50 132Q577 107 603 91Q629 75 687 75L768 75Q958 75 1072.50 163Q1187 251 1237 431L1274 431L1213 0L41 0L41 37L86 37Q145 37 181 58Q207 72 221 106Q232 130 232 232L232 1124Q232 1216 227 1237Q217 1272 190 1291Q152 1319 86 1319L41 1319L41 1356L1176 1356L1176 955L1138 955Q1109 1102 1056.50 1166Q1004 1230 908 1260Q852 1278 698 1278L558 1278Z"  horiz-adv-x="1366" vert-adv-y="2048"  />

      
      <glyph glyph-name="uni46" unicode="&#x46;" d="M563 1278L563 721L602 721Q692 721 749 748Q806 775 845.50 839Q885 903 897 1012L932 1012L932 331L897 331Q878 524 793.50 585.50Q709 647 602 647L563 647L563 232Q563 128 574.50 102Q586 76 619.50 56.50Q653 37 710 37L755 37L755 0L46 0L46 37L91 37Q150 37 186 58Q212 72 226 106Q237 130 237 232L237 1124Q237 1228 226 1254Q215 1280 181.50 1299.50Q148 1319 91 1319L46 1319L46 1356L1190 1356L1190 967L1149 967Q1135 1104 1077.50 1170Q1020 1236 911 1263Q851 1278 689 1278L563 1278Z"  horiz-adv-x="1251" vert-adv-y="2048"  />

      
      <glyph glyph-name="uni47" unicode="&#x47;" d="M1413 1387L1413 909L1376 909Q1309 1105 1175 1207Q1041 1309 882 1309Q730 1309 629 1223.50Q528 1138 486 985Q444 832 444 671Q444 476 490 329Q536 182 638.50 113Q741 44 882 44Q931 44 982.50 54.50Q1034 65 1088 85L1088 367Q1088 447 1077 470.50Q1066 494 1031.50 513Q997 532 948 532L913 532L913 569L1572 569L1572 532Q1497 527 1467.50 511.50Q1438 496 1422 460Q1413 441 1413 367L1413 85Q1283 27 1142.50-2.50Q1002-32 851-32Q658-32 530.50 20.50Q403 73 305.50 158.50Q208 244 153 351Q83 489 83 660Q83 966 298 1177Q513 1388 839 1388Q940 1388 1021 1372Q1065 1364 1163.50 1326.50Q1262 1289 1280 1289Q1308 1289 1332 1309.50Q1356 1330 1376 1387L1413 1387Z"  horiz-adv-x="1593" vert-adv-y="2048"  />

      
      <glyph glyph-name="uni48" unicode="&#x48;" d="M560 652L560 232Q560 128 571.50 102Q583 76 616.50 56.50Q650 37 707 37L752 37L752 0L43 0L43 37L88 37Q147 37 183 58Q209 72 223 106Q234 130 234 232L234 1124Q234 1228 223 1254Q212 1280 178.50 1299.50Q145 1319 88 1319L43 1319L43 1356L752 1356L752 1319L707 1319Q648 1319 612 1298Q586 1284 571 1250Q560 1226 560 1124L560 740L1039 740L1039 1124Q1039 1228 1028 1254Q1017 1280 983 1299.50Q949 1319 892 1319L848 1319L848 1356L1556 1356L1556 1319L1512 1319Q1452 1319 1417 1298Q1391 1284 1376 1250Q1365 1226 1365 1124L1365 232Q1365 128 1376 102Q1387 76 1421 56.50Q1455 37 1512 37L1556 37L1556 0L848 0L848 37L892 37Q952 37 987 58Q1013 72 1028 106Q1039 130 1039 232L1039 652L560 652Z"  horiz-adv-x="1593" vert-adv-y="2048"  />

      
      <glyph glyph-name="uni49" unicode="&#x49;" d="M750 37L750 0L41 0L41 37L86 37Q145 37 181 58Q207 72 221 106Q232 130 232 232L232 1124Q232 1228 221 1254Q210 1280 176.50 1299.50Q143 1319 86 1319L41 1319L41 1356L750 1356L750 1319L705 1319Q646 1319 610 1298Q584 1284 569 1250Q558 1226 558 1124L558 232Q558 128 569.50 102Q581 76 614.50 56.50Q648 37 705 37L750 37Z"  horiz-adv-x="797" vert-adv-y="2048"  />

      
      <glyph glyph-name="uni4a" unicode="&#x4a;" d="M291 1319L291 1356L1012 1356L1012 1319L968 1319Q908 1319 872 1298Q847 1284 832 1250Q821 1226 821 1124L821 460Q821 265 782 176.50Q743 88 643.50 28.50Q544-31 404-31Q233-31 127.50 59Q22 149 22 258Q22 328 65 371.50Q108 415 170 415Q231 415 272.50 376Q314 337 314 280Q314 252 307 231Q303 221 275.50 180.50Q248 140 248 123Q248 97 274 78Q312 50 373 50Q416 50 444 72Q472 94 483.50 140.50Q495 187 495 399L495 1124Q495 1228 483.50 1254Q472 1280 438.50 1299.50Q405 1319 348 1319L291 1319Z"  horiz-adv-x="1024" vert-adv-y="2048"  />

      
      <glyph glyph-name="uni4b" unicode="&#x4b;" d="M853 837L1330 240Q1431 114 1504 69Q1557 37 1616 37L1616 0L910 0L910 37Q977 43 996.50 58Q1016 73 1016 95Q1016 137 924 253L613 644L563 602L563 232Q563 126 575 100Q587 74 621 55.50Q655 37 730 37L730 0L46 0L46 37L91 37Q150 37 186 58Q212 72 226 106Q237 130 237 232L237 1124Q237 1228 226 1254Q215 1280 181.50 1299.50Q148 1319 91 1319L46 1319L46 1356L721 1356L721 1319Q652 1319 616 1299Q590 1285 575 1252Q563 1227 563 1124L563 702L1066 1109Q1171 1194 1171 1245Q1171 1283 1128 1305Q1106 1316 1019 1319L1019 1356L1548 1356L1548 1319Q1477 1314 1436.50 1293.50Q1396 1273 1250 1155L853 837Z"  horiz-adv-x="1593" vert-adv-y="2048"  />

      
      <glyph glyph-name="uni4c" unicode="&#x4c;" d="M1293 476L1242 0L38 0L38 37L83 37Q142 37 178 58Q204 72 218 106Q229 130 229 232L229 1124Q229 1228 218 1254Q207 1280 173.50 1299.50Q140 1319 83 1319L38 1319L38 1356L761 1356L761 1319L702 1319Q643 1319 607 1298Q581 1284 566 1250Q555 1226 555 1124L555 260Q555 156 567 127.50Q579 99 614 85Q639 76 735 76L848 76Q956 76 1028 114Q1100 152 1152.50 234Q1205 316 1252 476L1293 476Z"  horiz-adv-x="1366" vert-adv-y="2048"  />

      
      <glyph glyph-name="uni4d" unicode="&#x4d;" d="M976 462L1344 1356L1896 1356L1896 1319L1852 1319Q1792 1319 1756 1298Q1731 1284 1716 1251Q1705 1227 1705 1126L1705 232Q1705 128 1716 102Q1727 76 1761 56.50Q1795 37 1852 37L1896 37L1896 0L1188 0L1188 37L1232 37Q1292 37 1328 58Q1353 72 1368 106Q1379 130 1379 232L1379 1237L859 0L835 0L307 1228L307 273Q307 173 312 150Q325 100 368.50 68.50Q412 37 505 37L505 0L41 0L41 37L55 37Q100 36 139 51.50Q178 67 198 93Q218 119 229 166Q231 177 231 268L231 1126Q231 1229 220 1254.50Q209 1280 175 1299.50Q141 1319 84 1319L41 1319L41 1356L595 1356L976 462Z"  horiz-adv-x="1933" vert-adv-y="2048"  />

      
      <glyph glyph-name="uni4e" unicode="&#x4e;" d="M510 1356L1179 515L1179 1098Q1179 1220 1144 1263Q1096 1321 983 1319L983 1356L1431 1356L1431 1319Q1345 1308 1315.50 1290.50Q1286 1273 1269.50 1233.50Q1253 1194 1253 1098L1253-31L1219-31L302 1098L302 236Q302 119 355.50 78Q409 37 478 37L510 37L510 0L29 0L29 37Q141 38 185 83Q229 128 229 236L229 1193L200 1229Q157 1283 124 1300Q91 1317 29 1319L29 1356L510 1356Z"  horiz-adv-x="1479" vert-adv-y="2048"  />

      
      <glyph glyph-name="uni4f" unicode="&#x4f;" d="M791 1375Q1115 1387 1317.50 1186Q1520 985 1520 683Q1520 425 1369 229Q1169-31 804-31Q438-31 238 217Q80 413 80 682Q80 984 285.50 1185.50Q491 1387 791 1375M803 1311Q617 1311 520 1121Q441 965 441 673Q441 326 563 160Q648 44 801 44Q904 44 973 94Q1061 158 1110 298.50Q1159 439 1159 665Q1159 934 1109 1067.50Q1059 1201 981.50 1256Q904 1311 803 1311Z"  horiz-adv-x="1593" vert-adv-y="2048"  />

      
      <glyph glyph-name="uni50" unicode="&#x50;" d="M553 614L553 238Q553 128 566.50 99.50Q580 71 614.50 54Q649 37 741 37L741 0L52 0L52 37Q146 37 179.50 54.50Q213 72 226.50 100Q240 128 240 238L240 1118Q240 1228 226.50 1256.50Q213 1285 179 1302Q145 1319 52 1319L52 1356L643 1356Q935 1356 1062 1252Q1189 1148 1189 992Q1189 860 1107 766Q1025 672 881 638Q784 614 553 614M553 1278L553 692Q586 690 603 690Q725 690 791 762.50Q857 835 857 987Q857 1138 791 1208Q725 1278 594 1278L553 1278Z"  horiz-adv-x="1251" vert-adv-y="2048"  />

      
      <glyph glyph-name="uni51" unicode="&#x51;" d="M979-12Q1025-145 1122-212Q1219-279 1365-279Q1405-279 1450-271L1450-332Q1299-370 1180-370Q994-370 847.50-279Q701-188 627-12Q381 40 230.50 229Q80 418 80 680Q80 984 284 1185.50Q488 1387 802 1387Q1115 1387 1318 1185Q1521 983 1521 680Q1521 416 1362 221Q1203 26 979-12M801 1311Q621 1311 523 1124Q441 967 441 677Q441 329 564 161Q650 44 801 44Q953 44 1038 159Q1161 324 1161 655Q1161 981 1084 1127Q988 1311 801 1311Z"  horiz-adv-x="1593" vert-adv-y="2048"  />

      
      <glyph glyph-name="uni52" unicode="&#x52;" d="M544 618L544 238Q544 128 557.50 99.50Q571 71 605 54Q639 37 732 37L732 0L38 0L38 37Q132 37 165.50 54.50Q199 72 212.50 100Q226 128 226 238L226 1118Q226 1228 212.50 1256.50Q199 1285 165 1302Q131 1319 38 1319L38 1356L668 1356Q914 1356 1028 1322Q1142 1288 1214 1196.50Q1286 1105 1286 982Q1286 832 1178 734Q1109 672 985 641L1311 182Q1375 93 1402 71Q1443 40 1497 37L1497 0L1070 0L633 618L544 618M544 1283L544 689L601 689Q740 689 809 714.50Q878 740 917.50 806.50Q957 873 957 980Q957 1135 884.50 1209Q812 1283 651 1283L544 1283Z"  horiz-adv-x="1479" vert-adv-y="2048"  />

      
      <glyph glyph-name="uni53" unicode="&#x53;" d="M962 1387L973 935L932 935Q903 1105 789.50 1208.50Q676 1312 544 1312Q442 1312 382.50 1257.50Q323 1203 323 1132Q323 1087 344 1052Q373 1005 437 959Q484 926 654 842Q892 725 975 621Q1057 517 1057 383Q1057 213 924.50 90.50Q792-32 588-32Q524-32 467-19Q410-6 324 30Q276 50 245 50Q219 50 190 30Q161 10 143-31L106-31L106 481L143 481Q187 265 312.50 151.50Q438 38 583 38Q695 38 761.50 99Q828 160 828 241Q828 289 802.50 334Q777 379 725 419.50Q673 460 541 525Q356 616 275 680Q194 744 150.50 823Q107 902 107 997Q107 1159 226 1273Q345 1387 526 1387Q592 1387 654 1371Q701 1359 768.50 1326.50Q836 1294 863 1294Q889 1294 904 1310Q919 1326 932 1387L962 1387Z"  horiz-adv-x="1139" vert-adv-y="2048"  />

      
      <glyph glyph-name="uni54" unicode="&#x54;" d="M1292 1356L1292 989L1256 989Q1224 1116 1185 1171.50Q1146 1227 1078 1260Q1040 1278 945 1278L844 1278L844 232Q844 128 855.50 102Q867 76 900.50 56.50Q934 37 992 37L1037 37L1037 0L327 0L327 37L372 37Q431 37 467 58Q493 72 508 106Q519 130 519 232L519 1278L421 1278Q284 1278 222 1220Q135 1139 112 989L74 989L74 1356L1292 1356Z"  horiz-adv-x="1366" vert-adv-y="2048"  />

      
      <glyph glyph-name="uni55" unicode="&#x55;" d="M48 1356L748 1356L748 1319L713 1319Q634 1319 604.50 1302.50Q575 1286 562.50 1257Q550 1228 550 1112L550 448Q550 266 577.50 207Q605 148 668 109Q731 70 827 70Q937 70 1014.50 119.50Q1092 169 1130.50 256Q1169 343 1169 559L1169 1112Q1169 1203 1150 1242Q1131 1281 1102 1296Q1057 1319 975 1319L975 1356L1444 1356L1444 1319L1416 1319Q1359 1319 1321 1296Q1283 1273 1266 1227Q1253 1195 1253 1112L1253 597Q1253 358 1221.50 252Q1190 146 1068 57Q946-32 735-32Q559-32 463 15Q332 79 278 179Q224 279 224 448L224 1112Q224 1229 211 1257.50Q198 1286 166 1303Q134 1320 48 1319L48 1356Z"  horiz-adv-x="1479" vert-adv-y="2048"  />

      
      <glyph glyph-name="uni56" unicode="&#x56;" d="M1458 1356L1458 1319Q1384 1307 1326 1240Q1284 1190 1201 1005L734-31L701-31L236 1047Q152 1242 123.50 1276Q95 1310 16 1319L16 1356L666 1356L666 1319L644 1319Q556 1319 524 1297Q501 1282 501 1253Q501 1235 509 1210.50Q517 1186 563 1079L852 404L1120 1005Q1168 1114 1179 1151Q1190 1188 1190 1214Q1190 1244 1174 1267Q1158 1290 1127 1302Q1084 1319 1013 1319L1013 1356L1458 1356Z"  horiz-adv-x="1479" vert-adv-y="2048"  />

      
      <glyph glyph-name="uni57" unicode="&#x57;" d="M2030 1356L2030 1319Q1992 1316 1966 1298Q1940 1280 1920 1243Q1914 1231 1857 1088L1432-31L1393-31L1057 843L687-31L650-31L204 1076Q136 1243 109 1278Q82 1313 18 1319L18 1356L606 1356L606 1319Q535 1317 511.50 1297.50Q488 1278 488 1249Q488 1211 537 1088L803 430L1016 944L960 1088Q914 1206 889 1245.50Q864 1285 831.50 1302Q799 1319 736 1319L736 1356L1393 1356L1393 1319Q1324 1318 1294 1308Q1273 1301 1261 1284.50Q1249 1268 1249 1247Q1249 1224 1294 1106L1541 464L1762 1045Q1797 1135 1805 1168Q1813 1201 1813 1229Q1813 1270 1785 1293.50Q1757 1317 1678 1319L1678 1356L2030 1356Z"  horiz-adv-x="2048" vert-adv-y="2048"  />

      
      <glyph glyph-name="uni58" unicode="&#x58;" d="M865 795L1239 240Q1332 102 1371.50 72.50Q1411 43 1465 37L1465 0L804 0L804 37Q883 43 906 61Q929 79 929 105Q929 123 922 137Q908 167 852 249L654 542L447 289Q354 174 354 133Q354 104 378 79Q402 54 449 43Q470 37 535 37L535 0L14 0L14 37Q103 50 154 85Q221 131 341 277L610 605L265 1112Q180 1237 168 1251Q141 1284 115 1298Q89 1312 43 1319L43 1356L716 1356L716 1319L682 1319Q624 1319 601 1300.50Q578 1282 578 1254Q578 1232 585 1216L654 1112L822 856L965 1031Q1075 1166 1075 1220Q1075 1247 1059.50 1270Q1044 1293 1015 1306Q986 1319 925 1319L925 1356L1424 1356L1424 1319Q1365 1318 1329 1304.50Q1293 1291 1252 1254Q1226 1230 1122 1105L865 795Z"  horiz-adv-x="1479" vert-adv-y="2048"  />

      
      <glyph glyph-name="uni59" unicode="&#x59;" d="M1456 1356L1456 1319Q1389 1310 1353 1280Q1303 1238 1195 1051L901 560L901 232Q901 127 912 101.50Q923 76 955.50 56.50Q988 37 1042 37L1118 37L1118 0L357 0L357 37L428 37Q488 37 523 58Q549 72 564 106Q575 130 575 232L575 504L256 1085Q161 1257 122 1287.50Q83 1318 18 1319L18 1356L668 1356L668 1319L639 1319Q580 1319 556.50 1302Q533 1285 533 1266Q533 1230 613 1085L858 636L1102 1045Q1193 1195 1193 1244Q1193 1271 1167 1289Q1133 1314 1042 1319L1042 1356L1456 1356Z"  horiz-adv-x="1479" vert-adv-y="2048"  />

      
      <glyph glyph-name="uni5a" unicode="&#x5a;" d="M1250 1356L453 76L711 76Q894 76 967 99Q1086 135 1172 231.50Q1258 328 1291 490L1330 490L1275 0L33 0L831 1282L630 1282Q513 1282 476 1275Q406 1262 344.50 1223.50Q283 1185 242.50 1121Q202 1057 179 959L142 959L179 1356L1250 1356Z"  horiz-adv-x="1366" vert-adv-y="2048"  />

      
      <glyph glyph-name="uni5b" unicode="&#x5b;" d="M214-374L214 1356L616 1356L616 1314L571 1314Q505 1314 482.50 1300.50Q460 1287 448.50 1260.50Q437 1234 437 1133L437-158Q437-254 441-268Q450-304 474.50-321Q499-338 571-338L616-338L616-374L214-374Z"  horiz-adv-x="682" vert-adv-y="2048"  />

      
      <glyph glyph-name="uni5c" unicode="&#x5c;" d="M2 1387L128 1387L575-31L446-31L2 1387Z"  horiz-adv-x="569" vert-adv-y="2048"  />

      
      <glyph glyph-name="uni5d" unicode="&#x5d;" d="M469 1356L469-374L67-374L67-336L112-336Q178-336 200.50-323Q223-310 234.50-283Q246-256 246-156L246 1136Q246 1232 242 1246Q233 1281 208.50 1298.50Q184 1316 112 1316L67 1316L67 1356L469 1356Z"  horiz-adv-x="682" vert-adv-y="2048"  />

      
      <glyph glyph-name="uni5e" unicode="&#x5e;" d="M147 666L558 1384L640 1384L1044 666L885 666L590 1178L300 666L147 666Z"  horiz-adv-x="1190" vert-adv-y="2048"  />

      
      <glyph glyph-name="uni5f" unicode="&#x5f;" d="M-19-311L1043-311L1043-442L-19-442L-19-311Z"  horiz-adv-x="1024" vert-adv-y="2048"  />

      
      <glyph glyph-name="uni60" unicode="&#x60;" d="M38 1402L339 1402L455 1055L370 1055L38 1402Z"  horiz-adv-x="682" vert-adv-y="2048"  />

      
      <glyph glyph-name="uni61" unicode="&#x61;" d="M585 138Q414-13 278-13Q198-13 145 39.50Q92 92 92 171Q92 278 184 363.50Q276 449 585 591L585 685Q585 791 573.50 818.50Q562 846 530 866.50Q498 887 458 887Q393 887 351 858Q325 840 325 816Q325 795 353 764Q391 721 391 681Q391 632 354.50 597.50Q318 563 259 563Q196 563 153.50 601Q111 639 111 690Q111 762 168 827.50Q225 893 327 928Q429 963 539 963Q672 963 749.50 906.50Q827 850 850 784Q864 742 864 591L864 228Q864 164 869 147.50Q874 131 884 123Q894 115 907 115Q933 115 960 152L990 128Q940 54 886.50 20.50Q833-13 765-13Q685-13 640 24.50Q595 62 585 138M585 211L585 524Q464 453 405 372Q366 318 366 263Q366 217 399 182Q424 155 469 155Q519 155 585 211Z"  horiz-adv-x="1024" vert-adv-y="2048"  />

      
      <glyph glyph-name="uni62" unicode="&#x62;" d="M431 1356L431 841Q549 963 689 963Q785 963 870 906.50Q955 850 1003 746Q1051 642 1051 506Q1051 353 990 228Q929 103 827 37.50Q725-28 594-28Q518-28 459-4Q400 20 343 74L188-27L154-27L154 1162Q154 1243 147 1262Q137 1290 115.50 1303.50Q94 1317 43 1319L43 1356L431 1356M431 752L431 336Q431 209 437 174Q447 115 485 78.50Q523 42 582 42Q633 42 669.50 71Q706 100 730.50 186Q755 272 755 496Q755 711 701 791Q662 849 596 849Q510 849 431 752Z"  horiz-adv-x="1139" vert-adv-y="2048"  />

      
      <glyph glyph-name="uni63" unicode="&#x63;" d="M832 241L863 217Q797 93 698.50 32.50Q600-28 489-28Q302-28 190 113Q78 254 78 452Q78 643 180 788Q303 963 519 963Q664 963 749.50 890Q835 817 835 727Q835 670 800.50 636Q766 602 710 602Q651 602 612.50 641Q574 680 565 780Q559 843 536 868Q513 893 482 893Q434 893 400 842Q348 765 348 606Q348 474 390 353.50Q432 233 505 174Q560 131 635 131Q684 131 728 154Q772 177 832 241Z"  horiz-adv-x="909" vert-adv-y="2048"  />

      
      <glyph glyph-name="uni64" unicode="&#x64;" d="M978 1356L978 280Q978 171 984 151Q992 118 1014.50 102Q1037 86 1093 82L1093 49L698-28L698 120Q627 34 571.50 3Q516-28 446-28Q267-28 163 132Q79 262 79 451Q79 602 131 721.50Q183 841 273.50 902Q364 963 468 963Q535 963 587 937Q639 911 698 846L698 1128Q698 1235 689 1257Q677 1286 653 1300Q629 1314 563 1314L563 1356L978 1356M698 722Q624 864 517 864Q480 864 456 844Q419 813 395.50 735Q372 657 372 496Q372 319 398 234Q424 149 469 111Q492 92 532 92Q620 92 698 230L698 722Z"  horiz-adv-x="1139" vert-adv-y="2048"  />

      
      <glyph glyph-name="uni65" unicode="&#x65;" d="M861 501L348 501Q357 315 447 207Q516 124 613 124Q673 124 722 157.50Q771 191 827 278L861 256Q785 101 693 36.50Q601-28 480-28Q272-28 165 132Q79 261 79 452Q79 686 205.50 824.50Q332 963 502 963Q644 963 748.50 846.50Q853 730 861 501M615 568Q615 729 597.50 789Q580 849 543 880Q522 898 487 898Q435 898 402 847Q343 758 343 603L343 568L615 568Z"  horiz-adv-x="909" vert-adv-y="2048"  />

      
      <glyph glyph-name="uni66" unicode="&#x66;" d="M479 837L479 188Q479 94 499 70Q531 33 617 36L617 0L66 0L66 36Q129 37 155.50 50.50Q182 64 192 88Q202 112 202 188L202 837L66 837L66 935L202 935L202 1004L201 1051Q201 1195 306.50 1291Q412 1387 592 1387Q715 1387 774.50 1341Q834 1295 834 1239Q834 1194 797 1161Q760 1128 699 1128Q647 1128 616.50 1155Q586 1182 586 1215Q586 1224 592 1252Q596 1269 596 1284Q596 1305 584 1315Q568 1330 545 1330Q516 1330 496.50 1306Q477 1282 477 1229L479 1054L479 935L617 935L617 837L479 837Z"  horiz-adv-x="682" vert-adv-y="2048"  />

      
      <glyph glyph-name="uni67" unicode="&#x67;" d="M669 924L984 924L984 814L805 814Q854 765 873 725Q897 671 897 612Q897 512 841.50 438.50Q786 365 690.50 323.50Q595 282 521 282Q515 282 401 287Q356 287 325.50 257.50Q295 228 295 187Q295 151 322.50 128Q350 105 412 105L585 107Q795 107 874 61Q987-3 987-136Q987-221 935-290.50Q883-360 798-393Q669-442 501-442Q375-442 271-417.50Q167-393 122-349.50Q77-306 77-258Q77-212 111.50-175.50Q146-139 240-114Q110-50 110 64Q110 133 163 198Q216 263 331 311Q197 360 137 440Q77 520 77 625Q77 762 189 862.50Q301 963 477 963Q570 963 669 924M496 901Q438 901 398 842.50Q358 784 358 600Q358 451 397.50 395.50Q437 340 491 340Q551 340 591 395Q631 450 631 609Q631 788 586 853Q554 901 496 901M437-138Q335-138 302-155Q245-186 245-239Q245-290 304-331.50Q363-373 526-373Q665-373 744.50-336Q824-299 824-232Q824-207 809-190Q782-160 727.50-149Q673-138 437-138Z"  horiz-adv-x="1024" vert-adv-y="2048"  />

      
      <glyph glyph-name="uni68" unicode="&#x68;" d="M451 1356L451 815Q528 896 592 929.50Q656 963 725 963Q813 963 875.50 913Q938 863 958.50 795.50Q979 728 979 568L979 203Q979 96 999 69.50Q1019 43 1080 36L1080 0L606 0L606 36Q656 43 681 76Q699 102 699 203L699 620Q699 736 690 765.50Q681 795 659.50 811.50Q638 828 611 828Q571 828 533 800.50Q495 773 451 704L451 203Q451 103 466 78Q485 44 544 36L544 0L70 0L70 36Q129 42 154 74Q171 96 171 203L171 1153Q171 1259 151.50 1285Q132 1311 70 1319L70 1356L451 1356Z"  horiz-adv-x="1139" vert-adv-y="2048"  />

      
      <glyph glyph-name="uni69" unicode="&#x69;" d="M294 1388Q359 1388 404 1342.50Q449 1297 449 1233Q449 1169 403.50 1124Q358 1079 294 1079Q230 1079 185 1124Q140 1169 140 1233Q140 1297 185 1342.50Q230 1388 294 1388M434 935L434 194Q434 95 457 67.50Q480 40 547 36L547 0L42 0L42 36Q104 38 134 72Q154 95 154 194L154 740Q154 839 131 866.50Q108 894 42 898L42 935L434 935Z"  horiz-adv-x="569" vert-adv-y="2048"  />

      
      <glyph glyph-name="uni6a" unicode="&#x6a;" d="M356 1387Q420 1387 464.50 1342.50Q509 1298 509 1235Q509 1171 464 1126Q419 1081 356 1081Q293 1081 248 1126Q203 1171 203 1235Q203 1298 247.50 1342.50Q292 1387 356 1387M496 935L496-33Q496-169 479-234Q454-328 379.50-385Q305-442 183-442Q60-442 1.50-392Q-57-342-57-271Q-57-227-26.50-194.50Q4-162 45-162Q83-162 105-184.50Q127-207 127-252Q127-264 126-280Q124-301 124-309Q124-344 140-361Q156-378 181-378Q204-378 220.50-358Q237-338 237-301Q237-281 231-220Q221-109 220-86L217 151L217 729L218 781Q218 844 196.50 867.50Q175 891 106 898L106 935L496 935Z"  horiz-adv-x="682" vert-adv-y="2048"  />

      
      <glyph glyph-name="uni6b" unicode="&#x6b;" d="M449 1356L449 464L666 677Q733 742 749.50 771Q766 800 766 827Q766 854 744 872Q722 890 658 898L658 935L1077 935L1077 898Q1017 895 972 869.50Q927 844 796 716L694 616L914 294Q1047 98 1072 74Q1106 40 1158 36L1158 0L675 0L675 36Q707 36 721.50 48Q736 60 736 74Q736 97 694 159L509 430L449 371L449 203Q449 96 469 69.50Q489 43 551 36L551 0L68 0L68 36Q127 42 152 74Q169 96 169 203L169 1153Q169 1259 149.50 1285Q130 1311 68 1319L68 1356L449 1356Z"  horiz-adv-x="1139" vert-adv-y="2048"  />

      
      <glyph glyph-name="uni6c" unicode="&#x6c;" d="M435 1356L435 194Q435 95 458 67.50Q481 40 548 36L548 0L43 0L43 36Q105 38 135 72Q155 95 155 194L155 1162Q155 1260 132 1287.50Q109 1315 43 1319L43 1356L435 1356Z"  horiz-adv-x="569" vert-adv-y="2048"  />

      
      <glyph glyph-name="uni6d" unicode="&#x6d;" d="M457 935L457 812Q534 896 599.50 929.50Q665 963 743 963Q833 963 894 921Q955 879 988 793Q1068 883 1141.50 923Q1215 963 1295 963Q1392 963 1449.50 918.50Q1507 874 1529.50 805.50Q1552 737 1552 587L1552 204Q1552 96 1571.50 70Q1591 44 1653 36L1653 0L1170 0L1170 36Q1227 41 1254 80Q1272 107 1272 204L1272 606Q1272 731 1262 765Q1252 799 1230.50 815.50Q1209 832 1180 832Q1137 832 1093 800.50Q1049 769 1004 706L1004 204Q1004 103 1021 77Q1044 40 1109 36L1109 0L625 0L625 36Q664 38 686.50 55.50Q709 73 716.50 97.50Q724 122 724 204L724 606Q724 733 714 765Q704 797 680.50 815Q657 833 630 833Q590 833 557 812Q510 781 457 706L457 204Q457 105 476.50 73.50Q496 42 558 36L558 0L76 0L76 36Q135 42 160 74Q177 96 177 204L177 732Q177 838 157.50 864Q138 890 76 898L76 935L457 935Z"  horiz-adv-x="1706" vert-adv-y="2048"  />

      
      <glyph glyph-name="uni6e" unicode="&#x6e;" d="M451 935L451 814Q523 892 589 927.50Q655 963 731 963Q822 963 882 912.50Q942 862 962 787Q978 730 978 568L978 204Q978 96 997.50 69.50Q1017 43 1079 36L1079 0L606 0L606 36Q659 43 682 80Q698 105 698 204L698 620Q698 735 689 765Q680 795 658.50 811.50Q637 828 611 828Q525 828 451 705L451 204Q451 99 470.50 71Q490 43 543 36L543 0L70 0L70 36Q129 42 154 74Q171 96 171 204L171 732Q171 838 151.50 864Q132 890 70 898L70 935L451 935Z"  horiz-adv-x="1139" vert-adv-y="2048"  />

      
      <glyph glyph-name="uni6f" unicode="&#x6f;" d="M510 963Q632 963 737 900Q842 837 896.50 721Q951 605 951 467Q951 268 850 134Q728-28 513-28Q302-28 188 120Q74 268 74 463Q74 664 190.50 813.50Q307 963 510 963M514 892Q463 892 426.50 853.50Q390 815 378.50 701.50Q367 588 367 386Q367 279 381 186Q392 115 428 78Q464 41 510 41Q555 41 585 66Q624 100 637 161Q657 256 657 545Q657 715 638 778.50Q619 842 582 871Q556 892 514 892Z"  horiz-adv-x="1024" vert-adv-y="2048"  />

      
      <glyph glyph-name="uni70" unicode="&#x70;" d="M431 95L431-253Q431-325 442.50-351Q454-377 478-389Q502-401 572-401L572-438L39-438L39-401Q101-399 131-366Q151-343 151-247L151 740Q151 839 128 866.50Q105 894 39 898L39 935L431 935L431 812Q480 884 531 916Q604 963 690 963Q793 963 877.50 898Q962 833 1006 718.50Q1050 604 1050 472Q1050 330 1004.50 212.50Q959 95 872.50 33.50Q786-28 680-28Q603-28 536 6Q486 32 431 95M431 196Q517 74 615 74Q669 74 704 131Q756 215 756 451Q756 693 699 782Q661 841 597 841Q496 841 431 695L431 196Z"  horiz-adv-x="1139" vert-adv-y="2048"  />

      
      <glyph glyph-name="uni71" unicode="&#x71;" d="M697 98Q636 34 583 8Q513-28 437-28Q261-28 159 129Q78 254 78 428Q78 573 139.50 700.50Q201 828 308.50 895.50Q416 963 536 963Q616 963 678.50 936Q741 909 786 854L943 963L977 963L977-248Q977-340 993-363Q1019-400 1098-401L1098-438L558-438L558-401Q620-401 648-387Q676-373 686.50-350Q697-327 697-256L697 98M697 189L697 574Q697 735 679.50 787Q662 839 615 877Q591 896 554 896Q478 896 436 829Q370 726 370 446Q370 231 427 144Q466 85 528 85Q564 85 609.50 110Q655 135 697 189Z"  horiz-adv-x="1139" vert-adv-y="2048"  />

      
      <glyph glyph-name="uni72" unicode="&#x72;" d="M457 935L457 723Q550 868 620 915.50Q690 963 755 963Q811 963 844.50 928.50Q878 894 878 831Q878 764 845.50 727Q813 690 767 690Q714 690 675 724Q636 758 629 762Q619 768 606 768Q577 768 551 746Q510 712 489 649Q457 552 457 435L457 220L458 164Q458 107 465 91Q477 64 500.50 51.50Q524 39 580 36L580 0L75 0L75 36Q136 41 157.50 69.50Q179 98 179 220L179 737Q179 817 171 839Q161 867 142 880Q123 893 75 898L75 935L457 935Z"  horiz-adv-x="909" vert-adv-y="2048"  />

      
      <glyph glyph-name="uni73" unicode="&#x73;" d="M660 961L675 642L641 642Q580 784 514.50 836Q449 888 384 888Q343 888 314 860.50Q285 833 285 797Q285 770 305 745Q337 704 484 604.50Q631 505 677.50 435.50Q724 366 724 280Q724 202 685 127Q646 52 575 12Q504-28 418-28Q351-28 239 14Q209 25 198 25Q165 25 143-25L110-25L94 311L128 311Q173 179 251.50 113Q330 47 400 47Q448 47 478.50 76.50Q509 106 509 148Q509 196 479 231Q449 266 345 337Q192 443 147 499Q81 581 81 680Q81 788 155.50 875.50Q230 963 371 963Q447 963 518 926Q545 911 562 911Q580 911 591 918.50Q602 926 626 961L660 961Z"  horiz-adv-x="797" vert-adv-y="2048"  />

      
      <glyph glyph-name="uni74" unicode="&#x74;" d="M440 1277L440 935L662 935L662 836L440 836L440 259Q440 178 447.50 154.50Q455 131 474 116.50Q493 102 509 102Q574 102 632 201L662 179Q581-13 399-13Q310-13 248.50 36.50Q187 86 170 147Q160 181 160 331L160 836L38 836L38 871Q164 960 252.50 1058Q341 1156 407 1277L440 1277Z"  horiz-adv-x="682" vert-adv-y="2048"  />

      
      <glyph glyph-name="uni75" unicode="&#x75;" d="M972 935L972 203Q972 96 992 69.50Q1012 43 1073 36L1073 0L692 0L692 125Q625 45 558 8.50Q491-28 408-28Q329-28 267.50 20.50Q206 69 185 134Q164 199 164 361L164 732Q164 838 144.50 864Q125 890 63 898L63 935L444 935L444 296Q444 196 453.50 167Q463 138 483.50 123Q504 108 531 108Q567 108 596 127Q636 153 692 232L692 732Q692 838 672.50 864Q653 890 591 898L591 935L972 935Z"  horiz-adv-x="1139" vert-adv-y="2048"  />

      
      <glyph glyph-name="uni76" unicode="&#x76;" d="M491-28L176 697Q119 828 87 863Q64 889 19 898L19 935L516 935L516 898Q469 898 452 881Q428 859 428 829Q428 792 472 690L626 339L749 642Q802 772 802 826Q802 857 779.50 876.50Q757 896 700 898L700 935L1006 935L1006 898Q962 892 934 865Q906 838 850 706L538-28L491-28Z"  horiz-adv-x="1024" vert-adv-y="2048"  />

      
      <glyph glyph-name="uni77" unicode="&#x77;" d="M996-28L740 658L489-28L437-28L188 650Q132 805 93 852Q68 884 17 898L17 935L489 935L489 898Q441 898 423 884Q405 870 405 852Q405 835 437 750L574 385L706 750L696 774Q666 849 643.50 869.50Q621 890 574 898L574 935L1053 935L1053 898Q997 895 982 882.50Q967 870 967 847Q967 825 996 750L1128 385L1248 721Q1274 793 1274 819Q1274 858 1255 876Q1236 894 1181 898L1181 935L1458 935L1458 898Q1412 892 1385 865.50Q1358 839 1315 715L1053-28L996-28Z"  horiz-adv-x="1479" vert-adv-y="2048"  />

      
      <glyph glyph-name="uni78" unicode="&#x78;" d="M622 573L784 265Q868 104 917 61Q944 38 991 36L991 0L470 0L470 36Q531 41 545.50 52Q560 63 560 82Q560 110 528 170L447 322L378 221Q331 152 325 139Q317 120 317 105Q317 82 326.50 66.50Q336 51 352.50 43.50Q369 36 413 36L413 0L47 0L47 36Q115 36 171.50 73.50Q228 111 336 270L413 384L252 682Q173 828 134 861Q95 894 47 898L47 935L565 935L565 898L538 897L486 879Q478 872 478 856Q478 841 483 825Q486 818 511 771L584 635L622 689Q702 799 702 843Q702 864 684.50 878.50Q667 893 622 898L622 935L953 935L953 898Q892 896 839 860.50Q786 825 720 723L622 573Z"  horiz-adv-x="1024" vert-adv-y="2048"  />

      
      <glyph glyph-name="uni79" unicode="&#x79;" d="M498-38L196 655Q128 812 95.50 848Q63 884 17 898L17 935L514 935L514 898Q465 896 445 879Q425 862 425 838Q425 800 475 688L635 322L744 605Q803 756 803 815Q803 852 778.50 874Q754 896 692 898L692 935L1005 935L1005 898Q959 893 930 862.50Q901 832 833 655L566-38Q465-298 416-358Q347-442 243-442Q160-442 108.50-394.50Q57-347 57-280Q57-222 92.50-184Q128-146 180-146Q230-146 260.50-178Q291-210 292-277Q293-315 301-326Q309-337 324-337Q348-337 375-308Q415-266 469-116L498-38Z"  horiz-adv-x="1024" vert-adv-y="2048"  />

      
      <glyph glyph-name="uni7a" unicode="&#x7a;" d="M835 0L21 0L21 22L535 874L385 874Q288 874 246 856.50Q204 839 178 800.50Q152 762 124 663L89 663L89 935L876 935L876 908L366 64L430 64Q622 64 707 119Q792 174 835 320L863 320L835 0Z"  horiz-adv-x="909" vert-adv-y="2048"  />

      
      <glyph glyph-name="uni7b" unicode="&#x7b;" d="M720 1387L720 1342Q620 1323 572.50 1271.50Q525 1220 525 1154Q525 1087 549 987.50Q573 888 573 814Q573 746 532.50 675.50Q492 605 416 555Q363 520 247 489Q371 450 427 412Q501 361 538 292Q575 223 575 161Q575 101 550.50 1Q526-99 526-173Q526-244 571.50-295.50Q617-347 720-367L720-414L685-414Q583-415 491.50-367Q400-319 353.50-243.50Q307-168 307-97Q307-28 338 92Q361 181 361 251Q361 330 311 385.50Q261 441 165 457L165 518Q261 534 311 592Q361 650 361 733Q361 801 339 886Q308 1005 308 1067Q308 1132 347 1199Q386 1266 445 1308Q504 1350 574 1369Q628 1384 720 1387Z"  horiz-adv-x="807" vert-adv-y="2048"  />

      
      <glyph glyph-name="uni7c" unicode="&#x7c;" d="M159-442L159 1387L289 1387L289-442L159-442Z"  horiz-adv-x="451" vert-adv-y="2048"  />

      
      <glyph glyph-name="uni7d" unicode="&#x7d;" d="M91-414L91-368Q190-349 238-297.50Q286-246 286-180Q286-114 262-14.50Q238 85 238 159Q238 228 278 298.50Q318 369 395 419Q448 453 564 485Q440 524 384 562Q309 613 272 682Q235 751 235 813Q235 873 259.50 973Q284 1073 284 1146Q284 1218 239 1269Q194 1320 91 1341L91 1387L126 1388Q227 1389 319 1341Q411 1293 457.50 1217.50Q504 1142 504 1070Q504 1002 473 882Q450 793 450 723Q450 644 499.50 588Q549 532 646 517L646 456Q549 440 499.50 382Q450 324 450 241Q450 173 472 88Q502-31 502-93Q502-159 463.50-225.50Q425-292 366-334Q307-376 237-395Q183-410 91-414Z"  horiz-adv-x="807" vert-adv-y="2048"  />

      
      <glyph glyph-name="uni7e" unicode="&#x7e;" d="M1071 709L1128 709Q1122 550 1045.50 468Q969 386 859 386Q806 386 746.50 403Q687 420 484 505Q338 566 273 566Q205 566 159.50 524.50Q114 483 97 387L39 387Q47 551 120.50 630.50Q194 710 299 710Q352 710 403 696Q504 667 682 591Q778 549 829 535Q859 527 894 527Q965 527 1013.50 574Q1062 621 1071 709Z"  horiz-adv-x="1065" vert-adv-y="2048"  />

      
      <glyph glyph-name="unic4" unicode="&#xc4;" d="M852 386L373 386L316 254Q288 188 288 145Q288 88 334 61Q361 45 467 37L467 0L16 0L16 37Q89 48 136 97.50Q183 147 252 302L737 1384L756 1384L1245 272Q1315 114 1360 73Q1394 42 1456 37L1456 0L800 0L800 37L827 37Q906 37 938 59Q960 75 960 105Q960 123 954 142Q952 151 924 217L852 386M818 460L616 927L408 460L818 460M925 1756Q981 1756 1019.50 1717Q1058 1678 1058 1623Q1058 1568 1019 1529Q980 1490 925 1490Q870 1490 831 1529Q792 1568 792 1623Q792 1678 831 1717Q870 1756 925 1756M551 1756Q607 1756 645.50 1717Q684 1678 684 1623Q684 1568 645 1529Q606 1490 551 1490Q496 1490 457 1529Q418 1568 418 1623Q418 1678 457 1717Q496 1756 551 1756Z"  horiz-adv-x="1479" vert-adv-y="2048"  />

      
      <glyph glyph-name="unic5" unicode="&#xc5;" d="M852 386L373 386L316 254Q288 188 288 145Q288 88 334 61Q361 45 467 37L467 0L16 0L16 37Q89 48 136 97.50Q183 147 252 302L737 1384L756 1384L1245 272Q1315 114 1360 73Q1394 42 1456 37L1456 0L800 0L800 37L827 37Q906 37 938 59Q960 75 960 105Q960 123 954 142Q952 151 924 217L852 386M818 460L616 927L408 460L818 460M751 1722Q839 1722 900 1661Q961 1600 961 1513Q961 1426 899.50 1364.50Q838 1303 751 1303Q665 1303 603.50 1364.50Q542 1426 542 1513Q542 1600 603 1661Q664 1722 751 1722M752 1645Q696 1645 657.50 1606.50Q619 1568 619 1513Q619 1458 658 1419.50Q697 1381 752 1381Q806 1381 845 1419.50Q884 1458 884 1513Q884 1568 845.50 1606.50Q807 1645 752 1645Z"  horiz-adv-x="1479" vert-adv-y="2048"  />

      
      <glyph glyph-name="unic7" unicode="&#xc7;" d="M1367 1387L1367 917L1328 917Q1284 1101 1164 1199Q1044 1297 892 1297Q765 1297 659 1224Q553 1151 504 1033Q441 882 441 697Q441 515 487 365.50Q533 216 631 139.50Q729 63 885 63Q1013 63 1119.50 119Q1226 175 1344 312L1344 195Q1230 76 1106.50 22.50Q983-31 818-31Q601-31 432.50 56Q264 143 172.50 306Q81 469 81 653Q81 847 182.50 1021Q284 1195 456.50 1291Q629 1387 823 1387Q966 1387 1125 1325Q1217 1289 1242 1289Q1274 1289 1297.50 1312.50Q1321 1336 1328 1387L1367 1387M800 12L866 12L819-61Q879-71 910.50-109.50Q942-148 942-206Q942-258 911-301Q880-344 832-361Q756-386 602-385L602-338Q702-334 737.50-305.50Q773-277 773-227Q773-197 749.50-177Q726-157 682-157L800 12Z"  horiz-adv-x="1479" vert-adv-y="2048"  />

      
      <glyph glyph-name="unic9" unicode="&#xc9;" d="M558 1278L558 726L585 726Q714 726 772 807Q830 888 846 1046L884 1046L884 336L846 336Q834 452 795.50 526Q757 600 706 625.50Q655 651 558 651L558 269Q558 157 567.50 132Q577 107 603 91Q629 75 687 75L768 75Q958 75 1072.50 163Q1187 251 1237 431L1274 431L1213 0L41 0L41 37L86 37Q145 37 181 58Q207 72 221 106Q232 130 232 232L232 1124Q232 1216 227 1237Q217 1272 190 1291Q152 1319 86 1319L41 1319L41 1356L1176 1356L1176 955L1138 955Q1109 1102 1056.50 1166Q1004 1230 908 1260Q852 1278 698 1278L558 1278M986 1819L655 1472L569 1472L685 1819L986 1819Z"  horiz-adv-x="1366" vert-adv-y="2048"  />

      
      <glyph glyph-name="unid1" unicode="&#xd1;" d="M510 1356L1179 515L1179 1098Q1179 1220 1144 1263Q1096 1321 983 1319L983 1356L1431 1356L1431 1319Q1345 1308 1315.50 1290.50Q1286 1273 1269.50 1233.50Q1253 1194 1253 1098L1253-31L1219-31L302 1098L302 236Q302 119 355.50 78Q409 37 478 37L510 37L510 0L29 0L29 37Q141 38 185 83Q229 128 229 236L229 1193L200 1229Q157 1283 124 1300Q91 1317 29 1319L29 1356L510 1356M1002 1754L1055 1754Q1056 1734 1056 1720Q1056 1610 994 1543Q932 1476 844 1476Q779 1476 680.50 1523Q582 1570 549 1570Q519 1570 499 1550Q479 1530 471 1478L413 1478Q409 1608 472.50 1682Q536 1756 629 1756Q659 1756 679 1750Q707 1742 775 1710Q878 1663 922 1663Q944 1663 964 1681Q984 1699 1002 1754Z"  horiz-adv-x="1479" vert-adv-y="2048"  />

      
      <glyph glyph-name="unid6" unicode="&#xd6;" d="M791 1375Q1115 1387 1317.50 1186Q1520 985 1520 683Q1520 425 1369 229Q1169-31 804-31Q438-31 238 217Q80 413 80 682Q80 984 285.50 1185.50Q491 1387 791 1375M803 1311Q617 1311 520 1121Q441 965 441 673Q441 326 563 160Q648 44 801 44Q904 44 973 94Q1061 158 1110 298.50Q1159 439 1159 665Q1159 934 1109 1067.50Q1059 1201 981.50 1256Q904 1311 803 1311M988 1756Q1044 1756 1082.50 1717Q1121 1678 1121 1623Q1121 1568 1082 1529Q1043 1490 988 1490Q933 1490 894 1529Q855 1568 855 1623Q855 1678 894 1717Q933 1756 988 1756M614 1756Q670 1756 708.50 1717Q747 1678 747 1623Q747 1568 708 1529Q669 1490 614 1490Q559 1490 520 1529Q481 1568 481 1623Q481 1678 520 1717Q559 1756 614 1756Z"  horiz-adv-x="1593" vert-adv-y="2048"  />

      
      <glyph glyph-name="unidc" unicode="&#xdc;" d="M48 1356L748 1356L748 1319L713 1319Q634 1319 604.50 1302.50Q575 1286 562.50 1257Q550 1228 550 1112L550 448Q550 266 577.50 207Q605 148 668 109Q731 70 827 70Q937 70 1014.50 119.50Q1092 169 1130.50 256Q1169 343 1169 559L1169 1112Q1169 1203 1150 1242Q1131 1281 1102 1296Q1057 1319 975 1319L975 1356L1444 1356L1444 1319L1416 1319Q1359 1319 1321 1296Q1283 1273 1266 1227Q1253 1195 1253 1112L1253 597Q1253 358 1221.50 252Q1190 146 1068 57Q946-32 735-32Q559-32 463 15Q332 79 278 179Q224 279 224 448L224 1112Q224 1229 211 1257.50Q198 1286 166 1303Q134 1320 48 1319L48 1356M925 1756Q981 1756 1019.50 1717Q1058 1678 1058 1623Q1058 1568 1019 1529Q980 1490 925 1490Q870 1490 831 1529Q792 1568 792 1623Q792 1678 831 1717Q870 1756 925 1756M551 1756Q607 1756 645.50 1717Q684 1678 684 1623Q684 1568 645 1529Q606 1490 551 1490Q496 1490 457 1529Q418 1568 418 1623Q418 1678 457 1717Q496 1756 551 1756Z"  horiz-adv-x="1479" vert-adv-y="2048"  />

      
      <glyph glyph-name="unie1" unicode="&#xe1;" d="M585 138Q414-13 278-13Q198-13 145 39.50Q92 92 92 171Q92 278 184 363.50Q276 449 585 591L585 685Q585 791 573.50 818.50Q562 846 530 866.50Q498 887 458 887Q393 887 351 858Q325 840 325 816Q325 795 353 764Q391 721 391 681Q391 632 354.50 597.50Q318 563 259 563Q196 563 153.50 601Q111 639 111 690Q111 762 168 827.50Q225 893 327 928Q429 963 539 963Q672 963 749.50 906.50Q827 850 850 784Q864 742 864 591L864 228Q864 164 869 147.50Q874 131 884 123Q894 115 907 115Q933 115 960 152L990 128Q940 54 886.50 20.50Q833-13 765-13Q685-13 640 24.50Q595 62 585 138M585 211L585 524Q464 453 405 372Q366 318 366 263Q366 217 399 182Q424 155 469 155Q519 155 585 211M815 1402L484 1055L398 1055L514 1402L815 1402Z"  horiz-adv-x="1024" vert-adv-y="2048"  />

      
      <glyph glyph-name="unie0" unicode="&#xe0;" d="M585 138Q414-13 278-13Q198-13 145 39.50Q92 92 92 171Q92 278 184 363.50Q276 449 585 591L585 685Q585 791 573.50 818.50Q562 846 530 866.50Q498 887 458 887Q393 887 351 858Q325 840 325 816Q325 795 353 764Q391 721 391 681Q391 632 354.50 597.50Q318 563 259 563Q196 563 153.50 601Q111 639 111 690Q111 762 168 827.50Q225 893 327 928Q429 963 539 963Q672 963 749.50 906.50Q827 850 850 784Q864 742 864 591L864 228Q864 164 869 147.50Q874 131 884 123Q894 115 907 115Q933 115 960 152L990 128Q940 54 886.50 20.50Q833-13 765-13Q685-13 640 24.50Q595 62 585 138M585 211L585 524Q464 453 405 372Q366 318 366 263Q366 217 399 182Q424 155 469 155Q519 155 585 211M208 1402L509 1402L625 1055L540 1055L208 1402Z"  horiz-adv-x="1024" vert-adv-y="2048"  />

      
      <glyph glyph-name="unie2" unicode="&#xe2;" d="M585 138Q414-13 278-13Q198-13 145 39.50Q92 92 92 171Q92 278 184 363.50Q276 449 585 591L585 685Q585 791 573.50 818.50Q562 846 530 866.50Q498 887 458 887Q393 887 351 858Q325 840 325 816Q325 795 353 764Q391 721 391 681Q391 632 354.50 597.50Q318 563 259 563Q196 563 153.50 601Q111 639 111 690Q111 762 168 827.50Q225 893 327 928Q429 963 539 963Q672 963 749.50 906.50Q827 850 850 784Q864 742 864 591L864 228Q864 164 869 147.50Q874 131 884 123Q894 115 907 115Q933 115 960 152L990 128Q940 54 886.50 20.50Q833-13 765-13Q685-13 640 24.50Q595 62 585 138M585 211L585 524Q464 453 405 372Q366 318 366 263Q366 217 399 182Q424 155 469 155Q519 155 585 211M628 1427L831 1045L754 1045L516 1251L271 1051L189 1051L402 1427L628 1427Z"  horiz-adv-x="1024" vert-adv-y="2048"  />

      
      <glyph glyph-name="unie4" unicode="&#xe4;" d="M585 138Q414-13 278-13Q198-13 145 39.50Q92 92 92 171Q92 278 184 363.50Q276 449 585 591L585 685Q585 791 573.50 818.50Q562 846 530 866.50Q498 887 458 887Q393 887 351 858Q325 840 325 816Q325 795 353 764Q391 721 391 681Q391 632 354.50 597.50Q318 563 259 563Q196 563 153.50 601Q111 639 111 690Q111 762 168 827.50Q225 893 327 928Q429 963 539 963Q672 963 749.50 906.50Q827 850 850 784Q864 742 864 591L864 228Q864 164 869 147.50Q874 131 884 123Q894 115 907 115Q933 115 960 152L990 128Q940 54 886.50 20.50Q833-13 765-13Q685-13 640 24.50Q595 62 585 138M585 211L585 524Q464 453 405 372Q366 318 366 263Q366 217 399 182Q424 155 469 155Q519 155 585 211M701 1369Q757 1369 795.50 1330Q834 1291 834 1236Q834 1181 795 1142Q756 1103 701 1103Q646 1103 607 1142Q568 1181 568 1236Q568 1291 607 1330Q646 1369 701 1369M327 1369Q383 1369 421.50 1330Q460 1291 460 1236Q460 1181 421 1142Q382 1103 327 1103Q272 1103 233 1142Q194 1181 194 1236Q194 1291 233 1330Q272 1369 327 1369Z"  horiz-adv-x="1024" vert-adv-y="2048"  />

      
      <glyph glyph-name="unie3" unicode="&#xe3;" d="M585 138Q414-13 278-13Q198-13 145 39.50Q92 92 92 171Q92 278 184 363.50Q276 449 585 591L585 685Q585 791 573.50 818.50Q562 846 530 866.50Q498 887 458 887Q393 887 351 858Q325 840 325 816Q325 795 353 764Q391 721 391 681Q391 632 354.50 597.50Q318 563 259 563Q196 563 153.50 601Q111 639 111 690Q111 762 168 827.50Q225 893 327 928Q429 963 539 963Q672 963 749.50 906.50Q827 850 850 784Q864 742 864 591L864 228Q864 164 869 147.50Q874 131 884 123Q894 115 907 115Q933 115 960 152L990 128Q940 54 886.50 20.50Q833-13 765-13Q685-13 640 24.50Q595 62 585 138M585 211L585 524Q464 453 405 372Q366 318 366 263Q366 217 399 182Q424 155 469 155Q519 155 585 211M778 1370L831 1370Q832 1350 832 1336Q832 1226 770 1159Q708 1092 620 1092Q555 1092 456.50 1139Q358 1186 325 1186Q295 1186 275 1166Q255 1146 247 1094L189 1094Q185 1224 248.50 1298Q312 1372 405 1372Q435 1372 455 1366Q483 1358 551 1326Q654 1279 698 1279Q720 1279 740 1297Q760 1315 778 1370Z"  horiz-adv-x="1024" vert-adv-y="2048"  />

      
      <glyph glyph-name="unie5" unicode="&#xe5;" d="M585 138Q414-13 278-13Q198-13 145 39.50Q92 92 92 171Q92 278 184 363.50Q276 449 585 591L585 685Q585 791 573.50 818.50Q562 846 530 866.50Q498 887 458 887Q393 887 351 858Q325 840 325 816Q325 795 353 764Q391 721 391 681Q391 632 354.50 597.50Q318 563 259 563Q196 563 153.50 601Q111 639 111 690Q111 762 168 827.50Q225 893 327 928Q429 963 539 963Q672 963 749.50 906.50Q827 850 850 784Q864 742 864 591L864 228Q864 164 869 147.50Q874 131 884 123Q894 115 907 115Q933 115 960 152L990 128Q940 54 886.50 20.50Q833-13 765-13Q685-13 640 24.50Q595 62 585 138M585 211L585 524Q464 453 405 372Q366 318 366 263Q366 217 399 182Q424 155 469 155Q519 155 585 211M511 1437Q599 1437 660 1376Q721 1315 721 1228Q721 1141 659.50 1079.50Q598 1018 511 1018Q425 1018 363.50 1079.50Q302 1141 302 1228Q302 1315 363 1376Q424 1437 511 1437M512 1360Q456 1360 417.50 1321.50Q379 1283 379 1228Q379 1173 418 1134.50Q457 1096 512 1096Q566 1096 605 1134.50Q644 1173 644 1228Q644 1283 605.50 1321.50Q567 1360 512 1360Z"  horiz-adv-x="1024" vert-adv-y="2048"  />

      
      <glyph glyph-name="unie7" unicode="&#xe7;" d="M832 241L863 217Q797 93 698.50 32.50Q600-28 489-28Q302-28 190 113Q78 254 78 452Q78 643 180 788Q303 963 519 963Q664 963 749.50 890Q835 817 835 727Q835 670 800.50 636Q766 602 710 602Q651 602 612.50 641Q574 680 565 780Q559 843 536 868Q513 893 482 893Q434 893 400 842Q348 765 348 606Q348 474 390 353.50Q432 233 505 174Q560 131 635 131Q684 131 728 154Q772 177 832 241M480 12L546 12L499-61Q559-71 590.50-109.50Q622-148 622-206Q622-258 591-301Q560-344 512-361Q436-386 282-385L282-338Q382-334 417.50-305.50Q453-277 453-227Q453-197 429.50-177Q406-157 362-157L480 12Z"  horiz-adv-x="909" vert-adv-y="2048"  />

      
      <glyph glyph-name="unie9" unicode="&#xe9;" d="M861 501L348 501Q357 315 447 207Q516 124 613 124Q673 124 722 157.50Q771 191 827 278L861 256Q785 101 693 36.50Q601-28 480-28Q272-28 165 132Q79 261 79 452Q79 686 205.50 824.50Q332 963 502 963Q644 963 748.50 846.50Q853 730 861 501M615 568Q615 729 597.50 789Q580 849 543 880Q522 898 487 898Q435 898 402 847Q343 758 343 603L343 568L615 568M762 1402L431 1055L345 1055L461 1402L762 1402Z"  horiz-adv-x="909" vert-adv-y="2048"  />

      
      <glyph glyph-name="unie8" unicode="&#xe8;" d="M861 501L348 501Q357 315 447 207Q516 124 613 124Q673 124 722 157.50Q771 191 827 278L861 256Q785 101 693 36.50Q601-28 480-28Q272-28 165 132Q79 261 79 452Q79 686 205.50 824.50Q332 963 502 963Q644 963 748.50 846.50Q853 730 861 501M615 568Q615 729 597.50 789Q580 849 543 880Q522 898 487 898Q435 898 402 847Q343 758 343 603L343 568L615 568M195 1402L496 1402L612 1055L527 1055L195 1402Z"  horiz-adv-x="909" vert-adv-y="2048"  />

      
      <glyph glyph-name="uniea" unicode="&#xea;" d="M861 501L348 501Q357 315 447 207Q516 124 613 124Q673 124 722 157.50Q771 191 827 278L861 256Q785 101 693 36.50Q601-28 480-28Q272-28 165 132Q79 261 79 452Q79 686 205.50 824.50Q332 963 502 963Q644 963 748.50 846.50Q853 730 861 501M615 568Q615 729 597.50 789Q580 849 543 880Q522 898 487 898Q435 898 402 847Q343 758 343 603L343 568L615 568M575 1427L778 1045L701 1045L463 1251L218 1051L136 1051L349 1427L575 1427Z"  horiz-adv-x="909" vert-adv-y="2048"  />

      
      <glyph glyph-name="unieb" unicode="&#xeb;" d="M861 501L348 501Q357 315 447 207Q516 124 613 124Q673 124 722 157.50Q771 191 827 278L861 256Q785 101 693 36.50Q601-28 480-28Q272-28 165 132Q79 261 79 452Q79 686 205.50 824.50Q332 963 502 963Q644 963 748.50 846.50Q853 730 861 501M615 568Q615 729 597.50 789Q580 849 543 880Q522 898 487 898Q435 898 402 847Q343 758 343 603L343 568L615 568M672 1369Q728 1369 766.50 1330Q805 1291 805 1236Q805 1181 766 1142Q727 1103 672 1103Q617 1103 578 1142Q539 1181 539 1236Q539 1291 578 1330Q617 1369 672 1369M298 1369Q354 1369 392.50 1330Q431 1291 431 1236Q431 1181 392 1142Q353 1103 298 1103Q243 1103 204 1142Q165 1181 165 1236Q165 1291 204 1330Q243 1369 298 1369Z"  horiz-adv-x="909" vert-adv-y="2048"  />

      
      <glyph glyph-name="unied" unicode="&#xed;" d="M434 935L434 194Q434 95 457 67.50Q480 40 547 36L547 0L42 0L42 36Q104 38 134 72Q154 95 154 194L154 740Q154 839 131 866.50Q108 894 42 898L42 935L434 935M592 1402L261 1055L175 1055L291 1402L592 1402Z"  horiz-adv-x="569" vert-adv-y="2048"  />

      
      <glyph glyph-name="uniec" unicode="&#xec;" d="M434 935L434 194Q434 95 457 67.50Q480 40 547 36L547 0L42 0L42 36Q104 38 134 72Q154 95 154 194L154 740Q154 839 131 866.50Q108 894 42 898L42 935L434 935M-15 1402L286 1402L402 1055L317 1055L-15 1402Z"  horiz-adv-x="569" vert-adv-y="2048"  />

      
      <glyph glyph-name="uniee" unicode="&#xee;" d="M434 935L434 194Q434 95 457 67.50Q480 40 547 36L547 0L42 0L42 36Q104 38 134 72Q154 95 154 194L154 740Q154 839 131 866.50Q108 894 42 898L42 935L434 935M404 1427L607 1045L530 1045L292 1251L47 1051L-35 1051L178 1427L404 1427Z"  horiz-adv-x="569" vert-adv-y="2048"  />

      
      <glyph glyph-name="unief" unicode="&#xef;" d="M434 935L434 194Q434 95 457 67.50Q480 40 547 36L547 0L42 0L42 36Q104 38 134 72Q154 95 154 194L154 740Q154 839 131 866.50Q108 894 42 898L42 935L434 935M477 1369Q533 1369 571.50 1330Q610 1291 610 1236Q610 1181 571 1142Q532 1103 477 1103Q422 1103 383 1142Q344 1181 344 1236Q344 1291 383 1330Q422 1369 477 1369M103 1369Q159 1369 197.50 1330Q236 1291 236 1236Q236 1181 197 1142Q158 1103 103 1103Q48 1103 9 1142Q-30 1181-30 1236Q-30 1291 9 1330Q48 1369 103 1369Z"  horiz-adv-x="569" vert-adv-y="2048"  />

      
      <glyph glyph-name="unif1" unicode="&#xf1;" d="M451 935L451 814Q523 892 589 927.50Q655 963 731 963Q822 963 882 912.50Q942 862 962 787Q978 730 978 568L978 204Q978 96 997.50 69.50Q1017 43 1079 36L1079 0L606 0L606 36Q659 43 682 80Q698 105 698 204L698 620Q698 735 689 765Q680 795 658.50 811.50Q637 828 611 828Q525 828 451 705L451 204Q451 99 470.50 71Q490 43 543 36L543 0L70 0L70 36Q129 42 154 74Q171 96 171 204L171 732Q171 838 151.50 864Q132 890 70 898L70 935L451 935M831 1370L884 1370Q885 1350 885 1336Q885 1226 823 1159Q761 1092 673 1092Q608 1092 509.50 1139Q411 1186 378 1186Q348 1186 328 1166Q308 1146 300 1094L242 1094Q238 1224 301.50 1298Q365 1372 458 1372Q488 1372 508 1366Q536 1358 604 1326Q707 1279 751 1279Q773 1279 793 1297Q813 1315 831 1370Z"  horiz-adv-x="1139" vert-adv-y="2048"  />

      
      <glyph glyph-name="unif3" unicode="&#xf3;" d="M510 963Q632 963 737 900Q842 837 896.50 721Q951 605 951 467Q951 268 850 134Q728-28 513-28Q302-28 188 120Q74 268 74 463Q74 664 190.50 813.50Q307 963 510 963M514 892Q463 892 426.50 853.50Q390 815 378.50 701.50Q367 588 367 386Q367 279 381 186Q392 115 428 78Q464 41 510 41Q555 41 585 66Q624 100 637 161Q657 256 657 545Q657 715 638 778.50Q619 842 582 871Q556 892 514 892M815 1402L484 1055L398 1055L514 1402L815 1402Z"  horiz-adv-x="1024" vert-adv-y="2048"  />

      
      <glyph glyph-name="unif2" unicode="&#xf2;" d="M510 963Q632 963 737 900Q842 837 896.50 721Q951 605 951 467Q951 268 850 134Q728-28 513-28Q302-28 188 120Q74 268 74 463Q74 664 190.50 813.50Q307 963 510 963M514 892Q463 892 426.50 853.50Q390 815 378.50 701.50Q367 588 367 386Q367 279 381 186Q392 115 428 78Q464 41 510 41Q555 41 585 66Q624 100 637 161Q657 256 657 545Q657 715 638 778.50Q619 842 582 871Q556 892 514 892M207 1402L508 1402L624 1055L539 1055L207 1402Z"  horiz-adv-x="1024" vert-adv-y="2048"  />

      
      <glyph glyph-name="unif4" unicode="&#xf4;" d="M510 963Q632 963 737 900Q842 837 896.50 721Q951 605 951 467Q951 268 850 134Q728-28 513-28Q302-28 188 120Q74 268 74 463Q74 664 190.50 813.50Q307 963 510 963M514 892Q463 892 426.50 853.50Q390 815 378.50 701.50Q367 588 367 386Q367 279 381 186Q392 115 428 78Q464 41 510 41Q555 41 585 66Q624 100 637 161Q657 256 657 545Q657 715 638 778.50Q619 842 582 871Q556 892 514 892M627 1427L830 1045L753 1045L515 1251L270 1051L188 1051L401 1427L627 1427Z"  horiz-adv-x="1024" vert-adv-y="2048"  />

      
      <glyph glyph-name="unif6" unicode="&#xf6;" d="M510 963Q632 963 737 900Q842 837 896.50 721Q951 605 951 467Q951 268 850 134Q728-28 513-28Q302-28 188 120Q74 268 74 463Q74 664 190.50 813.50Q307 963 510 963M514 892Q463 892 426.50 853.50Q390 815 378.50 701.50Q367 588 367 386Q367 279 381 186Q392 115 428 78Q464 41 510 41Q555 41 585 66Q624 100 637 161Q657 256 657 545Q657 715 638 778.50Q619 842 582 871Q556 892 514 892M700 1369Q756 1369 794.50 1330Q833 1291 833 1236Q833 1181 794 1142Q755 1103 700 1103Q645 1103 606 1142Q567 1181 567 1236Q567 1291 606 1330Q645 1369 700 1369M326 1369Q382 1369 420.50 1330Q459 1291 459 1236Q459 1181 420 1142Q381 1103 326 1103Q271 1103 232 1142Q193 1181 193 1236Q193 1291 232 1330Q271 1369 326 1369Z"  horiz-adv-x="1024" vert-adv-y="2048"  />

      
      <glyph glyph-name="unif5" unicode="&#xf5;" d="M510 963Q632 963 737 900Q842 837 896.50 721Q951 605 951 467Q951 268 850 134Q728-28 513-28Q302-28 188 120Q74 268 74 463Q74 664 190.50 813.50Q307 963 510 963M514 892Q463 892 426.50 853.50Q390 815 378.50 701.50Q367 588 367 386Q367 279 381 186Q392 115 428 78Q464 41 510 41Q555 41 585 66Q624 100 637 161Q657 256 657 545Q657 715 638 778.50Q619 842 582 871Q556 892 514 892M777 1370L830 1370Q831 1350 831 1336Q831 1226 769 1159Q707 1092 619 1092Q554 1092 455.50 1139Q357 1186 324 1186Q294 1186 274 1166Q254 1146 246 1094L188 1094Q184 1224 247.50 1298Q311 1372 404 1372Q434 1372 454 1366Q482 1358 550 1326Q653 1279 697 1279Q719 1279 739 1297Q759 1315 777 1370Z"  horiz-adv-x="1024" vert-adv-y="2048"  />

      
      <glyph glyph-name="unifa" unicode="&#xfa;" d="M972 935L972 203Q972 96 992 69.50Q1012 43 1073 36L1073 0L692 0L692 125Q625 45 558 8.50Q491-28 408-28Q329-28 267.50 20.50Q206 69 185 134Q164 199 164 361L164 732Q164 838 144.50 864Q125 890 63 898L63 935L444 935L444 296Q444 196 453.50 167Q463 138 483.50 123Q504 108 531 108Q567 108 596 127Q636 153 692 232L692 732Q692 838 672.50 864Q653 890 591 898L591 935L972 935M869 1402L538 1055L452 1055L568 1402L869 1402Z"  horiz-adv-x="1139" vert-adv-y="2048"  />

      
      <glyph glyph-name="unif9" unicode="&#xf9;" d="M972 935L972 203Q972 96 992 69.50Q1012 43 1073 36L1073 0L692 0L692 125Q625 45 558 8.50Q491-28 408-28Q329-28 267.50 20.50Q206 69 185 134Q164 199 164 361L164 732Q164 838 144.50 864Q125 890 63 898L63 935L444 935L444 296Q444 196 453.50 167Q463 138 483.50 123Q504 108 531 108Q567 108 596 127Q636 153 692 232L692 732Q692 838 672.50 864Q653 890 591 898L591 935L972 935M259 1402L560 1402L676 1055L591 1055L259 1402Z"  horiz-adv-x="1139" vert-adv-y="2048"  />

      
      <glyph glyph-name="unifb" unicode="&#xfb;" d="M972 935L972 203Q972 96 992 69.50Q1012 43 1073 36L1073 0L692 0L692 125Q625 45 558 8.50Q491-28 408-28Q329-28 267.50 20.50Q206 69 185 134Q164 199 164 361L164 732Q164 838 144.50 864Q125 890 63 898L63 935L444 935L444 296Q444 196 453.50 167Q463 138 483.50 123Q504 108 531 108Q567 108 596 127Q636 153 692 232L692 732Q692 838 672.50 864Q653 890 591 898L591 935L972 935M682 1427L885 1045L808 1045L570 1251L325 1051L243 1051L456 1427L682 1427Z"  horiz-adv-x="1139" vert-adv-y="2048"  />

      
      <glyph glyph-name="unifc" unicode="&#xfc;" d="M972 935L972 203Q972 96 992 69.50Q1012 43 1073 36L1073 0L692 0L692 125Q625 45 558 8.50Q491-28 408-28Q329-28 267.50 20.50Q206 69 185 134Q164 199 164 361L164 732Q164 838 144.50 864Q125 890 63 898L63 935L444 935L444 296Q444 196 453.50 167Q463 138 483.50 123Q504 108 531 108Q567 108 596 127Q636 153 692 232L692 732Q692 838 672.50 864Q653 890 591 898L591 935L972 935M755 1369Q811 1369 849.50 1330Q888 1291 888 1236Q888 1181 849 1142Q810 1103 755 1103Q700 1103 661 1142Q622 1181 622 1236Q622 1291 661 1330Q700 1369 755 1369M381 1369Q437 1369 475.50 1330Q514 1291 514 1236Q514 1181 475 1142Q436 1103 381 1103Q326 1103 287 1142Q248 1181 248 1236Q248 1291 287 1330Q326 1369 381 1369Z"  horiz-adv-x="1139" vert-adv-y="2048"  />

      
      <glyph glyph-name="uni2020" unicode="&#x2020;" d="M533-401L484-401L484-311Q484 70 449 309Q428 458 378 598Q427 641 451.50 693.50Q476 746 484 829Q439 824 416 816Q382 805 320.50 770Q259 735 219 735Q169 735 134 769Q99 803 99 852Q99 901 133.50 934Q168 967 215 967Q255 967 334 925Q413 883 484 873Q477 962 430 1062Q400 1128 392 1156Q384 1184 384 1214Q384 1277 421 1316.50Q458 1356 508 1356Q560 1356 598 1318Q636 1280 636 1214Q636 1180 628 1151.50Q620 1123 590 1063.50Q560 1004 547 959Q538 927 533 873Q580 877 607.50 886.50Q635 896 699 933Q743 958 754 962Q776 968 801 968Q854 968 889 934Q924 900 924 850Q924 802 889.50 769Q855 736 806 736Q780 736 755 744Q740 749 673 786Q606 823 533 829Q548 677 641 598Q581 421 560 263Q533 59 533-311L533-401Z"  horiz-adv-x="1024" vert-adv-y="2048"  />

      
      <glyph glyph-name="unib0" unicode="&#xb0;" d="M405 1384Q492 1384 575 1339.50Q658 1295 704.50 1211.50Q751 1128 751 1038Q751 895 649.50 793.50Q548 692 405 692Q262 692 160.50 793.50Q59 895 59 1038Q59 1128 105.50 1211.50Q152 1295 235 1339.50Q318 1384 405 1384M405 1254Q315 1254 252.50 1191Q190 1128 190 1039Q190 950 253 887Q316 824 405 824Q494 824 557 887Q620 950 620 1039Q620 1128 557 1191Q494 1254 405 1254Z"  horiz-adv-x="819" vert-adv-y="2048"  />

      
      <glyph glyph-name="unia2" unicode="&#xa2;" d="M880 243L912 220Q778-28 529-28Q442-28 361 15L208-377L139-377L303 54Q216 126 172 230Q128 334 128 456Q128 662 247.50 810.50Q367 959 553 959Q592 959 647 955L797 1348L869 1348L711 935Q800 901 841.50 845.50Q883 790 883 727Q883 671 849 636.50Q815 602 761 602Q711 602 677.50 626Q644 650 624 707L465 289Q510 208 561.50 170Q613 132 680 132Q790 132 880 243M602 839Q570 894 530 894Q483 894 448 842Q396 767 396 624Q396 520 429 383L602 839Z"  horiz-adv-x="1024" vert-adv-y="2048"  />

      
      <glyph glyph-name="unia3" unicode="&#xa3;" d="M534 783L753 783L753 631L547 631Q549 580 549 554Q549 408 500 260Q553 248 607.50 242Q662 236 718 236Q824 236 881 269Q921 292 941 345L982 345Q982 168 893.50 70Q805-28 674-28Q612-28 558-4.50Q504 19 421 88Q378 30 337 5Q281-28 217-28Q137-28 86 22Q35 72 35 138Q35 210 91 263.50Q147 317 246 317Q268 317 293 313Q318 309 346 300Q341 362 330 406L259 631L42 631L42 783L227 783Q212 894 212 954Q212 1116 305 1241Q417 1392 595 1392Q725 1392 812.50 1314.50Q900 1237 900 1145Q900 1083 863.50 1045Q827 1007 769 1007Q708 1007 671.50 1045Q635 1083 635 1145Q635 1155 637 1196Q638 1215 638 1230Q638 1279 617 1302Q595 1325 557 1325Q522 1325 498 1296Q474 1267 474 1205Q474 1132 500 998Q526 864 534 783M333 163Q293 192 268 201.50Q243 211 214 211Q167 211 141 187.50Q115 164 115 131Q115 100 140 77Q165 54 201 54Q239 54 274 79.50Q309 105 333 163Z"  horiz-adv-x="1024" vert-adv-y="2048"  />

      
      <glyph glyph-name="unia7" unicode="&#xa7;" d="M306 807Q224 880 189 943.50Q154 1007 154 1078Q154 1200 256.50 1293.50Q359 1387 521 1387Q672 1387 764.50 1310.50Q857 1234 857 1145Q857 1091 824.50 1057Q792 1023 742 1023Q693 1023 662 1054Q631 1085 631 1128Q631 1147 637 1176.50Q643 1206 643 1225Q643 1265 611.50 1292.50Q580 1320 519 1320Q444 1320 393 1273Q342 1226 342 1171Q342 1107 383 1054Q423 1000 572 906Q932 683 932 459Q932 370 884 295.50Q836 221 717 139Q805 54 836.50-7.50Q868-69 868-142Q868-225 825-293.50Q782-362 697-402Q612-442 501-442Q343-442 258-369Q173-296 173-201Q173-150 207-114.50Q241-79 291-79Q339-79 371.50-111Q404-143 404-182Q404-205 391.50-240.50Q379-276 379-299Q379-326 409-349Q439-372 502-372Q590-372 638.50-329Q687-286 687-228Q687-161 654-117Q609-58 464 30Q283 141 177 267Q92 369 92 464Q92 551 140 631.50Q188 712 306 807M360 763Q265 681 265 590Q265 541 294 490.50Q323 440 392 384L666 180Q719 229 741 270.50Q763 312 763 354Q763 401 740 442Q703 506 630 563Q595 591 360 763Z"  horiz-adv-x="1024" vert-adv-y="2048"  />

      
      <glyph glyph-name="uni2022" unicode="&#x2022;" d="M363 962Q482 962 565 878.50Q648 795 648 676Q648 558 564.50 474Q481 390 363 390Q244 390 160.50 474Q77 558 77 676Q77 795 160 878.50Q243 962 363 962Z"  horiz-adv-x="717" vert-adv-y="2048"  />

      
      <glyph glyph-name="unib6" unicode="&#xb6;" d="M639 1280L639-442L539-442L539 429Q353 437 237.50 491Q122 545 61.50 655.50Q1 766 1 903Q1 1005 26 1071.50Q51 1138 105.50 1198.50Q160 1259 217 1292Q274 1325 348 1338Q444 1356 669 1356L1109 1356L1109 1312L1065 1312Q1006 1312 976 1294Q946 1276 931 1242Q920 1217 920 1109L920-442L821-442L821 1280L639 1280Z"  horiz-adv-x="1106" vert-adv-y="2048"  />

      
      <glyph glyph-name="unidf" unicode="&#xdf;" d="M434 0L58 0L58 36Q113 43 135.50 73Q158 103 158 203L158 1001Q158 1142 206 1221Q254 1300 354 1343.50Q454 1387 573 1387Q782 1387 880.50 1303Q979 1219 979 1089Q979 969 910 903Q860 856 742 836Q845 815 903 770Q961 725 999 632Q1037 539 1037 429Q1037 293 995.50 192Q954 91 878 40.50Q802-10 712-10Q618-10 566 36Q514 82 514 145Q514 191 540.50 218Q567 245 611 245Q640 245 657 236Q674 227 690.50 204Q707 181 707 175L700 85Q700 80 715 68Q730 56 749 56Q768 56 785.50 76Q803 96 803 123Q803 147 767 254Q749 309 747 321Q742 353 742 411L742 554Q742 668 729.50 705.50Q717 743 683 765.50Q649 788 577 792L577 853Q635 853 661 875Q687 897 697 943Q701 967 701 1072Q701 1211 679 1255Q646 1319 567 1319Q526 1319 499 1300Q462 1274 448 1238Q434 1202 434 1080L434 0Z"  horiz-adv-x="1139" vert-adv-y="2048"  />

      
      <glyph glyph-name="uniae" unicode="&#xae;" d="M768 1387Q947 1387 1117 1295.50Q1287 1204 1382.50 1033.50Q1478 863 1478 678Q1478 494 1384 325Q1290 156 1121 62.50Q952-31 768-31Q584-31 415.50 62.50Q247 156 153 325Q59 494 59 678Q59 863 154.50 1033.50Q250 1204 420 1295.50Q590 1387 768 1387M768 1298Q612 1298 463.50 1218Q315 1138 231.50 988.50Q148 839 148 678Q148 517 230 369.50Q312 222 460 140Q608 58 768 58Q929 58 1076.50 140Q1224 222 1306 369.50Q1388 517 1388 678Q1388 839 1305 988.50Q1222 1138 1073.50 1218Q925 1298 768 1298M389 1090L751 1090Q934 1090 1005 1046Q1106 983 1106 871Q1106 800 1061.50 744.50Q1017 689 927 664L1064 414Q1094 360 1126 333Q1141 320 1169 315L1169 281L927 281L722 649L676 649L676 451Q676 366 698.50 342Q721 318 796 315L796 281L373 281L373 315Q435 315 453 336Q478 365 478 451L478 923Q478 1005 460.50 1027.50Q443 1050 389 1056L389 1090M676 700Q710 695 733 695Q798 695 844.50 744Q891 793 891 875Q891 959 847.50 1002.50Q804 1046 714 1046L676 1046L676 700Z"  horiz-adv-x="1530" vert-adv-y="2048"  />

      
      <glyph glyph-name="unia9" unicode="&#xa9;" d="M768 1387Q947 1387 1117 1295.50Q1287 1204 1382.50 1033.50Q1478 863 1478 678Q1478 494 1384 325Q1290 156 1121 62.50Q952-31 768-31Q584-31 415.50 62.50Q247 156 153 325Q59 494 59 678Q59 863 154.50 1033.50Q250 1204 420 1295.50Q590 1387 768 1387M768 1298Q612 1298 463.50 1218Q315 1138 231.50 988.50Q148 839 148 678Q148 517 230 369.50Q312 222 460 140Q608 58 768 58Q929 58 1076.50 140Q1224 222 1306 369.50Q1388 517 1388 678Q1388 839 1305 988.50Q1222 1138 1073.50 1218Q925 1298 768 1298M1103 1106L1103 842L1065 842Q1045 943 977.50 1000.50Q910 1058 819 1058Q709 1058 635 970.50Q561 883 561 694Q561 492 633.50 406Q706 320 814 320Q962 320 1075 458L1075 388Q954 261 757 261Q569 261 452.50 374.50Q336 488 336 668Q336 859 461 983Q586 1107 776 1107Q862 1107 973 1067Q1005 1055 1019 1055Q1037 1055 1049.50 1067Q1062 1079 1065 1106L1103 1106Z"  horiz-adv-x="1530" vert-adv-y="2048"  />

      
      <glyph glyph-name="uni2122" unicode="&#x2122;" d="M-3 1356L774 1356L774 1130L739 1130Q735 1218 690 1261Q645 1304 545 1304L507 1304L507 717Q507 632 525 611Q547 583 610 583L610 549L156 549L156 583Q215 587 229.50 595Q244 603 251.50 624Q259 645 259 720L259 1304L224 1304Q128 1304 82.50 1263Q37 1222 30 1130L-3 1130L-3 1356M884 1356L1252 1356L1483 861L1712 1356L2059 1356L2059 1318Q2011 1318 1993 1308Q1975 1298 1966.50 1278Q1958 1258 1958 1184L1958 712Q1958 636 1973 616Q1997 587 2059 583L2059 549L1598 549L1598 583Q1671 585 1691.50 607Q1712 629 1712 712L1712 1218L1392 549L1368 549L1050 1218L1050 716Q1050 648 1056 632Q1064 610 1087 597Q1110 584 1165 583L1165 549L884 549L884 583Q941 586 959 595.50Q977 605 985.50 626Q994 647 994 718L994 1186Q994 1257 984.50 1277.50Q975 1298 957 1308Q939 1318 884 1318L884 1356Z"  horiz-adv-x="2048" vert-adv-y="2048"  />

      
      <glyph glyph-name="unib4" unicode="&#xb4;" d="M645 1402L314 1055L228 1055L344 1402L645 1402Z"  horiz-adv-x="682" vert-adv-y="2048"  />

      
      <glyph glyph-name="unia8" unicode="&#xa8;" d="M529 1368Q585 1368 623.50 1329Q662 1290 662 1235Q662 1180 623 1141Q584 1102 529 1102Q474 1102 435 1141Q396 1180 396 1235Q396 1290 435 1329Q474 1368 529 1368M155 1368Q211 1368 249.50 1329Q288 1290 288 1235Q288 1180 249 1141Q210 1102 155 1102Q100 1102 61 1141Q22 1180 22 1235Q22 1290 61 1329Q100 1368 155 1368Z"  horiz-adv-x="682" vert-adv-y="2048"  />

      
      <glyph glyph-name="uni2260" unicode="&#x2260;" d="M15 863L615 863L823 1391L957 1391L752 863L1109 863L1109 706L691 706L568 391L1109 391L1109 235L507 235L299-292L164-292L371 235L15 235L15 391L432 391L555 706L15 706L15 863Z"  horiz-adv-x="1124" vert-adv-y="2048"  />

      
      <glyph glyph-name="unic6" unicode="&#xc6;" d="M1860 1356L1860 954L1821 954Q1795 1086 1744.50 1154.50Q1694 1223 1620 1250Q1546 1277 1380 1277L1274 1277L1274 728L1310 728Q1404 728 1465.50 794.50Q1527 861 1552 1046L1587 1046L1587 336L1552 336Q1538 455 1498 537Q1471 592 1421 624.50Q1371 657 1310 657L1274 657L1274 244Q1274 156 1279 137Q1287 106 1313.50 90Q1340 74 1424 74L1504 74Q1601 74 1690.50 119.50Q1780 165 1830 234Q1880 303 1918 427L1956 427L1894 0L704 0L704 37L780 37Q868 37 901 60.50Q934 84 944 123Q948 139 948 238L948 583L509 583L318 278Q273 207 266 187Q255 159 255 133Q255 95 290.50 67Q326 39 417 37L417 0L-23 0L-23 37Q31 43 76.50 76.50Q122 110 194 225L743 1099Q811 1207 811 1234Q811 1258 795.50 1279.50Q780 1301 752 1310Q724 1319 630 1319L630 1356L1860 1356M948 657L948 1277L554 657L948 657Z"  horiz-adv-x="2048" vert-adv-y="2048"  />

      
      <glyph glyph-name="unid8" unicode="&#xd8;" d="M1460 1371L1306 1193Q1519 985 1519 680Q1519 475 1422.50 308Q1326 141 1155 55Q984-31 807-31Q700-31 577.50 3Q455 37 359 102L202-77L147-28L303 151Q194 252 137.50 393Q81 534 81 682Q81 874 174.50 1040.50Q268 1207 437 1297Q606 1387 804 1387Q1063 1387 1249 1242L1403 1420L1460 1371M1101 1072Q1048 1199 988 1246Q908 1309 800 1309Q650 1309 557 1184Q442 1029 442 667Q442 508 476 350L1101 1072M504 268Q563 143 631 93Q699 43 801 43Q909 43 987.50 106.50Q1066 170 1118 334Q1157 456 1157 657Q1157 768 1150 842Q1145 895 1128 986L504 268Z"  horiz-adv-x="1593" vert-adv-y="2048"  />

      
      <glyph glyph-name="uni221E" unicode="&#x221E;" d="M653 667Q721 824 802 884Q883 944 1023 944Q1184 944 1295 828Q1406 712 1406 527Q1406 344 1298 225.50Q1190 107 1057 107Q958 107 873 180Q817 228 720 393Q656 269 580 214.50Q504 160 396 160Q252 160 152.50 263Q53 366 53 529Q53 694 145 795Q237 896 360 896Q446 896 512 851.50Q578 807 653 667M749 464Q824 308 897 254.50Q970 201 1061 201Q1184 201 1266.50 289.50Q1349 378 1349 527Q1349 674 1262 770Q1175 866 1067 866Q998 866 946.50 831Q895 796 853 719Q829 674 749 464M624 590Q575 700 512 752Q449 804 357 804Q251 804 179.50 729.50Q108 655 108 530Q108 397 178.50 317.50Q249 238 338 238Q433 238 506 323Q553 379 624 590Z"  horiz-adv-x="1460" vert-adv-y="2048"  />

      
      <glyph glyph-name="unib1" unicode="&#xb1;" d="M16 744L497 744L497 1224L628 1224L628 744L1109 744L1109 612L628 612L629 268L1109 268L1109 136L16 136L15 267L497 267L497 612L16 612L16 744Z"  horiz-adv-x="1124" vert-adv-y="2048"  />

      
      <glyph glyph-name="uni2264" unicode="&#x2264;" d="M1109 220L15 680L15 821L1109 1281L1109 1111L227 751L1109 391L1109 220M14-29L1110-29L1110-185L14-185L14-29Z"  horiz-adv-x="1124" vert-adv-y="2048"  />

      
      <glyph glyph-name="uni2265" unicode="&#x2265;" d="M15 1281L1109 821L1109 680L15 220L15 390L896 750L15 1110L15 1281M14-29L1110-29L1110-185L14-185L14-29Z"  horiz-adv-x="1124" vert-adv-y="2048"  />

      
      <glyph glyph-name="unia5" unicode="&#xa5;" d="M701 617L1022 617L1022 541L674 541L661 501L661 365L1022 365L1022 289L661 289L661 245Q661 154 669 127Q683 83 715 60Q747 37 823 37L859 37L859 0L149 0L149 37L183 37Q266 37 303.50 57Q341 77 354.50 109.50Q368 142 368 249L368 289L0 289L0 365L368 365L368 501L354 541L0 541L0 617L327 617L144 1126Q100 1247 64 1285Q42 1308 0 1312L0 1356L493 1356L493 1312Q432 1311 413 1297Q394 1283 394 1266Q394 1245 423 1165L622 617L786 1092Q825 1207 825 1254Q825 1283 808 1296.50Q791 1310 729 1312L729 1356L1022 1356L1022 1312Q976 1299 944.50 1264Q913 1229 873 1114L701 617Z"  horiz-adv-x="1024" vert-adv-y="2048"  />

      
      <glyph glyph-name="unib5" unicode="&#xb5;" d="M152 935L430 935L430 241Q431 162 452.50 135.50Q474 109 515 109Q605 109 680 230L680 935L957 935L957 310L958 257Q958 176 977.50 149.50Q997 123 1026 123Q1049 123 1067 147Q1094 183 1102 267L1145 267Q1141 126 1067.50 49Q994-28 887-28Q815-28 763.50 10Q712 48 687 129Q612 46 543 9Q474-28 396-28Q356-28 326-17.50Q296-7 247 28Q247-33 252.50-68.50Q258-104 282-189.50Q306-275 306-309Q306-371 273-406Q240-441 187-441Q137-441 108-410.50Q79-380 79-324Q79-280 103-186Q135-61 143.50 11.50Q152 84 152 259L152 935Z"  horiz-adv-x="1180" vert-adv-y="2048"  />

      
      <glyph glyph-name="uni2202" unicode="&#x2202;" d="M366 1150L324 1150Q376 1296 466.50 1365Q557 1434 672 1434Q824 1434 895 1332Q966 1230 966 1041Q966 681 860 420.50Q754 160 622 55Q525-23 390-23Q293-23 221 16.50Q149 56 111.50 133.50Q74 211 74 293Q74 423 135.50 545.50Q197 668 287 756.50Q377 845 472.50 889.50Q568 934 661 934Q825 934 897 784Q905 866 905 911Q905 1082 789 1176Q718 1234 592 1234Q511 1234 460.50 1214Q410 1194 366 1150M881 691Q847 794 791.50 838.50Q736 883 667 883Q597 883 531 822Q445 742 387.50 560Q330 378 330 212Q330 115 360 79.50Q390 44 449 44Q548 44 649 161Q815 356 881 691Z"  horiz-adv-x="1012" vert-adv-y="2048"  />

      
      <glyph glyph-name="uni2211" unicode="&#x2211;" d="M1356-442L43-442L43-405L712 496L43 1383L43 1420L1321 1420L1348 1083L1308 1083Q1292 1221 1230.50 1280Q1169 1339 1059 1339L319 1339L881 582L252-265L1070-265Q1140-265 1223-238Q1280-220 1317.50-171.50Q1355-123 1380-19L1420-27L1356-442Z"  horiz-adv-x="1460" vert-adv-y="2048"  />

      
      <glyph glyph-name="uni220F" unicode="&#x220F;" d="M1240 1342L445 1342L445-249Q445-332 482-368Q519-404 607-404L643-404L643-442L46-442L46-404L81-404Q169-404 206.50-368.50Q244-333 244-249L244 1228Q244 1311 207 1347Q170 1383 81 1383L46 1383L46 1420L1640 1420L1640 1383L1605 1383Q1517 1383 1480 1347Q1443 1311 1443 1228L1443-249Q1443-332 1480-368Q1517-404 1605-404L1640-404L1640-442L1043-442L1043-404L1078-404Q1166-404 1203-368.50Q1240-333 1240-249L1240 1342Z"  horiz-adv-x="1686" vert-adv-y="2048"  />

      
      <glyph glyph-name="uni222B" unicode="&#x222B;" d="M197 895L215 1476Q223 1630 265 1731Q292 1798 339 1830.50Q386 1863 432 1863Q482 1863 519.50 1829.50Q557 1796 557 1756Q557 1709 530.50 1680.50Q504 1652 465 1652Q430 1652 389 1688Q366 1708 349 1708Q332 1708 320.50 1693.50Q309 1679 309 1644Q309 1603 318 1499Q355 1088 355 836Q355 766 339 246Q331-49 249-153Q195-220 115-220Q63-220 30-186Q-3-152-3-99Q-3-54 22.50-27Q48 0 87 0Q127 0 156-32Q185-64 205-64Q222-64 233-50Q244-36 244-3Q244 39 235 117Q218 260 209 455Q197 704 197 895Z"  horiz-adv-x="561" vert-adv-y="2048"  />

      
      <glyph glyph-name="uniaa" unicode="&#xaa;" d="M366 889Q256 798 168 798Q113 798 79.50 830.50Q46 863 46 911Q46 963 89 1008Q145 1067 366 1161L366 1217Q366 1280 359 1296.50Q352 1313 331.50 1326Q311 1339 282 1339Q241 1339 213 1320Q197 1310 197 1296Q197 1284 216 1265Q240 1239 240 1216Q240 1186 217 1165Q194 1144 155 1144Q112 1144 85.50 1167.50Q59 1191 59 1222Q59 1278 118 1322Q200 1384 327 1384Q410 1384 464 1355.50Q518 1327 533 1291.50Q548 1256 548 1161L548 943Q548 904 551 894.50Q554 885 560.50 880Q567 875 576 875Q593 875 610 897L630 883Q567 798 483 798Q430 798 401.50 820.50Q373 843 366 889M366 933L366 1120Q287 1078 249 1028Q224 997 224 966Q224 938 242.50 918.50Q261 899 290 899Q324 899 366 933Z"  horiz-adv-x="614" vert-adv-y="2048"  />

      
      <glyph glyph-name="uniba" unicode="&#xba;" d="M339 1384Q464 1384 545 1301.50Q626 1219 626 1087Q626 953 546.50 871Q467 789 342 789Q216 789 136 871.50Q56 954 56 1084Q56 1216 136.50 1300Q217 1384 339 1384M343 1341Q312 1341 289.50 1323Q267 1305 260 1268Q246 1208 246 1033Q246 908 272.50 869Q299 830 340 830Q370 830 392 849Q414 868 422 902Q435 960 435 1129Q435 1266 410 1303.50Q385 1341 343 1341Z"  horiz-adv-x="676" vert-adv-y="2048"  />

      
      <glyph glyph-name="uni2126" unicode="&#x2126;" d="M714 205L715 0L85 0L9 360L134 360Q155 267 170 249Q201 211 288 211L363 211Q441 211 529 199L516 225Q406 242 337 278Q268 314 214 380Q160 446 123 560.50Q86 675 86 807Q86 1023 176.50 1188.50Q267 1354 427 1436Q587 1518 777 1518Q1004 1518 1168.50 1426.50Q1333 1335 1412.50 1168.50Q1492 1002 1492 814Q1492 679 1453.50 558Q1415 437 1348 361Q1298 304 1234.50 273Q1171 242 1062 225L1050 199Q1144 211 1215 211L1291 211Q1367 211 1395 235Q1423 259 1444 360L1569 360L1493 0L864 0L864 205Q948 239 989 275Q1030 311 1065.50 380Q1101 449 1127.50 575Q1154 701 1154 849Q1154 1171 1047.50 1309.50Q941 1448 794 1448Q639 1448 544 1326Q425 1173 425 859Q425 667 464.50 518Q504 369 565 299Q611 247 714 205Z"  horiz-adv-x="1573" vert-adv-y="2048"  />

      
      <glyph glyph-name="unie6" unicode="&#xe6;" d="M1420 499L880 499Q901 295 978.50 208Q1056 121 1152 121Q1293 121 1387 274L1420 251Q1331 91 1239.50 31.50Q1148-28 1006-28Q899-28 815 21Q752 57 697 133Q592 53 493.50 12.50Q395-28 304-28Q206-28 148 26Q90 80 90 152Q90 241 172.50 333.50Q255 426 612 587L612 664Q612 763 598.50 799Q585 835 544 859.50Q503 884 450 884Q391 884 350 853Q320 830 320 805Q320 798 324 791Q328 784 353 758Q389 721 389 675Q389 630 355 600Q308 559 250 559Q194 559 153 599Q112 639 112 693Q112 804 240 883.50Q368 963 513 963Q614 963 696 925Q745 902 793 848Q851 909 908.50 936Q966 963 1046 963Q1207 963 1308.50 851Q1410 739 1420 499M1175 565Q1176 598 1176 614Q1176 772 1125 845Q1091 894 1035 894Q1001 894 975 874Q932 839 909 773Q878 685 877 565L1175 565M612 525Q460 424 413 370Q366 316 366 245Q366 197 403.50 161.50Q441 126 492 126Q526 126 570.50 141Q615 156 670 186Q639 251 625.50 322Q612 393 612 525Z"  horiz-adv-x="1479" vert-adv-y="2048"  />

      
      <glyph glyph-name="unif8" unicode="&#xf8;" d="M957 945L844 814Q909 725 930 663Q957 582 957 474Q957 330 903.50 211.50Q850 93 747 32.50Q644-28 524-28Q436-28 368.50-0.50Q301 27 222 95L115-28L68 16L179 146Q128 227 109 289Q85 370 85 464Q85 664 200 813.50Q315 963 524 963Q607 963 669 939.50Q731 916 798 861L909 989L957 945M658 700Q648 809 613 850.50Q578 892 531 892Q489 892 466 877Q434 855 413.50 807.50Q393 760 386 632Q385 598 383 374L658 700M383 279Q388 143 427 93Q466 43 519 43Q564 43 589 63Q624 91 642 152Q666 233 666 404Q666 414 663 605L383 279Z"  horiz-adv-x="1024" vert-adv-y="2048"  />

      
      <glyph glyph-name="unibf" unicode="&#xbf;" d="M549 972Q616 972 663 925Q710 878 710 811Q710 744 662.50 697Q615 650 549 650Q482 650 434.50 697Q387 744 387 811Q387 878 434 925Q481 972 549 972M538 503L579 503Q581 393 568 338Q555 283 503 186.50Q451 90 434.50 31.50Q418-27 418-113Q418-246 470-309Q522-372 593-372Q647-372 684-343Q712-321 712-297Q712-281 693-247Q650-170 650-115Q650-66 683.50-33Q717 0 767 0Q822 0 860.50-39.50Q899-79 899-144Q899-263 797-352.50Q695-442 512-442Q318-442 216.50-349Q115-256 115-125Q115-30 166.50 50Q218 130 368 229Q468 295 499 346.50Q530 398 538 503Z"  horiz-adv-x="1024" vert-adv-y="2048"  />

      
      <glyph glyph-name="unia1" unicode="&#xa1;" d="M340 973Q408 973 455 925.50Q502 878 502 810Q502 743 454.50 695.50Q407 648 340 648Q273 648 225.50 695.50Q178 743 178 810Q178 878 225.50 925.50Q273 973 340 973M319 505L364 505Q370 391 409 229L461 11Q508-185 508-270Q508-347 462-394.50Q416-442 342-442Q270-442 222.50-394Q175-346 175-273Q175-198 225 11L278 229Q306 345 319 505Z"  horiz-adv-x="682" vert-adv-y="2048"  />

      
      <glyph glyph-name="uniac" unicode="&#xac;" d="M41 902L1135 902L1135 447L1006 447L1006 776L41 774L41 902Z"  horiz-adv-x="1167" vert-adv-y="2048"  />

      
      <glyph glyph-name="uni221A" unicode="&#x221A;" d="M1053 1869L1127 1869L815-78L319 943L121 852L87 916L388 1067L793 244L1053 1869Z"  horiz-adv-x="1124" vert-adv-y="2048"  />

      
      <glyph glyph-name="uni0192" unicode="&#x0192;" d="M711 784L610 284Q541-54 488-175Q435-296 343.50-369Q252-442 155-442Q81-442 40-406.50Q-1-371-1-326Q-1-287 29-257Q59-227 102-227Q144-227 173-252Q195-271 195-305Q195-318 191-329Q182-353 182-359Q182-367 190-374Q198-381 211-381Q239-381 263.50-350Q288-319 288-258Q288-232 282-156Q279-112 279-74Q279 4 285.50 59Q292 114 319 248L428 784L286 784L311 906Q409 906 459 946Q509 986 562.50 1130Q616 1274 689 1331Q761 1388 864 1388Q942 1388 983.50 1351.50Q1025 1315 1025 1260Q1025 1210 994 1178Q963 1146 917 1146Q879 1146 854 1171Q829 1196 829 1229Q829 1250 856 1304Q861 1314 861 1320Q861 1328 853 1334.50Q845 1341 834 1341Q797 1341 768 1305.50Q739 1270 739 1202Q739 1163 743.50 1109.50Q748 1056 748 1030Q748 984 734 906L888 906L864 784L711 784Z"  horiz-adv-x="1024" vert-adv-y="2048"  />

      
      <glyph glyph-name="uni2248" unicode="&#x2248;" d="M1049 1096L1112 1096Q1110 933 1029.50 843Q949 753 832 753Q776 753 714.50 770.50Q653 788 455 872Q313 932 248 932Q182 932 138.50 891.50Q95 851 77 754L13 754Q21 921 93 1009Q165 1097 285 1097Q342 1097 395 1083Q495 1055 668 979Q764 938 812 925Q842 917 877 917Q945 917 992 963Q1039 1009 1049 1096M1049 587L1112 587Q1110 424 1029.50 334Q949 244 833 244Q777 244 715 261.50Q653 279 455 362Q314 422 248 422Q182 422 138 381.50Q94 341 77 245L13 245Q21 411 93 499.50Q165 588 284 588Q342 588 394 573Q494 546 668 470Q765 428 812 415Q842 407 877 407Q945 407 992 453Q1039 499 1049 587Z"  horiz-adv-x="1124" vert-adv-y="2048"  />

      
      <glyph glyph-name="uni2206" unicode="&#x2206;" d="M1229 0L29 0L657 1387L1229 0M993 82L594 1049L154 82L993 82Z"  horiz-adv-x="1253" vert-adv-y="2048"  />

      
      <glyph glyph-name="uniab" unicode="&#xab;" d="M910 8L491 469L915 927L987 927L752 469L987 8L910 8M459 8L36 469L459 927L538 927L299 474L538 8L459 8Z"  horiz-adv-x="1024" vert-adv-y="2048"  />

      
      <glyph glyph-name="unibb" unicode="&#xbb;" d="M115 927L533 466L110 8L38 8L272 466L38 927L115 927M566 927L989 466L566 8L487 8L725 461L487 927L566 927Z"  horiz-adv-x="1024" vert-adv-y="2048"  />

      
      <glyph glyph-name="uni2026" unicode="&#x2026;" d="M341 308Q411 308 459.50 259Q508 210 508 141Q508 72 459 23.50Q410-25 341-25Q272-25 223.50 23.50Q175 72 175 141Q175 210 223.50 259Q272 308 341 308M1024 307Q1093 307 1141.50 258.50Q1190 210 1190 141Q1190 72 1141.50 23.50Q1093-25 1024-25Q955-25 906.50 23.50Q858 72 858 141Q858 210 906.50 258.50Q955 307 1024 307M1707 305Q1777 305 1825 256.50Q1873 208 1873 139Q1873 70 1824.50 21.50Q1776-27 1707-27Q1638-27 1589.50 21.50Q1541 70 1541 139Q1541 208 1589.50 256.50Q1638 305 1707 305Z"  horiz-adv-x="2048" vert-adv-y="2048"  />

      
      <glyph glyph-name="unic0" unicode="&#xc0;" d="M852 386L373 386L316 254Q288 188 288 145Q288 88 334 61Q361 45 467 37L467 0L16 0L16 37Q89 48 136 97.50Q183 147 252 302L737 1384L756 1384L1245 272Q1315 114 1360 73Q1394 42 1456 37L1456 0L800 0L800 37L827 37Q906 37 938 59Q960 75 960 105Q960 123 954 142Q952 151 924 217L852 386M818 460L616 927L408 460L818 460M432 1819L733 1819L849 1472L764 1472L432 1819Z"  horiz-adv-x="1479" vert-adv-y="2048"  />

      
      <glyph glyph-name="unic3" unicode="&#xc3;" d="M852 386L373 386L316 254Q288 188 288 145Q288 88 334 61Q361 45 467 37L467 0L16 0L16 37Q89 48 136 97.50Q183 147 252 302L737 1384L756 1384L1245 272Q1315 114 1360 73Q1394 42 1456 37L1456 0L800 0L800 37L827 37Q906 37 938 59Q960 75 960 105Q960 123 954 142Q952 151 924 217L852 386M818 460L616 927L408 460L818 460M1003 1752L1056 1752Q1057 1732 1057 1718Q1057 1608 995 1541Q933 1474 845 1474Q780 1474 681.50 1521Q583 1568 550 1568Q520 1568 500 1548Q480 1528 472 1476L414 1476Q410 1606 473.50 1680Q537 1754 630 1754Q660 1754 680 1748Q708 1740 776 1708Q879 1661 923 1661Q945 1661 965 1679Q985 1697 1003 1752Z"  horiz-adv-x="1479" vert-adv-y="2048"  />

      
      <glyph glyph-name="unid5" unicode="&#xd5;" d="M791 1375Q1115 1387 1317.50 1186Q1520 985 1520 683Q1520 425 1369 229Q1169-31 804-31Q438-31 238 217Q80 413 80 682Q80 984 285.50 1185.50Q491 1387 791 1375M803 1311Q617 1311 520 1121Q441 965 441 673Q441 326 563 160Q648 44 801 44Q904 44 973 94Q1061 158 1110 298.50Q1159 439 1159 665Q1159 934 1109 1067.50Q1059 1201 981.50 1256Q904 1311 803 1311M1065 1754L1118 1754Q1119 1734 1119 1720Q1119 1610 1057 1543Q995 1476 907 1476Q842 1476 743.50 1523Q645 1570 612 1570Q582 1570 562 1550Q542 1530 534 1478L476 1478Q472 1608 535.50 1682Q599 1756 692 1756Q722 1756 742 1750Q770 1742 838 1710Q941 1663 985 1663Q1007 1663 1027 1681Q1047 1699 1065 1754Z"  horiz-adv-x="1593" vert-adv-y="2048"  />

      
      <glyph glyph-name="uni0152" unicode="&#x0152;" d="M1852 1356L1852 952L1812 952Q1793 1070 1744 1141Q1695 1212 1620 1243.50Q1545 1275 1444 1275L1283 1275L1283 724L1315 724Q1361 724 1409 749Q1447 768 1472.50 801.50Q1498 835 1518.50 896Q1539 957 1546 1044L1584 1044L1584 335L1546 335Q1515 522 1455.50 585.50Q1396 649 1315 649L1283 649L1283 306Q1283 155 1291.50 128.50Q1300 102 1319 91Q1346 75 1418 75L1479 75Q1643 75 1756.50 166Q1870 257 1912 429L1950 429L1888 0L1135 0Q1105 0 1030-6Q893-18 767-18Q573-18 435 54Q258 147 166 317.50Q74 488 74 678Q74 942 234 1140Q424 1375 740 1375Q861 1375 989 1361Q1042 1356 1125 1356L1852 1356M957 1027Q957 1135 952 1164Q941 1219 904 1249Q853 1291 775 1291Q632 1291 546 1170Q434 1014 434 633Q434 319 543 175Q629 61 769 61Q872 61 914.50 108.50Q957 156 957 301L957 1027Z"  horiz-adv-x="2048" vert-adv-y="2048"  />

      
      <glyph glyph-name="uni0153" unicode="&#x0153;" d="M1422 495L930 495Q948 294 1021 207Q1094 120 1178 120Q1237 120 1287.50 155.50Q1338 191 1390 275L1422 252Q1342 97 1253.50 34.50Q1165-28 1050-28Q971-28 915-1Q859 26 795 95Q722 24 663-2Q604-28 518-28Q286-28 163 144Q70 273 70 459Q70 599 126.50 716Q183 833 290 898Q397 963 518 963Q609 963 676.50 929.50Q744 896 808 824Q867 896 928.50 929.50Q990 963 1069 963Q1214 963 1317.50 843Q1421 723 1422 495M520 893Q475 893 446 869Q407 836 385 752Q363 668 363 435Q363 239 383.50 166Q404 93 440 64Q466 43 511 43Q563 43 595 69.50Q627 96 646.50 176.50Q666 257 666 512Q666 704 646.50 772Q627 840 590 870Q562 893 520 893M1177 564Q1178 620 1178 640Q1178 788 1142 840Q1106 892 1061 892Q1031 892 1004 870Q968 841 952 786Q926 703 926 564L1177 564Z"  horiz-adv-x="1479" vert-adv-y="2048"  />

      
      <glyph glyph-name="uni2013" unicode="&#x2013;" d="M1040 413L-17 413L-17 534L1040 534L1040 413Z"  horiz-adv-x="1024" vert-adv-y="2048"  />

      
      <glyph glyph-name="uni2014" unicode="&#x2014;" d="M2067 412L-20 412L-20 534L2067 534L2067 412Z"  horiz-adv-x="2048" vert-adv-y="2048"  />

      
      <glyph glyph-name="uni201C" unicode="&#x201C;" d="M907 1387L907 1338Q803 1300 744 1218.50Q685 1137 685 1049Q685 1030 691 1021Q695 1015 700 1015Q705 1015 715 1022Q747 1045 796 1045Q853 1045 897 998.50Q941 952 941 888Q941 821 890.50 770Q840 719 768 719Q684 719 623 788Q562 857 562 973Q562 1108 645 1215Q728 1322 907 1387M426 1387L426 1338Q322 1300 263 1218.50Q204 1137 204 1049Q204 1030 210 1021Q214 1015 219 1015Q224 1015 234 1022Q266 1045 315 1045Q372 1045 416 998.50Q460 952 460 888Q460 821 409.50 770Q359 719 287 719Q203 719 142 788Q81 857 81 973Q81 1108 164 1215Q247 1322 426 1387Z"  horiz-adv-x="1024" vert-adv-y="2048"  />

      
      <glyph glyph-name="uni201D" unicode="&#x201D;" d="M117 719L117 769Q220 807 279 888.50Q338 970 338 1058Q338 1077 332 1086Q329 1092 324 1092Q319 1092 308 1084Q276 1061 228 1061Q170 1061 126.50 1107.50Q83 1154 83 1218Q83 1286 133 1336.50Q183 1387 256 1387Q339 1387 400.50 1318.50Q462 1250 462 1134Q462 999 379 892Q296 785 117 719M598 719L598 769Q701 807 760 888.50Q819 970 819 1058Q819 1077 813 1086Q810 1092 805 1092Q800 1092 789 1084Q757 1061 709 1061Q651 1061 607.50 1107.50Q564 1154 564 1218Q564 1286 614 1336.50Q664 1387 737 1387Q820 1387 881.50 1318.50Q943 1250 943 1134Q943 999 860 892Q777 785 598 719Z"  horiz-adv-x="1024" vert-adv-y="2048"  />

      
      <glyph glyph-name="uni2018" unicode="&#x2018;" d="M495 1387L495 1343Q379 1293 326.50 1213.50Q274 1134 274 1051Q274 1034 281 1026Q288 1017 295 1017Q301 1017 313 1024Q342 1041 385 1041Q444 1041 487.50 995Q531 949 531 887Q531 821 481 771Q431 721 360 721Q274 721 213 787.50Q152 854 152 970Q152 1113 238.50 1224Q325 1335 495 1387Z"  horiz-adv-x="682" vert-adv-y="2048"  />

      
      <glyph glyph-name="uni2019" unicode="&#x2019;" d="M188 721L188 765Q304 815 356.50 894.50Q409 974 409 1058Q409 1074 402 1083Q395 1091 388 1091Q382 1091 370 1084Q341 1067 298 1067Q239 1067 195.50 1113Q152 1159 152 1221Q152 1287 202 1337Q252 1387 323 1387Q409 1387 470 1320.50Q531 1254 531 1138Q531 995 444.50 884Q358 773 188 721Z"  horiz-adv-x="682" vert-adv-y="2048"  />

      
      <glyph glyph-name="unif7" unicode="&#xf7;" d="M564 1116Q607 1116 637 1086Q667 1056 667 1014Q667 972 637 942Q607 912 564 912Q522 912 492 942Q462 972 462 1014Q462 1056 492 1086Q522 1116 564 1116M16 744L1109 744L1109 612L16 612L16 744M563 454Q606 454 636 423.50Q666 393 666 351Q666 308 636 278Q606 248 563 248Q521 248 490.50 278Q460 308 460 351Q460 393 490 423.50Q520 454 563 454Z"  horiz-adv-x="1124" vert-adv-y="2048"  />

      
      <glyph glyph-name="uni25CA" unicode="&#x25CA;" d="M549 1422L967 709L549 0L438 0L47 709L438 1422L549 1422M495 1325L155 709L495 94L854 709L495 1325Z"  horiz-adv-x="1012" vert-adv-y="2048"  />

      
      <glyph glyph-name="uniff" unicode="&#xff;" d="M498-38L196 655Q128 812 95.50 848Q63 884 17 898L17 935L514 935L514 898Q465 896 445 879Q425 862 425 838Q425 800 475 688L635 322L744 605Q803 756 803 815Q803 852 778.50 874Q754 896 692 898L692 935L1005 935L1005 898Q959 893 930 862.50Q901 832 833 655L566-38Q465-298 416-358Q347-442 243-442Q160-442 108.50-394.50Q57-347 57-280Q57-222 92.50-184Q128-146 180-146Q230-146 260.50-178Q291-210 292-277Q293-315 301-326Q309-337 324-337Q348-337 375-308Q415-266 469-116L498-38M726 1369Q782 1369 820.50 1330Q859 1291 859 1236Q859 1181 820 1142Q781 1103 726 1103Q671 1103 632 1142Q593 1181 593 1236Q593 1291 632 1330Q671 1369 726 1369M352 1369Q408 1369 446.50 1330Q485 1291 485 1236Q485 1181 446 1142Q407 1103 352 1103Q297 1103 258 1142Q219 1181 219 1236Q219 1291 258 1330Q297 1369 352 1369Z"  horiz-adv-x="1024" vert-adv-y="2048"  />

      
      </font>
</defs>
</svg>
