<svg width="24" height="24" viewBox="0 0 24 24" fill="none" xmlns="http://www.w3.org/2000/svg">
<g id="filter">
<path id="shape" d="M17 13C19.2091 13 21 14.7909 21 17C21 19.2091 19.2091 21 17 21C15.1364 21 13.5705 19.7256 13.1262 18.0008L3 18V16L13.126 16.0002C13.5699 14.2749 15.1361 13 17 13ZM17 15C15.8954 15 15 15.8954 15 17C15 18.1046 15.8954 19 17 19C18.1046 19 19 18.1046 19 17C19 15.8954 18.1046 15 17 15ZM7 3C8.86393 3 10.4301 4.27489 10.874 6.00024L21 6V8L10.8738 8.00076C10.4295 9.7256 8.86357 11 7 11C4.79086 11 3 9.20914 3 7C3 4.79086 4.79086 3 7 3ZM7 5C5.89543 5 5 5.89543 5 7C5 8.10457 5.89543 9 7 9C8.10457 9 9 8.10457 9 7C9 5.89543 8.10457 5 7 5Z" fill="#660066"/>
</g>
</svg>
