<svg width="213" height="44" viewBox="0 0 213 44" fill="none" xmlns="http://www.w3.org/2000/svg">
<g id="&#208;&#187;&#208;&#190;&#208;&#179;&#208;&#190;&#209;&#130;&#208;&#184;&#208;&#191; &#209;&#129;&#208;&#178;&#208;&#179; 1">
<path id="Vector" d="M5.5 1.51562H27.3945V2.23829C25.7669 2.29037 24.7318 2.53125 24.2891 2.96094C23.8464 3.39062 23.625 4.3151 23.625 5.73438V23.4297C23.625 24.5495 23.7096 25.3307 23.8789 25.7734C24.0482 26.2161 24.4193 26.5807 24.9922 26.8672C25.5781 27.1406 26.3789 27.2773 27.3945 27.2773V35.7344H26.6719C26.5156 33.4427 25.6823 31.5807 24.1719 30.1484C22.6615 28.7161 20.5911 28 17.9609 28H10.7539C8.03255 28 5.84505 28.6641 4.19141 29.9922C2.55078 31.3333 1.60026 33.2474 1.33984 35.7344H0.617188V27.2773C3.83333 26.6393 6.13151 24.4714 7.51172 20.7734C8.90495 17.0625 9.60156 12.1016 9.60156 5.89062C9.60156 4.39323 9.34115 3.41667 8.82031 2.96094C8.3125 2.49219 7.20573 2.25131 5.5 2.23829V1.51562ZM17.9609 3.23439H11.3008V5.5C11.3008 8.67708 11.0859 11.776 10.6562 14.7969C10.2266 17.8177 9.64062 20.194 8.89844 21.9258C8.15625 23.6445 7.16667 25.0964 5.92969 26.2812H15.3633C16.6393 26.2812 17.388 26.1966 17.6094 26.0273C17.8438 25.8451 17.9609 25.2721 17.9609 24.3086V3.23439ZM29.582 9.73829H39.6602C41.7695 9.73829 43.4948 10.1224 44.8359 10.8906C46.1771 11.6458 46.8477 12.7721 46.8477 14.2695C46.8477 16.2878 45.4544 17.6484 42.668 18.3516C46.431 18.7943 48.3125 20.3698 48.3125 23.0781C48.3125 24.7188 47.5508 25.9492 46.0273 26.7695C44.5039 27.5898 42.4141 28 39.7578 28H29.582V27.2773C30.4805 27.1862 31.0339 26.9779 31.2422 26.6523C31.4635 26.3268 31.5742 25.6888 31.5742 24.7383V13.8594C31.5742 12.388 31.4505 11.4701 31.2031 11.1055C30.9688 10.7409 30.4284 10.526 29.582 10.4609V9.73829ZM37.3164 17.8828C40.4154 17.7917 41.9648 16.6393 41.9648 14.4258C41.9648 12.1602 40.4154 11.0078 37.3164 10.9688V17.8828ZM37.3164 19.1133V25.1094C37.3164 25.7214 37.4141 26.1576 37.6094 26.418C37.8047 26.6654 38.2279 26.7891 38.8789 26.7891C39.9727 26.7891 40.9036 26.4049 41.6719 25.6367C42.4401 24.8685 42.8242 23.8919 42.8242 22.707C42.8242 21.457 42.3945 20.5456 41.5352 19.9727C40.6888 19.3997 39.2826 19.1133 37.3164 19.1133ZM66.5742 18.2148H56.5547C56.6719 20.6367 57.3164 22.5508 58.4883 23.957C59.3867 25.0378 60.4674 25.5781 61.7305 25.5781C62.5117 25.5781 63.2214 25.3633 63.8594 24.9336C64.4974 24.4909 65.181 23.7031 65.9102 22.5703L66.5742 23C65.5846 25.0182 64.4909 26.4505 63.293 27.2969C62.0951 28.1302 60.7083 28.5469 59.1328 28.5469C56.4245 28.5469 54.3737 27.5052 52.9805 25.4219C51.8607 23.7422 51.3008 21.6589 51.3008 19.1719C51.3008 16.125 52.1211 13.7031 53.7617 11.9062C55.4154 10.0964 57.349 9.19141 59.5625 9.19141C61.4115 9.19141 63.013 9.95312 64.3672 11.4766C65.7344 12.987 66.4701 15.2331 66.5742 18.2148ZM61.7695 16.9062C61.7695 14.8099 61.6523 13.3711 61.418 12.5898C61.1966 11.8086 60.8451 11.2161 60.3633 10.8125C60.0898 10.5781 59.7253 10.4609 59.2695 10.4609C58.5924 10.4609 58.0391 10.793 57.6094 11.457C56.8411 12.6159 56.457 14.2044 56.457 16.2227V16.9062H61.7695ZM75.9492 26.1445V32.9414C75.9492 33.8789 76.0208 34.5169 76.1641 34.8555C76.3203 35.194 76.5547 35.4414 76.8672 35.5977C77.1797 35.7539 77.7917 35.832 78.7031 35.832V36.5547H68.293V35.832C69.1003 35.806 69.6992 35.5781 70.0898 35.1484C70.3503 34.849 70.4805 34.0742 70.4805 32.8242V13.5469C70.4805 12.2578 70.3307 11.4375 70.0312 11.0859C69.7318 10.7214 69.1523 10.513 68.293 10.4609V9.73829H75.9492V12.1406C76.5872 11.2031 77.2383 10.526 77.9023 10.1094C78.8529 9.4974 79.888 9.19141 81.0078 9.19141C82.349 9.19141 83.5664 9.61458 84.6602 10.4609C85.7669 11.3073 86.6068 12.4792 87.1797 13.9766C87.7526 15.4609 88.0391 17.0625 88.0391 18.7812C88.0391 20.6302 87.7396 22.3229 87.1406 23.8594C86.5547 25.3828 85.6953 26.5482 84.5625 27.3555C83.4427 28.1497 82.1927 28.5469 80.8125 28.5469C79.8099 28.5469 78.8724 28.3255 78 27.8828C77.349 27.5443 76.6654 26.9648 75.9492 26.1445ZM75.9492 24.1719C77.069 25.7604 78.2669 26.5547 79.543 26.5547C80.2461 26.5547 80.8255 26.1836 81.2812 25.4414C81.9583 24.3477 82.2969 22.2643 82.2969 19.1914C82.2969 16.0404 81.9258 13.8854 81.1836 12.7266C80.6888 11.9583 80.0247 11.5742 79.1914 11.5742C77.8763 11.5742 76.7956 12.5247 75.9492 14.4258V24.1719ZM102.16 28V27.2773C103.332 27.2773 103.918 26.4049 103.918 24.6602V15.7148L98.6836 24.6602C98.6966 26.3659 99.2891 27.2383 100.461 27.2773V28H91.1641V27.2773C91.9062 27.2773 92.4336 27.069 92.7461 26.6523C93.0586 26.2357 93.2148 25.5065 93.2148 24.4648V13.1953C93.2148 11.3724 92.5312 10.4609 91.1641 10.4609V9.73829H100.461V10.4609C99.7839 10.487 99.3151 10.6823 99.0547 11.0469C98.8073 11.4115 98.6836 12.1276 98.6836 13.1953V22.1016L103.918 13.0391C103.905 12.0755 103.762 11.4049 103.488 11.0273C103.215 10.6497 102.772 10.4609 102.16 10.4609V9.73829H111.457V10.4609C110.754 10.474 110.233 10.6497 109.895 10.9883C109.556 11.3268 109.387 11.9779 109.387 12.9414V24.5625C109.387 25.6432 109.536 26.3659 109.836 26.7305C110.148 27.0951 110.689 27.2773 111.457 27.2773V28H102.16ZM125.207 20.832H113.82V16.7891H125.207V20.832ZM126.984 1.51562H140.773V2.23829H140.324C139.022 2.23829 138.15 2.47917 137.707 2.96094C137.277 3.42969 137.062 4.32812 137.062 5.65625V13.5664C138.885 13.5664 140.07 13.5078 140.617 13.3906C141.164 13.2604 141.672 12.9023 142.141 12.3164C142.609 11.7174 143.059 10.5716 143.488 8.87891C143.996 6.89974 144.484 5.41536 144.953 4.42578C145.435 3.4362 146.092 2.65496 146.926 2.08204C147.772 1.4961 148.827 1.20312 150.09 1.20312C151.34 1.20312 152.342 1.5612 153.098 2.27734C153.853 2.98047 154.23 3.85286 154.23 4.89453C154.23 5.70182 153.977 6.33984 153.469 6.80859C152.961 7.27734 152.329 7.51173 151.574 7.51173C150.09 7.51173 149.289 6.65234 149.172 4.93359C149.12 4.07422 148.82 3.64454 148.273 3.64454C147.688 3.64454 147.186 3.97657 146.77 4.64063C146.353 5.3047 145.904 6.49609 145.422 8.21484C144.953 9.89454 144.549 11.1576 144.211 12.0039C143.872 12.8372 143.391 13.5404 142.766 14.1133C143.599 14.3216 144.237 14.5951 144.68 14.9336C145.135 15.2721 145.546 15.7148 145.91 16.2617C146.275 16.7956 147.056 18.1628 148.254 20.3633L150.949 25.168C151.366 25.8841 151.861 26.418 152.434 26.7695C153.02 27.1081 153.723 27.2773 154.543 27.2773V28H145.676L140.227 17.8438C139.602 16.6979 139.139 16.0078 138.84 15.7734C138.553 15.526 137.961 15.3828 137.062 15.3438V24.3086C137.062 25.5846 137.323 26.3984 137.844 26.75C138.378 27.1016 139.354 27.2773 140.773 27.2773V28H126.984V27.2773C128.508 27.2513 129.504 27.0299 129.973 26.6133C130.454 26.1836 130.695 25.2721 130.695 23.8789V6.16407C130.695 4.61459 130.507 3.57293 130.129 3.03907C129.751 2.50522 128.892 2.23829 127.551 2.23829H126.984V1.51562ZM175.422 5.89062C175.409 4.45833 175.233 3.4948 174.895 3.00001C174.569 2.4922 173.742 2.23829 172.414 2.23829H171.535V1.51562H185.734V2.23829H184.816C183.592 2.23829 182.779 2.47267 182.375 2.94142C181.984 3.41017 181.789 4.4388 181.789 6.02734V23.4492C181.789 25.0768 181.991 26.125 182.395 26.5938C182.798 27.0495 183.605 27.2773 184.816 27.2773H185.734V28H171.535V27.2773H172.414C173.651 27.2773 174.458 27.0365 174.836 26.5547C175.227 26.0599 175.422 25.0247 175.422 23.4492V9.07422L166.086 23.7227C166.086 24.9857 166.242 25.8971 166.555 26.457C166.867 27.0039 167.714 27.2773 169.094 27.2773H170.012V28H155.812V27.2773H156.691C157.928 27.2773 158.742 27.0365 159.133 26.5547C159.523 26.0599 159.719 25.0247 159.719 23.4492V6.02734C159.719 4.4388 159.562 3.41017 159.25 2.94142C158.938 2.47267 158.085 2.23829 156.691 2.23829H155.812V1.51562H170.012V2.23829H169.094C167.896 2.23829 167.095 2.49871 166.691 3.01954C166.288 3.52735 166.086 4.52995 166.086 6.02734V20.5391L175.422 5.89062ZM211.555 1.51562V8.68359H210.852C210.435 7.02995 209.973 5.84506 209.465 5.12892C208.957 4.39974 208.26 3.82031 207.375 3.39062C206.88 3.15626 206.014 3.03907 204.777 3.03907H202.805V23.4688C202.805 24.8229 202.876 25.6693 203.02 26.0078C203.176 26.3464 203.469 26.6458 203.898 26.9062C204.341 27.1536 204.94 27.2773 205.695 27.2773H206.574V28H192.707V27.2773H193.586C194.354 27.2773 194.973 27.1406 195.441 26.8672C195.78 26.6849 196.047 26.3724 196.242 25.9297C196.385 25.6172 196.457 24.7969 196.457 23.4688V3.03907H194.543C192.759 3.03907 191.464 3.41667 190.656 4.17188C189.523 5.22656 188.807 6.73047 188.508 8.68359H187.766V1.51562H211.555Z" fill="white"/>
<path id="Vector_2" d="M131.971 41.8374V42H130.433C130.266 41.7334 129.915 41.231 129.378 40.4927C128.842 39.7515 128.516 39.3413 128.398 39.2622C128.281 39.1802 128.104 39.1377 127.867 39.1348V40.9146C127.867 41.3071 127.916 41.5562 128.016 41.6616C128.119 41.7671 128.356 41.8257 128.728 41.8374V42H126.162V41.8374C126.528 41.8257 126.762 41.7686 126.865 41.666C126.97 41.5605 127.023 41.3101 127.023 40.9146V37.1265C127.023 36.7339 126.972 36.4849 126.869 36.3794C126.767 36.2739 126.531 36.2153 126.162 36.2036V36.041H128.728V36.2036C128.356 36.2153 128.119 36.2739 128.016 36.3794C127.916 36.4849 127.867 36.7339 127.867 37.1265V38.7876C128.186 38.7847 128.407 38.7642 128.53 38.7261C128.653 38.6851 128.791 38.5942 128.943 38.4536C129.099 38.313 129.22 38.1621 129.308 38.001C129.399 37.8369 129.515 37.5688 129.655 37.1968C129.787 36.8481 129.894 36.6064 129.976 36.4717C130.061 36.334 130.196 36.2168 130.38 36.1201C130.565 36.0205 130.785 35.9707 131.04 35.9707C131.491 35.9707 131.716 36.1289 131.716 36.4453C131.716 36.5566 131.671 36.6533 131.58 36.7354C131.492 36.8174 131.391 36.8584 131.277 36.8584C131.195 36.8584 131.057 36.8115 130.864 36.7178C130.694 36.6328 130.575 36.5903 130.508 36.5903C130.414 36.5903 130.333 36.6401 130.266 36.7397C130.199 36.8364 130.092 37.0854 129.945 37.4868C129.664 38.2368 129.305 38.7129 128.869 38.915C129.135 38.9619 129.504 39.3267 129.976 40.0093C130.477 40.7329 130.845 41.2163 131.079 41.4595C131.313 41.7026 131.611 41.8286 131.971 41.8374ZM131.378 37.9746H133.254V38.1372H133.162C133.03 38.1372 132.931 38.1665 132.863 38.2251C132.799 38.2808 132.767 38.3511 132.767 38.436C132.767 38.5503 132.815 38.7085 132.912 38.9106L133.892 40.9409L134.792 38.7173C134.842 38.5972 134.867 38.4785 134.867 38.3613C134.867 38.3086 134.857 38.269 134.836 38.2427C134.813 38.2104 134.776 38.1855 134.727 38.168C134.677 38.1475 134.589 38.1372 134.463 38.1372V37.9746H135.772V38.1372C135.664 38.1489 135.581 38.1724 135.522 38.2075C135.463 38.2427 135.399 38.3086 135.329 38.4053C135.302 38.4463 135.252 38.5591 135.179 38.7437L133.54 42.7603C133.382 43.1499 133.174 43.4443 132.916 43.6436C132.661 43.8428 132.415 43.9424 132.178 43.9424C132.005 43.9424 131.863 43.8926 131.751 43.793C131.64 43.6934 131.584 43.5791 131.584 43.4502C131.584 43.3271 131.624 43.2275 131.703 43.1514C131.785 43.0781 131.896 43.0415 132.037 43.0415C132.134 43.0415 132.266 43.0737 132.433 43.1382C132.55 43.1821 132.623 43.2041 132.652 43.2041C132.74 43.2041 132.835 43.1587 132.938 43.0679C133.043 42.9771 133.149 42.8013 133.254 42.5405L133.54 41.8418L132.094 38.8052C132.05 38.7144 131.98 38.6016 131.883 38.4668C131.81 38.3643 131.75 38.2954 131.703 38.2603C131.636 38.2134 131.527 38.1724 131.378 38.1372V37.9746ZM139.103 38.2603H137.363V41.0552C137.363 41.3657 137.379 41.5518 137.412 41.6133C137.444 41.6719 137.494 41.7246 137.561 41.7715C137.631 41.8154 137.769 41.8374 137.974 41.8374V42H136.027V41.8374C136.288 41.8374 136.455 41.7905 136.528 41.6968C136.602 41.6001 136.638 41.3862 136.638 41.0552V38.9194C136.638 38.606 136.622 38.4214 136.59 38.3657C136.558 38.3071 136.508 38.2559 136.44 38.2119C136.373 38.165 136.235 38.1416 136.027 38.1416V37.9746H140.439V38.1416C140.243 38.1416 140.111 38.1621 140.044 38.2031C139.977 38.2412 139.924 38.2896 139.886 38.3481C139.848 38.4067 139.829 38.5972 139.829 38.9194V41.0552C139.829 41.3657 139.845 41.5518 139.877 41.6133C139.909 41.6719 139.959 41.7246 140.026 41.7715C140.097 41.8154 140.234 41.8374 140.439 41.8374V42H138.493V41.8374C138.736 41.8374 138.898 41.7935 138.98 41.7056C139.062 41.6147 139.103 41.3979 139.103 41.0552V38.2603ZM145.256 41.8374V43.1162H145.093C145.084 42.7734 144.972 42.501 144.755 42.2988C144.541 42.0996 144.151 42 143.586 42H140.844V41.8374C141.104 41.8374 141.271 41.7905 141.345 41.6968C141.418 41.6001 141.455 41.3862 141.455 41.0552V38.9194C141.455 38.606 141.438 38.4214 141.406 38.3657C141.374 38.3071 141.324 38.2559 141.257 38.2119C141.189 38.165 141.052 38.1416 140.844 38.1416V37.9746H142.791V38.1416C142.594 38.1416 142.462 38.1621 142.395 38.2031C142.328 38.2412 142.275 38.2896 142.237 38.3481C142.199 38.4067 142.18 38.5972 142.18 38.9194V41.1914C142.18 41.4463 142.202 41.5972 142.246 41.644C142.292 41.6909 142.439 41.7144 142.685 41.7144H143.397C143.669 41.7144 143.825 41.6895 143.863 41.6396C143.901 41.5898 143.92 41.4287 143.92 41.1562V38.9194C143.92 38.6411 143.905 38.4624 143.876 38.3833C143.847 38.3013 143.79 38.2412 143.705 38.2031C143.62 38.1621 143.488 38.1416 143.309 38.1416V37.9746H145.256V38.1416C145.06 38.1416 144.928 38.1621 144.86 38.2031C144.793 38.2412 144.74 38.2896 144.702 38.3481C144.664 38.4067 144.645 38.5972 144.645 38.9194V40.9893C144.645 41.3672 144.679 41.6001 144.746 41.688C144.813 41.7759 144.983 41.8257 145.256 41.8374ZM148.02 41.4199C147.607 41.7393 147.348 41.9238 147.242 41.9736C147.084 42.0469 146.916 42.0835 146.737 42.0835C146.458 42.0835 146.228 41.9883 146.047 41.7979C145.868 41.6074 145.779 41.3569 145.779 41.0464C145.779 40.8501 145.823 40.6802 145.911 40.5366C146.031 40.3374 146.239 40.1499 146.535 39.9741C146.833 39.7983 147.329 39.5845 148.02 39.3325V39.1743C148.02 38.7729 147.956 38.4976 147.827 38.3481C147.701 38.1987 147.516 38.124 147.273 38.124C147.088 38.124 146.942 38.1738 146.833 38.2734C146.722 38.373 146.666 38.4873 146.666 38.6162L146.675 38.8711C146.675 39.0059 146.64 39.1099 146.57 39.1831C146.502 39.2563 146.413 39.293 146.302 39.293C146.193 39.293 146.104 39.2549 146.034 39.1787C145.966 39.1025 145.933 38.9985 145.933 38.8667C145.933 38.6147 146.061 38.3833 146.319 38.1724C146.577 37.9614 146.939 37.856 147.405 37.856C147.762 37.856 148.055 37.916 148.284 38.0361C148.457 38.127 148.584 38.269 148.666 38.4624C148.719 38.5884 148.745 38.8462 148.745 39.2358V40.6025C148.745 40.9863 148.752 41.2222 148.767 41.3101C148.782 41.395 148.805 41.4521 148.837 41.4814C148.873 41.5107 148.912 41.5254 148.956 41.5254C149.003 41.5254 149.044 41.5151 149.079 41.4946C149.141 41.4565 149.259 41.3496 149.435 41.1738V41.4199C149.107 41.8594 148.793 42.0791 148.495 42.0791C148.351 42.0791 148.237 42.0293 148.152 41.9297C148.067 41.8301 148.023 41.6602 148.02 41.4199ZM148.02 41.1343V39.6006C147.578 39.7764 147.292 39.9009 147.163 39.9741C146.932 40.103 146.766 40.2378 146.666 40.3784C146.567 40.519 146.517 40.6729 146.517 40.8398C146.517 41.0508 146.58 41.2266 146.706 41.3672C146.832 41.5049 146.977 41.5737 147.141 41.5737C147.364 41.5737 147.657 41.4272 148.02 41.1343ZM150.23 37.9746H153.83V38.1416C153.63 38.1416 153.497 38.1621 153.43 38.2031C153.365 38.2412 153.314 38.2896 153.276 38.3481C153.238 38.4067 153.219 38.5972 153.219 38.9194V41.0552C153.219 41.3657 153.235 41.5518 153.267 41.6133C153.299 41.6719 153.349 41.7246 153.416 41.7715C153.487 41.8154 153.624 41.8374 153.83 41.8374V42H151.747V41.8374C151.972 41.8374 152.127 41.8257 152.212 41.8022C152.3 41.7788 152.369 41.7231 152.419 41.6353C152.469 41.5444 152.494 41.3511 152.494 41.0552V38.2603H151.153V39.9565C151.153 40.5981 151.124 41.0493 151.065 41.3101C151.01 41.5679 150.897 41.7598 150.727 41.8857C150.56 42.0088 150.368 42.0703 150.151 42.0703C149.776 42.0703 149.589 41.915 149.589 41.6045C149.589 41.499 149.618 41.4126 149.677 41.3452C149.738 41.2778 149.817 41.2441 149.914 41.2441C150.017 41.2441 150.112 41.2866 150.2 41.3716C150.314 41.4829 150.4 41.5386 150.459 41.5386C150.591 41.5386 150.686 41.4287 150.745 41.209C150.806 40.9863 150.837 40.5981 150.837 40.0444V39.1567C150.837 38.6997 150.803 38.4214 150.736 38.3218C150.671 38.2222 150.503 38.1621 150.23 38.1416V37.9746ZM156.277 37.856C156.887 37.856 157.376 38.0874 157.745 38.5503C158.059 38.9458 158.215 39.3999 158.215 39.9126C158.215 40.2729 158.129 40.6377 157.956 41.0068C157.783 41.376 157.544 41.6543 157.24 41.8418C156.938 42.0293 156.601 42.123 156.229 42.123C155.623 42.123 155.141 41.8813 154.783 41.3979C154.481 40.9907 154.331 40.5337 154.331 40.0269C154.331 39.6577 154.421 39.2915 154.603 38.9282C154.788 38.562 155.029 38.2925 155.328 38.1196C155.627 37.9438 155.943 37.856 156.277 37.856ZM156.141 38.1416C155.986 38.1416 155.829 38.1885 155.671 38.2822C155.516 38.373 155.39 38.5342 155.293 38.7656C155.196 38.9971 155.148 39.2944 155.148 39.6577C155.148 40.2437 155.264 40.749 155.495 41.1738C155.729 41.5986 156.037 41.811 156.418 41.811C156.702 41.811 156.937 41.6938 157.121 41.4595C157.306 41.2251 157.398 40.8223 157.398 40.251C157.398 39.5361 157.244 38.9736 156.937 38.5635C156.728 38.2822 156.463 38.1416 156.141 38.1416ZM161.362 39.873C162.097 40.0254 162.465 40.3696 162.465 40.9058C162.465 41.272 162.311 41.5459 162.003 41.7275C161.699 41.9092 161.272 42 160.725 42H158.738V41.8374C158.999 41.8374 159.163 41.7891 159.23 41.6924C159.301 41.5928 159.336 41.3804 159.336 41.0552V38.9194C159.336 38.603 159.32 38.417 159.288 38.3613C159.258 38.3057 159.21 38.2559 159.143 38.2119C159.078 38.165 158.943 38.1416 158.738 38.1416V37.9746H160.593C160.95 37.9746 161.239 38.0024 161.458 38.0581C161.681 38.1138 161.863 38.2236 162.003 38.3877C162.147 38.5518 162.219 38.751 162.219 38.9854C162.219 39.4424 161.933 39.7383 161.362 39.873ZM160.065 39.772C160.194 39.7749 160.272 39.7764 160.298 39.7764C160.7 39.7764 160.99 39.7002 161.168 39.5479C161.347 39.3926 161.437 39.2051 161.437 38.9854C161.437 38.7305 161.346 38.5459 161.164 38.4316C160.982 38.3174 160.692 38.2603 160.294 38.2603H160.065V39.772ZM160.065 41.644C160.212 41.6909 160.386 41.7144 160.588 41.7144C160.937 41.7144 161.196 41.6382 161.366 41.4858C161.536 41.3335 161.621 41.1372 161.621 40.897C161.621 40.6274 161.511 40.4209 161.291 40.2773C161.072 40.1338 160.767 40.062 160.377 40.062C160.281 40.062 160.177 40.0649 160.065 40.0708V41.644ZM169.663 37.0254C169.663 36.668 169.604 36.4424 169.487 36.3486C169.373 36.252 169.14 36.2036 168.789 36.2036V36.041H171.368V36.2036C170.999 36.2153 170.763 36.2739 170.661 36.3794C170.558 36.4849 170.507 36.7339 170.507 37.1265V40.9146C170.507 41.3071 170.558 41.5562 170.661 41.6616C170.763 41.7671 170.999 41.8257 171.368 41.8374V42H168.789V41.8374C169.166 41.8257 169.407 41.7671 169.509 41.6616C169.612 41.5532 169.663 41.3042 169.663 40.9146V37.4956L166.899 41.0376C166.902 41.2925 166.918 41.4639 166.947 41.5518C166.979 41.6367 167.051 41.7041 167.163 41.7539C167.277 41.8037 167.478 41.8315 167.765 41.8374V42H165.194V41.8374C165.563 41.8257 165.799 41.7671 165.901 41.6616C166.004 41.5562 166.055 41.3071 166.055 40.9146V37.1265C166.055 36.7339 166.004 36.4849 165.901 36.3794C165.799 36.2739 165.563 36.2153 165.194 36.2036V36.041H167.765V36.2036C167.393 36.2153 167.155 36.2739 167.053 36.3794C166.95 36.4849 166.899 36.7339 166.899 37.1265V40.5586L169.663 37.0254ZM178.993 36.041L179.059 37.4385H178.892C178.859 37.1924 178.815 37.0166 178.76 36.9111C178.669 36.7412 178.547 36.6167 178.395 36.5376C178.246 36.4556 178.048 36.4146 177.802 36.4146H176.962V40.9673C176.962 41.3335 177.002 41.562 177.081 41.6528C177.192 41.7759 177.364 41.8374 177.595 41.8374H177.802V42H175.275V41.8374H175.486C175.738 41.8374 175.916 41.7612 176.022 41.6089C176.086 41.5151 176.119 41.3013 176.119 40.9673V36.4146H175.402C175.124 36.4146 174.926 36.4351 174.809 36.4761C174.657 36.5317 174.526 36.6387 174.418 36.7969C174.31 36.9551 174.245 37.1689 174.225 37.4385H174.058L174.128 36.041H178.993ZM180.86 37.856C181.47 37.856 181.959 38.0874 182.328 38.5503C182.642 38.9458 182.798 39.3999 182.798 39.9126C182.798 40.2729 182.712 40.6377 182.539 41.0068C182.366 41.376 182.127 41.6543 181.823 41.8418C181.521 42.0293 181.184 42.123 180.812 42.123C180.206 42.123 179.724 41.8813 179.366 41.3979C179.064 40.9907 178.914 40.5337 178.914 40.0269C178.914 39.6577 179.004 39.2915 179.186 38.9282C179.371 38.562 179.612 38.2925 179.911 38.1196C180.21 37.9438 180.526 37.856 180.86 37.856ZM180.724 38.1416C180.569 38.1416 180.412 38.1885 180.254 38.2822C180.099 38.373 179.973 38.5342 179.876 38.7656C179.779 38.9971 179.731 39.2944 179.731 39.6577C179.731 40.2437 179.847 40.749 180.078 41.1738C180.312 41.5986 180.62 41.811 181.001 41.811C181.285 41.811 181.52 41.6938 181.704 41.4595C181.889 41.2251 181.981 40.8223 181.981 40.251C181.981 39.5361 181.827 38.9736 181.52 38.5635C181.311 38.2822 181.046 38.1416 180.724 38.1416ZM185.945 39.873C186.68 40.0254 187.048 40.3696 187.048 40.9058C187.048 41.272 186.894 41.5459 186.586 41.7275C186.282 41.9092 185.855 42 185.308 42H183.321V41.8374C183.582 41.8374 183.746 41.7891 183.813 41.6924C183.884 41.5928 183.919 41.3804 183.919 41.0552V38.9194C183.919 38.603 183.903 38.417 183.871 38.3613C183.841 38.3057 183.793 38.2559 183.726 38.2119C183.661 38.165 183.526 38.1416 183.321 38.1416V37.9746H185.176C185.533 37.9746 185.822 38.0024 186.041 38.0581C186.264 38.1138 186.446 38.2236 186.586 38.3877C186.73 38.5518 186.802 38.751 186.802 38.9854C186.802 39.4424 186.516 39.7383 185.945 39.873ZM184.648 39.772C184.777 39.7749 184.855 39.7764 184.881 39.7764C185.283 39.7764 185.573 39.7002 185.751 39.5479C185.93 39.3926 186.02 39.2051 186.02 38.9854C186.02 38.7305 185.929 38.5459 185.747 38.4316C185.565 38.3174 185.275 38.2603 184.877 38.2603H184.648V39.772ZM184.648 41.644C184.795 41.6909 184.969 41.7144 185.171 41.7144C185.52 41.7144 185.779 41.6382 185.949 41.4858C186.119 41.3335 186.204 41.1372 186.204 40.897C186.204 40.6274 186.094 40.4209 185.874 40.2773C185.655 40.1338 185.35 40.062 184.96 40.062C184.864 40.062 184.76 40.0649 184.648 40.0708V41.644ZM189.803 41.4199C189.39 41.7393 189.131 41.9238 189.025 41.9736C188.867 42.0469 188.699 42.0835 188.52 42.0835C188.242 42.0835 188.012 41.9883 187.83 41.7979C187.651 41.6074 187.562 41.3569 187.562 41.0464C187.562 40.8501 187.606 40.6802 187.694 40.5366C187.814 40.3374 188.022 40.1499 188.318 39.9741C188.617 39.7983 189.112 39.5845 189.803 39.3325V39.1743C189.803 38.7729 189.739 38.4976 189.61 38.3481C189.484 38.1987 189.299 38.124 189.056 38.124C188.872 38.124 188.725 38.1738 188.617 38.2734C188.505 38.373 188.45 38.4873 188.45 38.6162L188.458 38.8711C188.458 39.0059 188.423 39.1099 188.353 39.1831C188.286 39.2563 188.196 39.293 188.085 39.293C187.977 39.293 187.887 39.2549 187.817 39.1787C187.749 39.1025 187.716 38.9985 187.716 38.8667C187.716 38.6147 187.845 38.3833 188.103 38.1724C188.36 37.9614 188.722 37.856 189.188 37.856C189.545 37.856 189.838 37.916 190.067 38.0361C190.24 38.127 190.367 38.269 190.449 38.4624C190.502 38.5884 190.528 38.8462 190.528 39.2358V40.6025C190.528 40.9863 190.536 41.2222 190.55 41.3101C190.565 41.395 190.588 41.4521 190.621 41.4814C190.656 41.5107 190.695 41.5254 190.739 41.5254C190.786 41.5254 190.827 41.5151 190.862 41.4946C190.924 41.4565 191.042 41.3496 191.218 41.1738V41.4199C190.89 41.8594 190.577 42.0791 190.278 42.0791C190.134 42.0791 190.02 42.0293 189.935 41.9297C189.85 41.8301 189.806 41.6602 189.803 41.4199ZM189.803 41.1343V39.6006C189.361 39.7764 189.075 39.9009 188.946 39.9741C188.715 40.103 188.549 40.2378 188.45 40.3784C188.35 40.519 188.3 40.6729 188.3 40.8398C188.3 41.0508 188.363 41.2266 188.489 41.3672C188.615 41.5049 188.76 41.5737 188.924 41.5737C189.147 41.5737 189.44 41.4272 189.803 41.1343ZM191.231 38.3745L192.471 37.8735H192.638V38.814C192.846 38.4595 193.054 38.2119 193.262 38.0713C193.473 37.9277 193.694 37.856 193.925 37.856C194.33 37.856 194.666 38.0142 194.936 38.3306C195.267 38.7173 195.433 39.2212 195.433 39.8423C195.433 40.5366 195.233 41.1108 194.835 41.5649C194.507 41.937 194.094 42.123 193.596 42.123C193.379 42.123 193.191 42.0923 193.033 42.0308C192.916 41.9868 192.784 41.8989 192.638 41.7671V42.9932C192.638 43.2686 192.654 43.4429 192.686 43.5161C192.721 43.5923 192.78 43.6523 192.862 43.6963C192.947 43.7402 193.099 43.7622 193.319 43.7622V43.9248H191.209V43.7622H191.319C191.48 43.7651 191.618 43.7344 191.732 43.6699C191.788 43.6377 191.831 43.585 191.86 43.5117C191.892 43.4414 191.908 43.2598 191.908 42.9668V39.1611C191.908 38.9004 191.896 38.7349 191.873 38.6646C191.85 38.5942 191.811 38.5415 191.759 38.5063C191.709 38.4712 191.64 38.4536 191.552 38.4536C191.482 38.4536 191.393 38.4741 191.284 38.5151L191.231 38.3745ZM192.638 39.0732V40.5762C192.638 40.9014 192.651 41.1152 192.677 41.2178C192.718 41.3877 192.818 41.5371 192.976 41.666C193.137 41.7949 193.339 41.8594 193.582 41.8594C193.875 41.8594 194.113 41.7451 194.294 41.5166C194.532 41.2178 194.65 40.7974 194.65 40.2554C194.65 39.6401 194.516 39.167 194.246 38.8359C194.059 38.6074 193.836 38.4932 193.578 38.4932C193.437 38.4932 193.298 38.5283 193.161 38.5986C193.055 38.6514 192.881 38.8096 192.638 39.0732ZM197.278 40.7607L199.019 38.748C199.013 38.5225 198.97 38.3657 198.891 38.2778C198.812 38.1899 198.676 38.1445 198.482 38.1416V37.9746H200.354V38.1416C200.158 38.1416 200.026 38.1621 199.959 38.2031C199.892 38.2412 199.839 38.2896 199.801 38.3481C199.763 38.4067 199.744 38.5972 199.744 38.9194V41.0552C199.744 41.3657 199.76 41.5518 199.792 41.6133C199.824 41.6719 199.874 41.7246 199.941 41.7715C200.012 41.8154 200.149 41.8374 200.354 41.8374V42H198.408V41.8374C198.651 41.8374 198.813 41.7935 198.895 41.7056C198.978 41.6147 199.019 41.3979 199.019 41.0552V39.1611L197.278 41.1782C197.284 41.4272 197.319 41.5986 197.384 41.6924C197.448 41.7861 197.587 41.8345 197.801 41.8374V42H195.942V41.8374C196.203 41.8374 196.37 41.7905 196.443 41.6968C196.517 41.6001 196.553 41.3862 196.553 41.0552V38.9194C196.553 38.606 196.537 38.4214 196.505 38.3657C196.473 38.3071 196.423 38.2559 196.355 38.2119C196.288 38.165 196.15 38.1416 195.942 38.1416V37.9746H197.889V38.1416C197.693 38.1416 197.561 38.1621 197.494 38.2031C197.426 38.2412 197.374 38.2896 197.335 38.3481C197.297 38.4067 197.278 38.5972 197.278 38.9194V40.7607ZM200.759 42V41.8374C201.002 41.8374 201.165 41.7935 201.247 41.7056C201.329 41.6147 201.37 41.3979 201.37 41.0552V38.9194C201.37 38.606 201.353 38.4214 201.321 38.3657C201.289 38.3071 201.239 38.2559 201.172 38.2119C201.104 38.165 200.967 38.1416 200.759 38.1416V37.9746H202.706V38.1416C202.509 38.1416 202.377 38.1621 202.31 38.2031C202.243 38.2412 202.19 38.2896 202.152 38.3481C202.114 38.4067 202.095 38.5972 202.095 38.9194V41.1387C202.095 41.417 202.12 41.5825 202.169 41.6353C202.219 41.688 202.386 41.7144 202.67 41.7144H203.145C203.332 41.7144 203.456 41.7041 203.514 41.6836C203.573 41.6602 203.611 41.6221 203.628 41.5693C203.649 41.5166 203.659 41.3438 203.659 41.0508V38.9194C203.659 38.6089 203.643 38.4243 203.611 38.3657C203.579 38.3042 203.527 38.2515 203.457 38.2075C203.39 38.1636 203.253 38.1416 203.048 38.1416V37.9746H204.92V38.1416C204.762 38.1445 204.645 38.1709 204.569 38.2207C204.493 38.2705 204.443 38.3335 204.419 38.4097C204.396 38.4858 204.384 38.6558 204.384 38.9194V41.1914C204.384 41.4434 204.409 41.5942 204.459 41.644C204.509 41.6909 204.663 41.7144 204.92 41.7144H205.448C205.729 41.7144 205.883 41.6851 205.909 41.6265C205.936 41.5649 205.949 41.3818 205.949 41.0771V38.9194C205.949 38.606 205.933 38.4214 205.9 38.3657C205.868 38.3071 205.818 38.2559 205.751 38.2119C205.684 38.165 205.546 38.1416 205.338 38.1416V37.9746H207.285V38.1416C207.085 38.1416 206.952 38.1621 206.885 38.2031C206.82 38.2412 206.769 38.2896 206.731 38.3481C206.693 38.4067 206.674 38.5972 206.674 38.9194V40.8179C206.674 41.2104 206.684 41.4536 206.705 41.5474C206.728 41.6411 206.779 41.7114 206.858 41.7583C206.937 41.8052 207.08 41.8315 207.285 41.8374V43.1162H207.122C207.102 42.7529 206.989 42.4761 206.784 42.2856C206.582 42.0952 206.209 42 205.667 42H200.759ZM209.029 40.7607L210.77 38.748C210.764 38.5225 210.721 38.3657 210.642 38.2778C210.563 38.1899 210.427 38.1445 210.233 38.1416V37.9746H212.105V38.1416C211.909 38.1416 211.777 38.1621 211.71 38.2031C211.643 38.2412 211.59 38.2896 211.552 38.3481C211.514 38.4067 211.495 38.5972 211.495 38.9194V41.0552C211.495 41.3657 211.511 41.5518 211.543 41.6133C211.575 41.6719 211.625 41.7246 211.692 41.7715C211.763 41.8154 211.9 41.8374 212.105 41.8374V42H210.159V41.8374C210.402 41.8374 210.564 41.7935 210.646 41.7056C210.728 41.6147 210.77 41.3979 210.77 41.0552V39.1611L209.029 41.1782C209.035 41.4272 209.07 41.5986 209.135 41.6924C209.199 41.7861 209.338 41.8345 209.552 41.8374V42H207.693V41.8374C207.954 41.8374 208.121 41.7905 208.194 41.6968C208.268 41.6001 208.304 41.3862 208.304 41.0552V38.9194C208.304 38.606 208.288 38.4214 208.256 38.3657C208.224 38.3071 208.174 38.2559 208.106 38.2119C208.039 38.165 207.901 38.1416 207.693 38.1416V37.9746H209.64V38.1416C209.444 38.1416 209.312 38.1621 209.245 38.2031C209.177 38.2412 209.124 38.2896 209.086 38.3481C209.048 38.4067 209.029 38.5972 209.029 38.9194V40.7607Z" fill="white"/>
</g>
</svg>
