<svg width="226" height="47" viewBox="0 0 226 47" fill="none" xmlns="http://www.w3.org/2000/svg">
<g id="Frame 240 1">
<path id="Vector" d="M6.21484 8.36719H26V32.1953H28.5195V43.25H23.7148V37H5.6875V43.25H0.882812V32.1953H3.30469C4.48958 29.7474 5.27083 26.9089 5.64844 23.6797C6.02604 20.4375 6.21484 16.3424 6.21484 11.3945V8.36719ZM11.7227 13.1719C11.7227 21.8698 10.9349 28.2109 9.35938 32.1953H20.2383V13.1719H11.7227ZM31.6453 16.2578H43.657C46.118 16.2578 47.9604 16.707 49.1844 17.6055C50.4083 18.5039 51.0203 19.8581 51.0203 21.668C51.0203 22.8268 50.6818 23.8359 50.0047 24.6953C49.3406 25.5547 48.5008 26.1276 47.4852 26.4141C48.9174 26.7656 49.9852 27.4232 50.6883 28.3867C51.3914 29.3503 51.743 30.4049 51.743 31.5508C51.743 33.1654 51.1505 34.4805 49.9656 35.4961C48.7807 36.4987 47.0294 37 44.7117 37H31.6453V16.2578ZM37.1727 24.8711H40.7078C42.4135 24.8711 43.644 24.6562 44.3992 24.2266C45.1674 23.7969 45.5516 23.1198 45.5516 22.1953C45.5516 21.3229 45.1935 20.7044 44.4773 20.3398C43.7742 19.9622 42.5177 19.7734 40.7078 19.7734H37.1727V24.8711ZM37.1727 33.4844H41.5086C43.0711 33.4844 44.2104 33.2956 44.9266 32.918C45.6427 32.5404 46.0008 31.8633 46.0008 30.8867C46.0008 29.8711 45.5906 29.1745 44.7703 28.7969C43.95 28.4062 42.3549 28.2109 39.9852 28.2109H37.1727V33.4844ZM66.8609 30.3984L72.3297 31.3164C71.6266 33.3216 70.5133 34.8516 68.9898 35.9062C67.4794 36.9479 65.5849 37.4688 63.3063 37.4688C59.6995 37.4688 57.0302 36.2904 55.2984 33.9336C53.9313 32.0456 53.2477 29.6628 53.2477 26.7852C53.2477 23.3477 54.1461 20.6589 55.943 18.7188C57.7398 16.7656 60.012 15.7891 62.7594 15.7891C65.8453 15.7891 68.2802 16.8112 70.0641 18.8555C71.8479 20.8867 72.7008 24.0052 72.6227 28.2109H58.8727C58.9117 29.8385 59.3544 31.1081 60.2008 32.0195C61.0471 32.918 62.1018 33.3672 63.3648 33.3672C64.2242 33.3672 64.9469 33.1328 65.5328 32.6641C66.1188 32.1953 66.5615 31.4401 66.8609 30.3984ZM67.1734 24.8516C67.1344 23.263 66.7242 22.0586 65.943 21.2383C65.1617 20.4049 64.2112 19.9883 63.0914 19.9883C61.8935 19.9883 60.9039 20.4245 60.1227 21.2969C59.3414 22.1693 58.9573 23.3542 58.9703 24.8516H67.1734ZM76.1586 16.2578H81.2758V19.3047C81.9398 18.263 82.8383 17.4167 83.9711 16.7656C85.1039 16.1146 86.3604 15.7891 87.7406 15.7891C90.1495 15.7891 92.1937 16.7331 93.8734 18.6211C95.5531 20.5091 96.393 23.1393 96.393 26.5117C96.393 29.9753 95.5466 32.6706 93.8539 34.5977C92.1612 36.5117 90.1104 37.4688 87.7016 37.4688C86.5557 37.4688 85.5141 37.2409 84.5766 36.7852C83.6521 36.3294 82.6755 35.5482 81.6469 34.4414V44.8906H76.1586V16.2578ZM81.5883 26.2773C81.5883 28.6081 82.0505 30.3333 82.975 31.4531C83.8995 32.5599 85.0258 33.1133 86.3539 33.1133C87.6299 33.1133 88.6911 32.6055 89.5375 31.5898C90.3839 30.5612 90.807 28.8815 90.807 26.5508C90.807 24.3763 90.3708 22.7617 89.4984 21.707C88.626 20.6523 87.5453 20.125 86.2562 20.125C84.9151 20.125 83.8018 20.6458 82.9164 21.6875C82.031 22.7161 81.5883 24.2461 81.5883 26.2773ZM99.8313 16.2578H105.105V29.2852L113.542 16.2578H118.933V37H113.659V23.7383L105.105 37H99.8313V16.2578ZM122.176 28.4062V24.8711H132.977V28.4062H122.176ZM135.047 10.5156H148.836V11.2383H148.387C147.085 11.2383 146.212 11.4792 145.77 11.9609C145.34 12.4297 145.125 13.3281 145.125 14.6562V22.5664C146.948 22.5664 148.133 22.5078 148.68 22.3906C149.227 22.2604 149.734 21.9023 150.203 21.3164C150.672 20.7174 151.121 19.5716 151.551 17.8789C152.059 15.8997 152.547 14.4154 153.016 13.4258C153.497 12.4362 154.155 11.6549 154.988 11.082C155.835 10.4961 156.889 10.2031 158.152 10.2031C159.402 10.2031 160.405 10.5612 161.16 11.2773C161.915 11.9805 162.293 12.8529 162.293 13.8945C162.293 14.7018 162.039 15.3398 161.531 15.8086C161.023 16.2773 160.392 16.5117 159.637 16.5117C158.152 16.5117 157.352 15.6523 157.234 13.9336C157.182 13.0742 156.883 12.6445 156.336 12.6445C155.75 12.6445 155.249 12.9766 154.832 13.6406C154.415 14.3047 153.966 15.4961 153.484 17.2148C153.016 18.8945 152.612 20.1576 152.273 21.0039C151.935 21.8372 151.453 22.5404 150.828 23.1133C151.661 23.3216 152.299 23.5951 152.742 23.9336C153.198 24.2721 153.608 24.7148 153.973 25.2617C154.337 25.7956 155.118 27.1628 156.316 29.3633L159.012 34.168C159.428 34.8841 159.923 35.418 160.496 35.7695C161.082 36.1081 161.785 36.2773 162.605 36.2773V37H153.738L148.289 26.8438C147.664 25.6979 147.202 25.0078 146.902 24.7734C146.616 24.526 146.023 24.3828 145.125 24.3438V33.3086C145.125 34.5846 145.385 35.3984 145.906 35.75C146.44 36.1016 147.417 36.2773 148.836 36.2773V37H135.047V36.2773C136.57 36.2513 137.566 36.0299 138.035 35.6133C138.517 35.1836 138.758 34.2721 138.758 32.8789V15.1641C138.758 13.6146 138.569 12.5729 138.191 12.0391C137.814 11.5052 136.954 11.2383 135.613 11.2383H135.047V10.5156ZM185.884 14.8906C185.871 13.4583 185.696 12.4948 185.357 12C185.032 11.4922 184.205 11.2383 182.877 11.2383H181.998V10.5156H196.197V11.2383H195.279C194.055 11.2383 193.241 11.4727 192.837 11.9414C192.447 12.4102 192.252 13.4388 192.252 15.0273V32.4492C192.252 34.0768 192.453 35.125 192.857 35.5938C193.261 36.0495 194.068 36.2773 195.279 36.2773H196.197V37H181.998V36.2773H182.877C184.114 36.2773 184.921 36.0365 185.298 35.5547C185.689 35.0599 185.884 34.0247 185.884 32.4492V18.0742L176.548 32.7227C176.548 33.9857 176.705 34.8971 177.017 35.457C177.33 36.0039 178.176 36.2773 179.556 36.2773H180.474V37H166.275V36.2773H167.154C168.391 36.2773 169.205 36.0365 169.595 35.5547C169.986 35.0599 170.181 34.0247 170.181 32.4492V15.0273C170.181 13.4388 170.025 12.4102 169.712 11.9414C169.4 11.4727 168.547 11.2383 167.154 11.2383H166.275V10.5156H180.474V11.2383H179.556C178.358 11.2383 177.558 11.4987 177.154 12.0195C176.75 12.5273 176.548 13.5299 176.548 15.0273V29.5391L185.884 14.8906ZM224.417 10.5156V17.6836H223.714C223.297 16.0299 222.835 14.8451 222.327 14.1289C221.82 13.3997 221.123 12.8203 220.238 12.3906C219.743 12.1562 218.877 12.0391 217.64 12.0391H215.667V32.4688C215.667 33.8229 215.739 34.6693 215.882 35.0078C216.038 35.3464 216.331 35.6458 216.761 35.9062C217.204 36.1536 217.803 36.2773 218.558 36.2773H219.437V37H205.57V36.2773H206.448C207.217 36.2773 207.835 36.1406 208.304 35.8672C208.642 35.6849 208.909 35.3724 209.105 34.9297C209.248 34.6172 209.32 33.7969 209.32 32.4688V12.0391H207.405C205.622 12.0391 204.326 12.4167 203.519 13.1719C202.386 14.2266 201.67 15.7305 201.37 17.6836H200.628V10.5156H224.417Z" fill="white"/>
<path id="Vector_2" d="M140.971 44.8374V45H139.433C139.266 44.7334 138.915 44.231 138.378 43.4927C137.842 42.7515 137.516 42.3413 137.398 42.2622C137.281 42.1802 137.104 42.1377 136.867 42.1348V43.9146C136.867 44.3071 136.916 44.5562 137.016 44.6616C137.119 44.7671 137.356 44.8257 137.728 44.8374V45H135.162V44.8374C135.528 44.8257 135.762 44.7686 135.865 44.666C135.97 44.5605 136.023 44.3101 136.023 43.9146V40.1265C136.023 39.7339 135.972 39.4849 135.869 39.3794C135.767 39.2739 135.531 39.2153 135.162 39.2036V39.041H137.728V39.2036C137.356 39.2153 137.119 39.2739 137.016 39.3794C136.916 39.4849 136.867 39.7339 136.867 40.1265V41.7876C137.186 41.7847 137.407 41.7642 137.53 41.7261C137.653 41.6851 137.791 41.5942 137.943 41.4536C138.099 41.313 138.22 41.1621 138.308 41.001C138.399 40.8369 138.515 40.5688 138.655 40.1968C138.787 39.8481 138.894 39.6064 138.976 39.4717C139.061 39.334 139.196 39.2168 139.38 39.1201C139.565 39.0205 139.785 38.9707 140.04 38.9707C140.491 38.9707 140.716 39.1289 140.716 39.4453C140.716 39.5566 140.671 39.6533 140.58 39.7354C140.492 39.8174 140.391 39.8584 140.277 39.8584C140.195 39.8584 140.057 39.8115 139.864 39.7178C139.694 39.6328 139.575 39.5903 139.508 39.5903C139.414 39.5903 139.333 39.6401 139.266 39.7397C139.199 39.8364 139.092 40.0854 138.945 40.4868C138.664 41.2368 138.305 41.7129 137.869 41.915C138.135 41.9619 138.504 42.3267 138.976 43.0093C139.477 43.7329 139.845 44.2163 140.079 44.4595C140.313 44.7026 140.611 44.8286 140.971 44.8374ZM140.378 40.9746H142.254V41.1372H142.162C142.03 41.1372 141.931 41.1665 141.863 41.2251C141.799 41.2808 141.767 41.3511 141.767 41.436C141.767 41.5503 141.815 41.7085 141.912 41.9106L142.892 43.9409L143.792 41.7173C143.842 41.5972 143.867 41.4785 143.867 41.3613C143.867 41.3086 143.857 41.269 143.836 41.2427C143.813 41.2104 143.776 41.1855 143.727 41.168C143.677 41.1475 143.589 41.1372 143.463 41.1372V40.9746H144.772V41.1372C144.664 41.1489 144.581 41.1724 144.522 41.2075C144.463 41.2427 144.399 41.3086 144.329 41.4053C144.302 41.4463 144.252 41.5591 144.179 41.7437L142.54 45.7603C142.382 46.1499 142.174 46.4443 141.916 46.6436C141.661 46.8428 141.415 46.9424 141.178 46.9424C141.005 46.9424 140.863 46.8926 140.751 46.793C140.64 46.6934 140.584 46.5791 140.584 46.4502C140.584 46.3271 140.624 46.2275 140.703 46.1514C140.785 46.0781 140.896 46.0415 141.037 46.0415C141.134 46.0415 141.266 46.0737 141.433 46.1382C141.55 46.1821 141.623 46.2041 141.652 46.2041C141.74 46.2041 141.835 46.1587 141.938 46.0679C142.043 45.9771 142.149 45.8013 142.254 45.5405L142.54 44.8418L141.094 41.8052C141.05 41.7144 140.98 41.6016 140.883 41.4668C140.81 41.3643 140.75 41.2954 140.703 41.2603C140.636 41.2134 140.527 41.1724 140.378 41.1372V40.9746ZM148.103 41.2603H146.363V44.0552C146.363 44.3657 146.379 44.5518 146.412 44.6133C146.444 44.6719 146.494 44.7246 146.561 44.7715C146.631 44.8154 146.769 44.8374 146.974 44.8374V45H145.027V44.8374C145.288 44.8374 145.455 44.7905 145.528 44.6968C145.602 44.6001 145.638 44.3862 145.638 44.0552V41.9194C145.638 41.606 145.622 41.4214 145.59 41.3657C145.558 41.3071 145.508 41.2559 145.44 41.2119C145.373 41.165 145.235 41.1416 145.027 41.1416V40.9746H149.439V41.1416C149.243 41.1416 149.111 41.1621 149.044 41.2031C148.977 41.2412 148.924 41.2896 148.886 41.3481C148.848 41.4067 148.829 41.5972 148.829 41.9194V44.0552C148.829 44.3657 148.845 44.5518 148.877 44.6133C148.909 44.6719 148.959 44.7246 149.026 44.7715C149.097 44.8154 149.234 44.8374 149.439 44.8374V45H147.493V44.8374C147.736 44.8374 147.898 44.7935 147.98 44.7056C148.062 44.6147 148.103 44.3979 148.103 44.0552V41.2603ZM154.256 44.8374V46.1162H154.093C154.084 45.7734 153.972 45.501 153.755 45.2988C153.541 45.0996 153.151 45 152.586 45H149.844V44.8374C150.104 44.8374 150.271 44.7905 150.345 44.6968C150.418 44.6001 150.455 44.3862 150.455 44.0552V41.9194C150.455 41.606 150.438 41.4214 150.406 41.3657C150.374 41.3071 150.324 41.2559 150.257 41.2119C150.189 41.165 150.052 41.1416 149.844 41.1416V40.9746H151.791V41.1416C151.594 41.1416 151.462 41.1621 151.395 41.2031C151.328 41.2412 151.275 41.2896 151.237 41.3481C151.199 41.4067 151.18 41.5972 151.18 41.9194V44.1914C151.18 44.4463 151.202 44.5972 151.246 44.644C151.292 44.6909 151.439 44.7144 151.685 44.7144H152.397C152.669 44.7144 152.825 44.6895 152.863 44.6396C152.901 44.5898 152.92 44.4287 152.92 44.1562V41.9194C152.92 41.6411 152.905 41.4624 152.876 41.3833C152.847 41.3013 152.79 41.2412 152.705 41.2031C152.62 41.1621 152.488 41.1416 152.309 41.1416V40.9746H154.256V41.1416C154.06 41.1416 153.928 41.1621 153.86 41.2031C153.793 41.2412 153.74 41.2896 153.702 41.3481C153.664 41.4067 153.645 41.5972 153.645 41.9194V43.9893C153.645 44.3672 153.679 44.6001 153.746 44.688C153.813 44.7759 153.983 44.8257 154.256 44.8374ZM157.02 44.4199C156.607 44.7393 156.348 44.9238 156.242 44.9736C156.084 45.0469 155.916 45.0835 155.737 45.0835C155.458 45.0835 155.228 44.9883 155.047 44.7979C154.868 44.6074 154.779 44.3569 154.779 44.0464C154.779 43.8501 154.823 43.6802 154.911 43.5366C155.031 43.3374 155.239 43.1499 155.535 42.9741C155.833 42.7983 156.329 42.5845 157.02 42.3325V42.1743C157.02 41.7729 156.956 41.4976 156.827 41.3481C156.701 41.1987 156.516 41.124 156.273 41.124C156.088 41.124 155.942 41.1738 155.833 41.2734C155.722 41.373 155.666 41.4873 155.666 41.6162L155.675 41.8711C155.675 42.0059 155.64 42.1099 155.57 42.1831C155.502 42.2563 155.413 42.293 155.302 42.293C155.193 42.293 155.104 42.2549 155.034 42.1787C154.966 42.1025 154.933 41.9985 154.933 41.8667C154.933 41.6147 155.061 41.3833 155.319 41.1724C155.577 40.9614 155.939 40.856 156.405 40.856C156.762 40.856 157.055 40.916 157.284 41.0361C157.457 41.127 157.584 41.269 157.666 41.4624C157.719 41.5884 157.745 41.8462 157.745 42.2358V43.6025C157.745 43.9863 157.752 44.2222 157.767 44.3101C157.782 44.395 157.805 44.4521 157.837 44.4814C157.873 44.5107 157.912 44.5254 157.956 44.5254C158.003 44.5254 158.044 44.5151 158.079 44.4946C158.141 44.4565 158.259 44.3496 158.435 44.1738V44.4199C158.107 44.8594 157.793 45.0791 157.495 45.0791C157.351 45.0791 157.237 45.0293 157.152 44.9297C157.067 44.8301 157.023 44.6602 157.02 44.4199ZM157.02 44.1343V42.6006C156.578 42.7764 156.292 42.9009 156.163 42.9741C155.932 43.103 155.766 43.2378 155.666 43.3784C155.567 43.519 155.517 43.6729 155.517 43.8398C155.517 44.0508 155.58 44.2266 155.706 44.3672C155.832 44.5049 155.977 44.5737 156.141 44.5737C156.364 44.5737 156.657 44.4272 157.02 44.1343ZM159.23 40.9746H162.83V41.1416C162.63 41.1416 162.497 41.1621 162.43 41.2031C162.365 41.2412 162.314 41.2896 162.276 41.3481C162.238 41.4067 162.219 41.5972 162.219 41.9194V44.0552C162.219 44.3657 162.235 44.5518 162.267 44.6133C162.299 44.6719 162.349 44.7246 162.416 44.7715C162.487 44.8154 162.624 44.8374 162.83 44.8374V45H160.747V44.8374C160.972 44.8374 161.127 44.8257 161.212 44.8022C161.3 44.7788 161.369 44.7231 161.419 44.6353C161.469 44.5444 161.494 44.3511 161.494 44.0552V41.2603H160.153V42.9565C160.153 43.5981 160.124 44.0493 160.065 44.3101C160.01 44.5679 159.897 44.7598 159.727 44.8857C159.56 45.0088 159.368 45.0703 159.151 45.0703C158.776 45.0703 158.589 44.915 158.589 44.6045C158.589 44.499 158.618 44.4126 158.677 44.3452C158.738 44.2778 158.817 44.2441 158.914 44.2441C159.017 44.2441 159.112 44.2866 159.2 44.3716C159.314 44.4829 159.4 44.5386 159.459 44.5386C159.591 44.5386 159.686 44.4287 159.745 44.209C159.806 43.9863 159.837 43.5981 159.837 43.0444V42.1567C159.837 41.6997 159.803 41.4214 159.736 41.3218C159.671 41.2222 159.503 41.1621 159.23 41.1416V40.9746ZM165.277 40.856C165.887 40.856 166.376 41.0874 166.745 41.5503C167.059 41.9458 167.215 42.3999 167.215 42.9126C167.215 43.2729 167.129 43.6377 166.956 44.0068C166.783 44.376 166.544 44.6543 166.24 44.8418C165.938 45.0293 165.601 45.123 165.229 45.123C164.623 45.123 164.141 44.8813 163.783 44.3979C163.481 43.9907 163.331 43.5337 163.331 43.0269C163.331 42.6577 163.421 42.2915 163.603 41.9282C163.788 41.562 164.029 41.2925 164.328 41.1196C164.627 40.9438 164.943 40.856 165.277 40.856ZM165.141 41.1416C164.986 41.1416 164.829 41.1885 164.671 41.2822C164.516 41.373 164.39 41.5342 164.293 41.7656C164.196 41.9971 164.148 42.2944 164.148 42.6577C164.148 43.2437 164.264 43.749 164.495 44.1738C164.729 44.5986 165.037 44.811 165.418 44.811C165.702 44.811 165.937 44.6938 166.121 44.4595C166.306 44.2251 166.398 43.8223 166.398 43.251C166.398 42.5361 166.244 41.9736 165.937 41.5635C165.728 41.2822 165.463 41.1416 165.141 41.1416ZM170.362 42.873C171.097 43.0254 171.465 43.3696 171.465 43.9058C171.465 44.272 171.311 44.5459 171.003 44.7275C170.699 44.9092 170.272 45 169.725 45H167.738V44.8374C167.999 44.8374 168.163 44.7891 168.23 44.6924C168.301 44.5928 168.336 44.3804 168.336 44.0552V41.9194C168.336 41.603 168.32 41.417 168.288 41.3613C168.258 41.3057 168.21 41.2559 168.143 41.2119C168.078 41.165 167.943 41.1416 167.738 41.1416V40.9746H169.593C169.95 40.9746 170.239 41.0024 170.458 41.0581C170.681 41.1138 170.863 41.2236 171.003 41.3877C171.147 41.5518 171.219 41.751 171.219 41.9854C171.219 42.4424 170.933 42.7383 170.362 42.873ZM169.065 42.772C169.194 42.7749 169.272 42.7764 169.298 42.7764C169.7 42.7764 169.99 42.7002 170.168 42.5479C170.347 42.3926 170.437 42.2051 170.437 41.9854C170.437 41.7305 170.346 41.5459 170.164 41.4316C169.982 41.3174 169.692 41.2603 169.294 41.2603H169.065V42.772ZM169.065 44.644C169.212 44.6909 169.386 44.7144 169.588 44.7144C169.937 44.7144 170.196 44.6382 170.366 44.4858C170.536 44.3335 170.621 44.1372 170.621 43.897C170.621 43.6274 170.511 43.4209 170.291 43.2773C170.072 43.1338 169.767 43.062 169.377 43.062C169.281 43.062 169.177 43.0649 169.065 43.0708V44.644ZM178.663 40.0254C178.663 39.668 178.604 39.4424 178.487 39.3486C178.373 39.252 178.14 39.2036 177.789 39.2036V39.041H180.368V39.2036C179.999 39.2153 179.763 39.2739 179.661 39.3794C179.558 39.4849 179.507 39.7339 179.507 40.1265V43.9146C179.507 44.3071 179.558 44.5562 179.661 44.6616C179.763 44.7671 179.999 44.8257 180.368 44.8374V45H177.789V44.8374C178.166 44.8257 178.407 44.7671 178.509 44.6616C178.612 44.5532 178.663 44.3042 178.663 43.9146V40.4956L175.899 44.0376C175.902 44.2925 175.918 44.4639 175.947 44.5518C175.979 44.6367 176.051 44.7041 176.163 44.7539C176.277 44.8037 176.478 44.8315 176.765 44.8374V45H174.194V44.8374C174.563 44.8257 174.799 44.7671 174.901 44.6616C175.004 44.5562 175.055 44.3071 175.055 43.9146V40.1265C175.055 39.7339 175.004 39.4849 174.901 39.3794C174.799 39.2739 174.563 39.2153 174.194 39.2036V39.041H176.765V39.2036C176.393 39.2153 176.155 39.2739 176.053 39.3794C175.95 39.4849 175.899 39.7339 175.899 40.1265V43.5586L178.663 40.0254ZM187.993 39.041L188.059 40.4385H187.892C187.859 40.1924 187.815 40.0166 187.76 39.9111C187.669 39.7412 187.547 39.6167 187.395 39.5376C187.246 39.4556 187.048 39.4146 186.802 39.4146H185.962V43.9673C185.962 44.3335 186.002 44.562 186.081 44.6528C186.192 44.7759 186.364 44.8374 186.595 44.8374H186.802V45H184.275V44.8374H184.486C184.738 44.8374 184.916 44.7612 185.022 44.6089C185.086 44.5151 185.119 44.3013 185.119 43.9673V39.4146H184.402C184.124 39.4146 183.926 39.4351 183.809 39.4761C183.657 39.5317 183.526 39.6387 183.418 39.7969C183.31 39.9551 183.245 40.1689 183.225 40.4385H183.058L183.128 39.041H187.993ZM189.86 40.856C190.47 40.856 190.959 41.0874 191.328 41.5503C191.642 41.9458 191.798 42.3999 191.798 42.9126C191.798 43.2729 191.712 43.6377 191.539 44.0068C191.366 44.376 191.127 44.6543 190.823 44.8418C190.521 45.0293 190.184 45.123 189.812 45.123C189.206 45.123 188.724 44.8813 188.366 44.3979C188.064 43.9907 187.914 43.5337 187.914 43.0269C187.914 42.6577 188.004 42.2915 188.186 41.9282C188.371 41.562 188.612 41.2925 188.911 41.1196C189.21 40.9438 189.526 40.856 189.86 40.856ZM189.724 41.1416C189.569 41.1416 189.412 41.1885 189.254 41.2822C189.099 41.373 188.973 41.5342 188.876 41.7656C188.779 41.9971 188.731 42.2944 188.731 42.6577C188.731 43.2437 188.847 43.749 189.078 44.1738C189.312 44.5986 189.62 44.811 190.001 44.811C190.285 44.811 190.52 44.6938 190.704 44.4595C190.889 44.2251 190.981 43.8223 190.981 43.251C190.981 42.5361 190.827 41.9736 190.52 41.5635C190.311 41.2822 190.046 41.1416 189.724 41.1416ZM194.945 42.873C195.68 43.0254 196.048 43.3696 196.048 43.9058C196.048 44.272 195.894 44.5459 195.586 44.7275C195.282 44.9092 194.855 45 194.308 45H192.321V44.8374C192.582 44.8374 192.746 44.7891 192.813 44.6924C192.884 44.5928 192.919 44.3804 192.919 44.0552V41.9194C192.919 41.603 192.903 41.417 192.871 41.3613C192.841 41.3057 192.793 41.2559 192.726 41.2119C192.661 41.165 192.526 41.1416 192.321 41.1416V40.9746H194.176C194.533 40.9746 194.822 41.0024 195.041 41.0581C195.264 41.1138 195.446 41.2236 195.586 41.3877C195.73 41.5518 195.802 41.751 195.802 41.9854C195.802 42.4424 195.516 42.7383 194.945 42.873ZM193.648 42.772C193.777 42.7749 193.855 42.7764 193.881 42.7764C194.283 42.7764 194.573 42.7002 194.751 42.5479C194.93 42.3926 195.02 42.2051 195.02 41.9854C195.02 41.7305 194.929 41.5459 194.747 41.4316C194.565 41.3174 194.275 41.2603 193.877 41.2603H193.648V42.772ZM193.648 44.644C193.795 44.6909 193.969 44.7144 194.171 44.7144C194.52 44.7144 194.779 44.6382 194.949 44.4858C195.119 44.3335 195.204 44.1372 195.204 43.897C195.204 43.6274 195.094 43.4209 194.874 43.2773C194.655 43.1338 194.35 43.062 193.96 43.062C193.864 43.062 193.76 43.0649 193.648 43.0708V44.644ZM198.803 44.4199C198.39 44.7393 198.131 44.9238 198.025 44.9736C197.867 45.0469 197.699 45.0835 197.52 45.0835C197.242 45.0835 197.012 44.9883 196.83 44.7979C196.651 44.6074 196.562 44.3569 196.562 44.0464C196.562 43.8501 196.606 43.6802 196.694 43.5366C196.814 43.3374 197.022 43.1499 197.318 42.9741C197.617 42.7983 198.112 42.5845 198.803 42.3325V42.1743C198.803 41.7729 198.739 41.4976 198.61 41.3481C198.484 41.1987 198.299 41.124 198.056 41.124C197.872 41.124 197.725 41.1738 197.617 41.2734C197.505 41.373 197.45 41.4873 197.45 41.6162L197.458 41.8711C197.458 42.0059 197.423 42.1099 197.353 42.1831C197.286 42.2563 197.196 42.293 197.085 42.293C196.977 42.293 196.887 42.2549 196.817 42.1787C196.749 42.1025 196.716 41.9985 196.716 41.8667C196.716 41.6147 196.845 41.3833 197.103 41.1724C197.36 40.9614 197.722 40.856 198.188 40.856C198.545 40.856 198.838 40.916 199.067 41.0361C199.24 41.127 199.367 41.269 199.449 41.4624C199.502 41.5884 199.528 41.8462 199.528 42.2358V43.6025C199.528 43.9863 199.536 44.2222 199.55 44.3101C199.565 44.395 199.588 44.4521 199.621 44.4814C199.656 44.5107 199.695 44.5254 199.739 44.5254C199.786 44.5254 199.827 44.5151 199.862 44.4946C199.924 44.4565 200.042 44.3496 200.218 44.1738V44.4199C199.89 44.8594 199.577 45.0791 199.278 45.0791C199.134 45.0791 199.02 45.0293 198.935 44.9297C198.85 44.8301 198.806 44.6602 198.803 44.4199ZM198.803 44.1343V42.6006C198.361 42.7764 198.075 42.9009 197.946 42.9741C197.715 43.103 197.549 43.2378 197.45 43.3784C197.35 43.519 197.3 43.6729 197.3 43.8398C197.3 44.0508 197.363 44.2266 197.489 44.3672C197.615 44.5049 197.76 44.5737 197.924 44.5737C198.147 44.5737 198.44 44.4272 198.803 44.1343ZM200.231 41.3745L201.471 40.8735H201.638V41.814C201.846 41.4595 202.054 41.2119 202.262 41.0713C202.473 40.9277 202.694 40.856 202.925 40.856C203.33 40.856 203.666 41.0142 203.936 41.3306C204.267 41.7173 204.433 42.2212 204.433 42.8423C204.433 43.5366 204.233 44.1108 203.835 44.5649C203.507 44.937 203.094 45.123 202.596 45.123C202.379 45.123 202.191 45.0923 202.033 45.0308C201.916 44.9868 201.784 44.8989 201.638 44.7671V45.9932C201.638 46.2686 201.654 46.4429 201.686 46.5161C201.721 46.5923 201.78 46.6523 201.862 46.6963C201.947 46.7402 202.099 46.7622 202.319 46.7622V46.9248H200.209V46.7622H200.319C200.48 46.7651 200.618 46.7344 200.732 46.6699C200.788 46.6377 200.831 46.585 200.86 46.5117C200.892 46.4414 200.908 46.2598 200.908 45.9668V42.1611C200.908 41.9004 200.896 41.7349 200.873 41.6646C200.85 41.5942 200.811 41.5415 200.759 41.5063C200.709 41.4712 200.64 41.4536 200.552 41.4536C200.482 41.4536 200.393 41.4741 200.284 41.5151L200.231 41.3745ZM201.638 42.0732V43.5762C201.638 43.9014 201.651 44.1152 201.677 44.2178C201.718 44.3877 201.818 44.5371 201.976 44.666C202.137 44.7949 202.339 44.8594 202.582 44.8594C202.875 44.8594 203.113 44.7451 203.294 44.5166C203.532 44.2178 203.65 43.7974 203.65 43.2554C203.65 42.6401 203.516 42.167 203.246 41.8359C203.059 41.6074 202.836 41.4932 202.578 41.4932C202.437 41.4932 202.298 41.5283 202.161 41.5986C202.055 41.6514 201.881 41.8096 201.638 42.0732ZM206.278 43.7607L208.019 41.748C208.013 41.5225 207.97 41.3657 207.891 41.2778C207.812 41.1899 207.676 41.1445 207.482 41.1416V40.9746H209.354V41.1416C209.158 41.1416 209.026 41.1621 208.959 41.2031C208.892 41.2412 208.839 41.2896 208.801 41.3481C208.763 41.4067 208.744 41.5972 208.744 41.9194V44.0552C208.744 44.3657 208.76 44.5518 208.792 44.6133C208.824 44.6719 208.874 44.7246 208.941 44.7715C209.012 44.8154 209.149 44.8374 209.354 44.8374V45H207.408V44.8374C207.651 44.8374 207.813 44.7935 207.895 44.7056C207.978 44.6147 208.019 44.3979 208.019 44.0552V42.1611L206.278 44.1782C206.284 44.4272 206.319 44.5986 206.384 44.6924C206.448 44.7861 206.587 44.8345 206.801 44.8374V45H204.942V44.8374C205.203 44.8374 205.37 44.7905 205.443 44.6968C205.517 44.6001 205.553 44.3862 205.553 44.0552V41.9194C205.553 41.606 205.537 41.4214 205.505 41.3657C205.473 41.3071 205.423 41.2559 205.355 41.2119C205.288 41.165 205.15 41.1416 204.942 41.1416V40.9746H206.889V41.1416C206.693 41.1416 206.561 41.1621 206.494 41.2031C206.426 41.2412 206.374 41.2896 206.335 41.3481C206.297 41.4067 206.278 41.5972 206.278 41.9194V43.7607ZM209.759 45V44.8374C210.002 44.8374 210.165 44.7935 210.247 44.7056C210.329 44.6147 210.37 44.3979 210.37 44.0552V41.9194C210.37 41.606 210.353 41.4214 210.321 41.3657C210.289 41.3071 210.239 41.2559 210.172 41.2119C210.104 41.165 209.967 41.1416 209.759 41.1416V40.9746H211.706V41.1416C211.509 41.1416 211.377 41.1621 211.31 41.2031C211.243 41.2412 211.19 41.2896 211.152 41.3481C211.114 41.4067 211.095 41.5972 211.095 41.9194V44.1387C211.095 44.417 211.12 44.5825 211.169 44.6353C211.219 44.688 211.386 44.7144 211.67 44.7144H212.145C212.332 44.7144 212.456 44.7041 212.514 44.6836C212.573 44.6602 212.611 44.6221 212.628 44.5693C212.649 44.5166 212.659 44.3438 212.659 44.0508V41.9194C212.659 41.6089 212.643 41.4243 212.611 41.3657C212.579 41.3042 212.527 41.2515 212.457 41.2075C212.39 41.1636 212.253 41.1416 212.048 41.1416V40.9746H213.92V41.1416C213.762 41.1445 213.645 41.1709 213.569 41.2207C213.493 41.2705 213.443 41.3335 213.419 41.4097C213.396 41.4858 213.384 41.6558 213.384 41.9194V44.1914C213.384 44.4434 213.409 44.5942 213.459 44.644C213.509 44.6909 213.663 44.7144 213.92 44.7144H214.448C214.729 44.7144 214.883 44.6851 214.909 44.6265C214.936 44.5649 214.949 44.3818 214.949 44.0771V41.9194C214.949 41.606 214.933 41.4214 214.9 41.3657C214.868 41.3071 214.818 41.2559 214.751 41.2119C214.684 41.165 214.546 41.1416 214.338 41.1416V40.9746H216.285V41.1416C216.085 41.1416 215.952 41.1621 215.885 41.2031C215.82 41.2412 215.769 41.2896 215.731 41.3481C215.693 41.4067 215.674 41.5972 215.674 41.9194V43.8179C215.674 44.2104 215.684 44.4536 215.705 44.5474C215.728 44.6411 215.779 44.7114 215.858 44.7583C215.937 44.8052 216.08 44.8315 216.285 44.8374V46.1162H216.122C216.102 45.7529 215.989 45.4761 215.784 45.2856C215.582 45.0952 215.209 45 214.667 45H209.759ZM218.029 43.7607L219.77 41.748C219.764 41.5225 219.721 41.3657 219.642 41.2778C219.563 41.1899 219.427 41.1445 219.233 41.1416V40.9746H221.105V41.1416C220.909 41.1416 220.777 41.1621 220.71 41.2031C220.643 41.2412 220.59 41.2896 220.552 41.3481C220.514 41.4067 220.495 41.5972 220.495 41.9194V44.0552C220.495 44.3657 220.511 44.5518 220.543 44.6133C220.575 44.6719 220.625 44.7246 220.692 44.7715C220.763 44.8154 220.9 44.8374 221.105 44.8374V45H219.159V44.8374C219.402 44.8374 219.564 44.7935 219.646 44.7056C219.728 44.6147 219.77 44.3979 219.77 44.0552V42.1611L218.029 44.1782C218.035 44.4272 218.07 44.5986 218.135 44.6924C218.199 44.7861 218.338 44.8345 218.552 44.8374V45H216.693V44.8374C216.954 44.8374 217.121 44.7905 217.194 44.6968C217.268 44.6001 217.304 44.3862 217.304 44.0552V41.9194C217.304 41.606 217.288 41.4214 217.256 41.3657C217.224 41.3071 217.174 41.2559 217.106 41.2119C217.039 41.165 216.901 41.1416 216.693 41.1416V40.9746H218.64V41.1416C218.444 41.1416 218.312 41.1621 218.245 41.2031C218.177 41.2412 218.124 41.2896 218.086 41.3481C218.048 41.4067 218.029 41.5972 218.029 41.9194V43.7607Z" fill="white"/>
</g>
</svg>
