<svg width="233" height="50" viewBox="0 0 233 50" fill="none" xmlns="http://www.w3.org/2000/svg">
<g id="logo 1">
<path id="Vector" d="M6.21484 10.3672H26V34.1953H28.5195V45.25H23.7148V39H5.6875V45.25H0.882812V34.1953H3.30469C4.48958 31.7474 5.27083 28.9089 5.64844 25.6797C6.02604 22.4375 6.21484 18.3424 6.21484 13.3945V10.3672ZM11.7227 15.1719C11.7227 23.8698 10.9349 30.2109 9.35938 34.1953H20.2383V15.1719H11.7227ZM32.4453 18.2578H44.457C46.918 18.2578 48.7604 18.707 49.9844 19.6055C51.2083 20.5039 51.8203 21.8581 51.8203 23.668C51.8203 24.8268 51.4818 25.8359 50.8047 26.6953C50.1406 27.5547 49.3008 28.1276 48.2852 28.4141C49.7174 28.7656 50.7852 29.4232 51.4883 30.3867C52.1914 31.3503 52.543 32.4049 52.543 33.5508C52.543 35.1654 51.9505 36.4805 50.7656 37.4961C49.5807 38.4987 47.8294 39 45.5117 39H32.4453V18.2578ZM37.9727 26.8711H41.5078C43.2135 26.8711 44.444 26.6562 45.1992 26.2266C45.9674 25.7969 46.3516 25.1198 46.3516 24.1953C46.3516 23.3229 45.9935 22.7044 45.2773 22.3398C44.5742 21.9622 43.3177 21.7734 41.5078 21.7734H37.9727V26.8711ZM37.9727 35.4844H42.3086C43.8711 35.4844 45.0104 35.2956 45.7266 34.918C46.4427 34.5404 46.8008 33.8633 46.8008 32.8867C46.8008 31.8711 46.3906 31.1745 45.5703 30.7969C44.75 30.4062 43.1549 30.2109 40.7852 30.2109H37.9727V35.4844ZM68.4609 32.3984L73.9297 33.3164C73.2266 35.3216 72.1133 36.8516 70.5898 37.9062C69.0794 38.9479 67.1849 39.4688 64.9062 39.4688C61.2995 39.4688 58.6302 38.2904 56.8984 35.9336C55.5312 34.0456 54.8477 31.6628 54.8477 28.7852C54.8477 25.3477 55.7461 22.6589 57.543 20.7188C59.3398 18.7656 61.612 17.7891 64.3594 17.7891C67.4453 17.7891 69.8802 18.8112 71.6641 20.8555C73.4479 22.8867 74.3008 26.0052 74.2227 30.2109H60.4727C60.5117 31.8385 60.9544 33.1081 61.8008 34.0195C62.6471 34.918 63.7018 35.3672 64.9648 35.3672C65.8242 35.3672 66.5469 35.1328 67.1328 34.6641C67.7188 34.1953 68.1615 33.4401 68.4609 32.3984ZM68.7734 26.8516C68.7344 25.263 68.3242 24.0586 67.543 23.2383C66.7617 22.4049 65.8112 21.9883 64.6914 21.9883C63.4935 21.9883 62.5039 22.4245 61.7227 23.2969C60.9414 24.1693 60.5573 25.3542 60.5703 26.8516H68.7734ZM78.5586 18.2578H83.6758V21.3047C84.3398 20.263 85.2383 19.4167 86.3711 18.7656C87.5039 18.1146 88.7604 17.7891 90.1406 17.7891C92.5495 17.7891 94.5938 18.7331 96.2734 20.6211C97.9531 22.5091 98.793 25.1393 98.793 28.5117C98.793 31.9753 97.9466 34.6706 96.2539 36.5977C94.5612 38.5117 92.5104 39.4688 90.1016 39.4688C88.9557 39.4688 87.9141 39.2409 86.9766 38.7852C86.0521 38.3294 85.0755 37.5482 84.0469 36.4414V46.8906H78.5586V18.2578ZM83.9883 28.2773C83.9883 30.6081 84.4505 32.3333 85.375 33.4531C86.2995 34.5599 87.4258 35.1133 88.7539 35.1133C90.0299 35.1133 91.0911 34.6055 91.9375 33.5898C92.7839 32.5612 93.207 30.8815 93.207 28.5508C93.207 26.3763 92.7708 24.7617 91.8984 23.707C91.026 22.6523 89.9453 22.125 88.6562 22.125C87.3151 22.125 86.2018 22.6458 85.3164 23.6875C84.431 24.7161 83.9883 26.2461 83.9883 28.2773ZM103.031 18.2578H108.305V31.2852L116.742 18.2578H122.133V39H116.859V25.7383L108.305 39H103.031V18.2578ZM127.152 31.3633V25.875H137.934V31.3633H127.152Z" fill="white"/>
<path id="Vector_2" d="M139.883 10.5293H154.706V11.3062H154.223C152.823 11.3062 151.886 11.5651 151.41 12.083C150.948 12.5869 150.717 13.5527 150.717 14.9805V23.4839C152.676 23.4839 153.95 23.4209 154.538 23.2949C155.126 23.1549 155.672 22.77 156.176 22.1401C156.68 21.4963 157.163 20.2645 157.625 18.4448C158.17 16.3172 158.695 14.7215 159.199 13.6577C159.717 12.5939 160.424 11.7541 161.32 11.1382C162.23 10.5083 163.363 10.1934 164.721 10.1934C166.065 10.1934 167.143 10.5783 167.955 11.3481C168.766 12.104 169.172 13.0418 169.172 14.1616C169.172 15.0295 168.899 15.7153 168.354 16.2192C167.808 16.7231 167.129 16.9751 166.317 16.9751C164.721 16.9751 163.86 16.0513 163.734 14.2036C163.678 13.2798 163.356 12.8179 162.769 12.8179C162.139 12.8179 161.6 13.1748 161.152 13.8887C160.704 14.6025 160.221 15.8833 159.703 17.731C159.199 19.5366 158.765 20.8944 158.401 21.8042C158.037 22.7 157.52 23.4559 156.848 24.0718C157.744 24.2957 158.429 24.5897 158.905 24.9536C159.395 25.3175 159.836 25.7935 160.228 26.3813C160.62 26.9552 161.46 28.425 162.748 30.7905L165.645 35.9556C166.093 36.7254 166.625 37.2993 167.241 37.6772C167.871 38.0412 168.626 38.2231 169.508 38.2231V39H159.976L154.118 28.082C153.446 26.8503 152.949 26.1084 152.627 25.8564C152.32 25.5905 151.683 25.4365 150.717 25.3945V35.0317C150.717 36.4035 150.997 37.2783 151.557 37.6562C152.131 38.0342 153.18 38.2231 154.706 38.2231V39H139.883V38.2231C141.521 38.1951 142.591 37.9572 143.095 37.5093C143.613 37.0474 143.872 36.0675 143.872 34.5698V15.5264C143.872 13.8607 143.669 12.7409 143.263 12.167C142.857 11.5931 141.933 11.3062 140.492 11.3062H139.883V10.5293ZM191.953 15.2324C191.939 13.6927 191.75 12.6569 191.386 12.125C191.036 11.5791 190.147 11.3062 188.72 11.3062H187.775V10.5293H203.039V11.3062H202.052C200.737 11.3062 199.862 11.5581 199.428 12.062C199.008 12.5659 198.798 13.6717 198.798 15.3794V34.1079C198.798 35.8576 199.015 36.9844 199.449 37.4883C199.883 37.9782 200.751 38.2231 202.052 38.2231H203.039V39H187.775V38.2231H188.72C190.05 38.2231 190.917 37.9642 191.323 37.4463C191.743 36.9144 191.953 35.8016 191.953 34.1079V18.6548L181.917 34.4019C181.917 35.7596 182.085 36.7394 182.421 37.3413C182.757 37.9292 183.667 38.2231 185.15 38.2231H186.137V39H170.873V38.2231H171.818C173.148 38.2231 174.022 37.9642 174.442 37.4463C174.862 36.9144 175.072 35.8016 175.072 34.1079V15.3794C175.072 13.6717 174.904 12.5659 174.568 12.062C174.232 11.5581 173.316 11.3062 171.818 11.3062H170.873V10.5293H186.137V11.3062H185.15C183.863 11.3062 183.002 11.5861 182.568 12.146C182.134 12.6919 181.917 13.7697 181.917 15.3794V30.9795L191.953 15.2324ZM230.796 10.5293V18.2349H230.04C229.592 16.4572 229.095 15.1834 228.549 14.4136C228.003 13.6297 227.255 13.0068 226.303 12.5449C225.771 12.293 224.84 12.167 223.51 12.167H221.39V34.1289C221.39 35.5846 221.467 36.4945 221.621 36.8584C221.789 37.2223 222.104 37.5443 222.565 37.8242C223.041 38.0902 223.685 38.2231 224.497 38.2231H225.442V39H210.535V38.2231H211.48C212.305 38.2231 212.97 38.0762 213.474 37.7822C213.838 37.5863 214.125 37.2503 214.335 36.7744C214.489 36.4385 214.566 35.5566 214.566 34.1289V12.167H212.508C210.591 12.167 209.198 12.5729 208.33 13.3848C207.112 14.5186 206.342 16.1353 206.021 18.2349H205.223V10.5293H230.796Z" fill="white"/>
<path id="Vector_3" d="M145.304 46.8284V47H143.68C143.504 46.7186 143.133 46.1882 142.567 45.4089C142.001 44.6265 141.656 44.1936 141.533 44.1101C141.409 44.0235 141.222 43.9787 140.971 43.9756V45.8542C140.971 46.2686 141.024 46.5315 141.129 46.6428C141.237 46.7542 141.488 46.816 141.881 46.8284V47H139.172V46.8284C139.558 46.816 139.806 46.7557 139.914 46.6475C140.025 46.5361 140.081 46.2717 140.081 45.8542V41.8557C140.081 41.4413 140.027 41.1785 139.918 41.0671C139.81 40.9558 139.561 40.894 139.172 40.8816V40.71H141.881V40.8816C141.488 40.894 141.237 40.9558 141.129 41.0671C141.024 41.1785 140.971 41.4413 140.971 41.8557V43.6091C141.309 43.606 141.542 43.5844 141.672 43.5442C141.802 43.5009 141.947 43.405 142.108 43.2566C142.272 43.1082 142.4 42.9489 142.493 42.7788C142.589 42.6056 142.711 42.3227 142.859 41.9299C142.999 41.5619 143.111 41.3068 143.198 41.1646C143.288 41.0192 143.43 40.8955 143.625 40.7935C143.82 40.6883 144.052 40.6357 144.321 40.6357C144.797 40.6357 145.035 40.8027 145.035 41.1367C145.035 41.2542 144.987 41.3563 144.891 41.4429C144.798 41.5295 144.692 41.5728 144.571 41.5728C144.484 41.5728 144.339 41.5233 144.135 41.4243C143.956 41.3346 143.83 41.2898 143.759 41.2898C143.66 41.2898 143.575 41.3424 143.504 41.4475C143.433 41.5496 143.32 41.8124 143.166 42.2361C142.869 43.0278 142.49 43.5303 142.029 43.7437C142.31 43.7931 142.7 44.1781 143.198 44.8987C143.727 45.6625 144.115 46.1728 144.362 46.4294C144.61 46.6861 144.924 46.8191 145.304 46.8284ZM144.63 42.751H146.611V42.9226H146.514C146.374 42.9226 146.269 42.9535 146.198 43.0154C146.13 43.0741 146.096 43.1484 146.096 43.238C146.096 43.3586 146.147 43.5256 146.249 43.739L147.284 45.8821L148.234 43.5349C148.287 43.4081 148.313 43.2829 148.313 43.1592C148.313 43.1035 148.303 43.0618 148.281 43.0339C148.256 42.9999 148.217 42.9736 148.165 42.9551C148.112 42.9334 148.02 42.9226 147.887 42.9226V42.751H149.269V42.9226C149.154 42.935 149.066 42.9597 149.005 42.9968C148.943 43.0339 148.875 43.1035 148.8 43.2056C148.773 43.2489 148.72 43.3679 148.643 43.5627L146.912 47.8025C146.745 48.2138 146.526 48.5246 146.254 48.7349C145.985 48.9451 145.725 49.0503 145.474 49.0503C145.292 49.0503 145.142 48.9977 145.025 48.8926C144.907 48.7874 144.848 48.6668 144.848 48.5308C144.848 48.4009 144.89 48.2957 144.973 48.2153C145.06 48.138 145.178 48.0994 145.326 48.0994C145.428 48.0994 145.567 48.1334 145.744 48.2014C145.867 48.2478 145.945 48.271 145.975 48.271C146.068 48.271 146.169 48.2231 146.277 48.1272C146.388 48.0313 146.5 47.8458 146.611 47.5706L146.912 46.833L145.386 43.6277C145.34 43.5318 145.266 43.4128 145.164 43.2705C145.086 43.1623 145.023 43.0896 144.973 43.0525C144.902 43.003 144.788 42.9597 144.63 42.9226V42.751ZM152.738 43.0525H150.901V46.0027C150.901 46.3305 150.918 46.5269 150.952 46.5918C150.986 46.6536 151.038 46.7093 151.109 46.7588C151.184 46.8052 151.329 46.8284 151.545 46.8284V47H149.49V46.8284C149.766 46.8284 149.942 46.7789 150.019 46.6799C150.097 46.5779 150.135 46.3521 150.135 46.0027V43.7483C150.135 43.4174 150.118 43.2226 150.084 43.1638C150.05 43.102 149.998 43.0479 149.926 43.0015C149.855 42.952 149.71 42.9272 149.49 42.9272V42.751H154.148V42.9272C153.94 42.9272 153.801 42.9489 153.73 42.9922C153.659 43.0324 153.603 43.0834 153.563 43.1453C153.523 43.2071 153.503 43.4081 153.503 43.7483V46.0027C153.503 46.3305 153.52 46.5269 153.554 46.5918C153.588 46.6536 153.641 46.7093 153.712 46.7588C153.786 46.8052 153.931 46.8284 154.148 46.8284V47H152.093V46.8284C152.349 46.8284 152.521 46.782 152.608 46.6892C152.694 46.5933 152.738 46.3645 152.738 46.0027V43.0525ZM159.184 46.8284V48.1782H159.013C159.003 47.8164 158.884 47.5288 158.655 47.3154C158.43 47.1051 158.018 47 157.421 47H154.527V46.8284C154.802 46.8284 154.978 46.7789 155.056 46.6799C155.133 46.5779 155.172 46.3521 155.172 46.0027V43.7483C155.172 43.4174 155.155 43.2226 155.121 43.1638C155.087 43.102 155.034 43.0479 154.963 43.0015C154.892 42.952 154.746 42.9272 154.527 42.9272V42.751H156.582V42.9272C156.375 42.9272 156.236 42.9489 156.164 42.9922C156.093 43.0324 156.038 43.0834 155.997 43.1453C155.957 43.2071 155.937 43.4081 155.937 43.7483V46.1465C155.937 46.4155 155.96 46.5748 156.007 46.6243C156.056 46.6737 156.211 46.6985 156.471 46.6985H157.222C157.51 46.6985 157.673 46.6722 157.714 46.6196C157.754 46.5671 157.774 46.397 157.774 46.1094V43.7483C157.774 43.4545 157.759 43.2659 157.728 43.1824C157.697 43.0958 157.636 43.0324 157.547 42.9922C157.457 42.9489 157.318 42.9272 157.129 42.9272V42.751H159.184V42.9272C158.977 42.9272 158.838 42.9489 158.767 42.9922C158.696 43.0324 158.64 43.0834 158.6 43.1453C158.559 43.2071 158.539 43.4081 158.539 43.7483V45.9331C158.539 46.332 158.575 46.5779 158.646 46.6707C158.717 46.7634 158.897 46.816 159.184 46.8284ZM162.054 46.3877C161.618 46.7248 161.345 46.9196 161.233 46.9722C161.066 47.0495 160.889 47.0881 160.7 47.0881C160.406 47.0881 160.163 46.9876 159.972 46.7866C159.783 46.5856 159.689 46.3212 159.689 45.9934C159.689 45.7862 159.735 45.6069 159.828 45.4553C159.955 45.245 160.174 45.0471 160.487 44.8616C160.802 44.676 161.325 44.4503 162.054 44.1843V44.0173C162.054 43.5937 161.986 43.303 161.85 43.1453C161.717 42.9875 161.522 42.9087 161.266 42.9087C161.071 42.9087 160.916 42.9613 160.802 43.0664C160.684 43.1715 160.626 43.2922 160.626 43.4282L160.635 43.6973C160.635 43.8395 160.598 43.9493 160.524 44.0266C160.452 44.1039 160.358 44.1426 160.241 44.1426C160.126 44.1426 160.032 44.1024 159.958 44.022C159.887 43.9416 159.851 43.8318 159.851 43.6926C159.851 43.4267 159.987 43.1824 160.259 42.9597C160.531 42.7371 160.913 42.6257 161.405 42.6257C161.782 42.6257 162.091 42.6891 162.333 42.8159C162.515 42.9118 162.65 43.0618 162.736 43.2659C162.792 43.3988 162.82 43.671 162.82 44.0823V45.5249C162.82 45.93 162.827 46.179 162.843 46.2717C162.858 46.3614 162.883 46.4217 162.917 46.4526C162.954 46.4836 162.996 46.499 163.042 46.499C163.092 46.499 163.135 46.4882 163.172 46.4666C163.237 46.4264 163.362 46.3135 163.548 46.1279V46.3877C163.202 46.8516 162.871 47.0835 162.555 47.0835C162.404 47.0835 162.283 47.0309 162.194 46.9258C162.104 46.8206 162.057 46.6413 162.054 46.3877ZM162.054 46.0862V44.4673C161.587 44.6528 161.286 44.7843 161.15 44.8616C160.906 44.9976 160.731 45.1399 160.626 45.2883C160.521 45.4368 160.468 45.5991 160.468 45.7754C160.468 45.998 160.534 46.1836 160.667 46.332C160.8 46.4774 160.953 46.55 161.127 46.55C161.362 46.55 161.671 46.3954 162.054 46.0862ZM164.34 42.751H168.139V42.9272C167.929 42.9272 167.788 42.9489 167.717 42.9922C167.649 43.0324 167.595 43.0834 167.555 43.1453C167.515 43.2071 167.494 43.4081 167.494 43.7483V46.0027C167.494 46.3305 167.511 46.5269 167.545 46.5918C167.579 46.6536 167.632 46.7093 167.703 46.7588C167.777 46.8052 167.923 46.8284 168.139 46.8284V47H165.94V46.8284C166.179 46.8284 166.342 46.816 166.432 46.7913C166.525 46.7665 166.598 46.7078 166.65 46.615C166.703 46.5191 166.729 46.315 166.729 46.0027V43.0525H165.314V44.843C165.314 45.5203 165.283 45.9965 165.221 46.2717C165.163 46.5439 165.044 46.7464 164.864 46.8794C164.688 47.0093 164.485 47.0742 164.257 47.0742C163.861 47.0742 163.663 46.9103 163.663 46.5825C163.663 46.4712 163.694 46.38 163.756 46.3088C163.821 46.2377 163.904 46.2021 164.006 46.2021C164.114 46.2021 164.215 46.247 164.308 46.3367C164.428 46.4542 164.519 46.5129 164.581 46.5129C164.721 46.5129 164.821 46.397 164.883 46.165C164.948 45.93 164.98 45.5203 164.98 44.9358V43.9988C164.98 43.5164 164.945 43.2226 164.874 43.1174C164.806 43.0123 164.628 42.9489 164.34 42.9272V42.751ZM170.675 42.6257C171.319 42.6257 171.835 42.87 172.225 43.3586C172.556 43.7761 172.721 44.2555 172.721 44.7966C172.721 45.177 172.63 45.562 172.447 45.9517C172.265 46.3413 172.013 46.6351 171.691 46.833C171.373 47.0309 171.017 47.1299 170.624 47.1299C169.984 47.1299 169.476 46.8748 169.098 46.3645C168.78 45.9347 168.621 45.4522 168.621 44.9172C168.621 44.5276 168.716 44.141 168.908 43.7576C169.103 43.371 169.358 43.0865 169.673 42.9041C169.989 42.7185 170.323 42.6257 170.675 42.6257ZM170.532 42.9272C170.368 42.9272 170.202 42.9767 170.035 43.0757C169.871 43.1715 169.738 43.3416 169.636 43.5859C169.534 43.8302 169.483 44.1441 169.483 44.5276C169.483 45.1461 169.605 45.6795 169.85 46.1279C170.097 46.5763 170.422 46.8005 170.824 46.8005C171.124 46.8005 171.371 46.6768 171.566 46.4294C171.761 46.182 171.858 45.7568 171.858 45.1538C171.858 44.3993 171.696 43.8055 171.371 43.3726C171.152 43.0757 170.872 42.9272 170.532 42.9272ZM175.995 44.7549C176.771 44.9157 177.159 45.2791 177.159 45.845C177.159 46.2315 176.997 46.5207 176.672 46.7124C176.351 46.9041 175.901 47 175.322 47H173.226V46.8284C173.501 46.8284 173.674 46.7773 173.745 46.6753C173.819 46.5701 173.856 46.3459 173.856 46.0027V43.7483C173.856 43.4143 173.839 43.2179 173.805 43.1592C173.775 43.1004 173.723 43.0479 173.652 43.0015C173.584 42.952 173.442 42.9272 173.226 42.9272V42.751H175.183C175.56 42.751 175.865 42.7804 176.097 42.8391C176.332 42.8979 176.524 43.0138 176.672 43.187C176.824 43.3602 176.899 43.5705 176.899 43.8179C176.899 44.3003 176.598 44.6126 175.995 44.7549ZM174.626 44.6482C174.763 44.6513 174.845 44.6528 174.872 44.6528C175.296 44.6528 175.602 44.5724 175.791 44.4116C175.979 44.2477 176.074 44.0498 176.074 43.8179C176.074 43.5488 175.978 43.354 175.786 43.2334C175.594 43.1128 175.288 43.0525 174.868 43.0525H174.626V44.6482ZM174.626 46.6243C174.781 46.6737 174.965 46.6985 175.178 46.6985C175.546 46.6985 175.82 46.6181 176 46.4573C176.179 46.2965 176.269 46.0893 176.269 45.8357C176.269 45.5512 176.153 45.3332 175.921 45.1816C175.689 45.0301 175.367 44.9543 174.956 44.9543C174.854 44.9543 174.744 44.9574 174.626 44.9636V46.6243ZM184.662 41.749C184.662 41.3717 184.6 41.1336 184.477 41.0347C184.356 40.9326 184.11 40.8816 183.739 40.8816V40.71H186.462V40.8816C186.072 40.894 185.824 40.9558 185.715 41.0671C185.607 41.1785 185.553 41.4413 185.553 41.8557V45.8542C185.553 46.2686 185.607 46.5315 185.715 46.6428C185.824 46.7542 186.072 46.816 186.462 46.8284V47H183.739V46.8284C184.138 46.816 184.392 46.7542 184.5 46.6428C184.608 46.5284 184.662 46.2655 184.662 45.8542V42.2454L181.745 45.9841C181.748 46.2532 181.765 46.4341 181.796 46.5269C181.83 46.6165 181.905 46.6877 182.023 46.7402C182.144 46.7928 182.355 46.8222 182.658 46.8284V47H179.945V46.8284C180.334 46.816 180.583 46.7542 180.692 46.6428C180.8 46.5315 180.854 46.2686 180.854 45.8542V41.8557C180.854 41.4413 180.8 41.1785 180.692 41.0671C180.583 40.9558 180.334 40.894 179.945 40.8816V40.71H182.658V40.8816C182.266 40.894 182.015 40.9558 181.907 41.0671C181.799 41.1785 181.745 41.4413 181.745 41.8557V45.4785L184.662 41.749ZM194.415 40.71L194.485 42.1851H194.309C194.275 41.9253 194.228 41.7397 194.169 41.6284C194.074 41.4491 193.945 41.3176 193.784 41.2341C193.627 41.1475 193.418 41.1042 193.158 41.1042H192.272V45.9099C192.272 46.2965 192.314 46.5377 192.397 46.6335C192.515 46.7634 192.696 46.8284 192.94 46.8284H193.158V47H190.491V46.8284H190.714C190.98 46.8284 191.168 46.748 191.28 46.5872C191.348 46.4882 191.382 46.2625 191.382 45.9099V41.1042H190.625C190.332 41.1042 190.123 41.1259 189.999 41.1692C189.838 41.2279 189.701 41.3408 189.586 41.5078C189.472 41.6748 189.404 41.9006 189.382 42.1851H189.206L189.28 40.71H194.415ZM196.339 42.6257C196.982 42.6257 197.499 42.87 197.888 43.3586C198.219 43.7761 198.385 44.2555 198.385 44.7966C198.385 45.177 198.294 45.562 198.111 45.9517C197.929 46.3413 197.677 46.6351 197.355 46.833C197.037 47.0309 196.681 47.1299 196.288 47.1299C195.648 47.1299 195.139 46.8748 194.762 46.3645C194.444 45.9347 194.284 45.4522 194.284 44.9172C194.284 44.5276 194.38 44.141 194.572 43.7576C194.767 43.371 195.022 43.0865 195.337 42.9041C195.653 42.7185 195.987 42.6257 196.339 42.6257ZM196.195 42.9272C196.031 42.9272 195.866 42.9767 195.699 43.0757C195.535 43.1715 195.402 43.3416 195.3 43.5859C195.198 43.8302 195.147 44.1441 195.147 44.5276C195.147 45.1461 195.269 45.6795 195.513 46.1279C195.761 46.5763 196.086 46.8005 196.488 46.8005C196.788 46.8005 197.035 46.6768 197.23 46.4294C197.425 46.182 197.522 45.7568 197.522 45.1538C197.522 44.3993 197.36 43.8055 197.035 43.3726C196.815 43.0757 196.536 42.9272 196.195 42.9272ZM201.659 44.7549C202.435 44.9157 202.823 45.2791 202.823 45.845C202.823 46.2315 202.661 46.5207 202.336 46.7124C202.014 46.9041 201.564 47 200.986 47H198.889V46.8284C199.165 46.8284 199.338 46.7773 199.409 46.6753C199.483 46.5701 199.52 46.3459 199.52 46.0027V43.7483C199.52 43.4143 199.503 43.2179 199.469 43.1592C199.438 43.1004 199.387 43.0479 199.316 43.0015C199.248 42.952 199.106 42.9272 198.889 42.9272V42.751H200.847C201.224 42.751 201.529 42.7804 201.761 42.8391C201.996 42.8979 202.187 43.0138 202.336 43.187C202.487 43.3602 202.563 43.5705 202.563 43.8179C202.563 44.3003 202.262 44.6126 201.659 44.7549ZM200.29 44.6482C200.426 44.6513 200.508 44.6528 200.536 44.6528C200.96 44.6528 201.266 44.5724 201.455 44.4116C201.643 44.2477 201.737 44.0498 201.737 43.8179C201.737 43.5488 201.642 43.354 201.45 43.2334C201.258 43.1128 200.952 43.0525 200.531 43.0525H200.29V44.6482ZM200.29 46.6243C200.445 46.6737 200.629 46.6985 200.842 46.6985C201.21 46.6985 201.484 46.6181 201.663 46.4573C201.843 46.2965 201.932 46.0893 201.932 45.8357C201.932 45.5512 201.816 45.3332 201.584 45.1816C201.352 45.0301 201.031 44.9543 200.62 44.9543C200.518 44.9543 200.408 44.9574 200.29 44.9636V46.6243ZM205.684 46.3877C205.248 46.7248 204.974 46.9196 204.863 46.9722C204.696 47.0495 204.518 47.0881 204.329 47.0881C204.036 47.0881 203.793 46.9876 203.601 46.7866C203.412 46.5856 203.318 46.3212 203.318 45.9934C203.318 45.7862 203.365 45.6069 203.457 45.4553C203.584 45.245 203.804 45.0471 204.116 44.8616C204.431 44.676 204.954 44.4503 205.684 44.1843V44.0173C205.684 43.5937 205.616 43.303 205.48 43.1453C205.347 42.9875 205.152 42.9087 204.895 42.9087C204.7 42.9087 204.546 42.9613 204.431 43.0664C204.314 43.1715 204.255 43.2922 204.255 43.4282L204.264 43.6973C204.264 43.8395 204.227 43.9493 204.153 44.0266C204.082 44.1039 203.988 44.1426 203.87 44.1426C203.756 44.1426 203.661 44.1024 203.587 44.022C203.516 43.9416 203.481 43.8318 203.481 43.6926C203.481 43.4267 203.617 43.1824 203.889 42.9597C204.161 42.7371 204.543 42.6257 205.034 42.6257C205.412 42.6257 205.721 42.6891 205.962 42.8159C206.145 42.9118 206.279 43.0618 206.366 43.2659C206.421 43.3988 206.449 43.671 206.449 44.0823V45.5249C206.449 45.93 206.457 46.179 206.472 46.2717C206.488 46.3614 206.513 46.4217 206.547 46.4526C206.584 46.4836 206.626 46.499 206.672 46.499C206.721 46.499 206.765 46.4882 206.802 46.4666C206.867 46.4264 206.992 46.3135 207.178 46.1279V46.3877C206.831 46.8516 206.5 47.0835 206.185 47.0835C206.033 47.0835 205.913 47.0309 205.823 46.9258C205.733 46.8206 205.687 46.6413 205.684 46.3877ZM205.684 46.0862V44.4673C205.217 44.6528 204.915 44.7843 204.779 44.8616C204.535 44.9976 204.36 45.1399 204.255 45.2883C204.15 45.4368 204.097 45.5991 204.097 45.7754C204.097 45.998 204.164 46.1836 204.297 46.332C204.43 46.4774 204.583 46.55 204.756 46.55C204.991 46.55 205.3 46.3954 205.684 46.0862ZM207.144 43.1731L208.452 42.6443H208.628V43.637C208.848 43.2628 209.067 43.0015 209.287 42.853C209.51 42.7015 209.743 42.6257 209.987 42.6257C210.414 42.6257 210.77 42.7927 211.054 43.1267C211.404 43.5349 211.579 44.0668 211.579 44.7224C211.579 45.4553 211.368 46.0614 210.948 46.5408C210.601 46.9335 210.165 47.1299 209.64 47.1299C209.411 47.1299 209.213 47.0974 209.046 47.0325C208.922 46.9861 208.783 46.8933 208.628 46.7542V48.0483C208.628 48.339 208.645 48.523 208.679 48.6003C208.716 48.6807 208.778 48.7441 208.865 48.7905C208.955 48.8369 209.115 48.8601 209.347 48.8601V49.0317H207.121V48.8601H207.237C207.407 48.8632 207.552 48.8307 207.673 48.7627C207.732 48.7287 207.776 48.673 207.807 48.5957C207.841 48.5215 207.858 48.3298 207.858 48.0205V44.0034C207.858 43.7282 207.846 43.5535 207.821 43.4792C207.796 43.405 207.756 43.3494 207.701 43.3123C207.648 43.2751 207.575 43.2566 207.483 43.2566C207.408 43.2566 207.314 43.2782 207.2 43.3215L207.144 43.1731ZM208.628 43.9106V45.4971C208.628 45.8403 208.642 46.0661 208.67 46.1743C208.713 46.3537 208.819 46.5114 208.985 46.6475C209.156 46.7835 209.369 46.8516 209.626 46.8516C209.935 46.8516 210.185 46.731 210.377 46.4897C210.628 46.1743 210.753 45.7306 210.753 45.1584C210.753 44.509 210.611 44.0096 210.326 43.6602C210.128 43.4189 209.893 43.2983 209.621 43.2983C209.473 43.2983 209.326 43.3354 209.18 43.4097C209.069 43.4653 208.885 43.6323 208.628 43.9106ZM213.479 45.6919L215.316 43.5674C215.31 43.3293 215.265 43.1638 215.182 43.071C215.098 42.9783 214.954 42.9303 214.75 42.9272V42.751H216.726V42.9272C216.519 42.9272 216.38 42.9489 216.309 42.9922C216.238 43.0324 216.182 43.0834 216.142 43.1453C216.102 43.2071 216.082 43.4081 216.082 43.7483V46.0027C216.082 46.3305 216.099 46.5269 216.133 46.5918C216.167 46.6536 216.219 46.7093 216.29 46.7588C216.365 46.8052 216.51 46.8284 216.726 46.8284V47H214.671V46.8284C214.928 46.8284 215.1 46.782 215.186 46.6892C215.273 46.5933 215.316 46.3645 215.316 46.0027V44.0034L213.479 46.1326C213.485 46.3954 213.523 46.5763 213.591 46.6753C213.659 46.7743 213.806 46.8253 214.031 46.8284V47H212.069V46.8284C212.344 46.8284 212.521 46.7789 212.598 46.6799C212.675 46.5779 212.714 46.3521 212.714 46.0027V43.7483C212.714 43.4174 212.697 43.2226 212.663 43.1638C212.629 43.102 212.576 43.0479 212.505 43.0015C212.434 42.952 212.289 42.9272 212.069 42.9272V42.751H214.124V42.9272C213.917 42.9272 213.778 42.9489 213.707 42.9922C213.635 43.0324 213.58 43.0834 213.54 43.1453C213.499 43.2071 213.479 43.4081 213.479 43.7483V45.6919ZM217.106 47V46.8284C217.362 46.8284 217.534 46.782 217.62 46.6892C217.707 46.5933 217.75 46.3645 217.75 46.0027V43.7483C217.75 43.4174 217.733 43.2226 217.699 43.1638C217.665 43.102 217.613 43.0479 217.542 43.0015C217.47 42.952 217.325 42.9272 217.106 42.9272V42.751H219.161V42.9272C218.953 42.9272 218.814 42.9489 218.743 42.9922C218.672 43.0324 218.616 43.0834 218.576 43.1453C218.536 43.2071 218.516 43.4081 218.516 43.7483V46.0908C218.516 46.3846 218.542 46.5593 218.595 46.615C218.647 46.6707 218.823 46.6985 219.123 46.6985H219.624C219.822 46.6985 219.952 46.6877 220.014 46.666C220.076 46.6413 220.116 46.6011 220.135 46.5454C220.156 46.4897 220.167 46.3073 220.167 45.998V43.7483C220.167 43.4205 220.15 43.2257 220.116 43.1638C220.082 43.0989 220.028 43.0432 219.954 42.9968C219.883 42.9504 219.739 42.9272 219.522 42.9272V42.751H221.498V42.9272C221.331 42.9303 221.208 42.9582 221.127 43.0107C221.047 43.0633 220.994 43.1298 220.97 43.2102C220.945 43.2906 220.932 43.47 220.932 43.7483V46.1465C220.932 46.4124 220.959 46.5717 221.011 46.6243C221.064 46.6737 221.226 46.6985 221.498 46.6985H222.055C222.352 46.6985 222.514 46.6676 222.542 46.6057C222.57 46.5408 222.584 46.3475 222.584 46.0259V43.7483C222.584 43.4174 222.567 43.2226 222.533 43.1638C222.499 43.102 222.446 43.0479 222.375 43.0015C222.304 42.952 222.159 42.9272 221.939 42.9272V42.751H223.994V42.9272C223.784 42.9272 223.643 42.9489 223.572 42.9922C223.504 43.0324 223.45 43.0834 223.41 43.1453C223.369 43.2071 223.349 43.4081 223.349 43.7483V45.7522C223.349 46.1666 223.36 46.4233 223.382 46.5222C223.406 46.6212 223.461 46.6954 223.544 46.7449C223.628 46.7944 223.778 46.8222 223.994 46.8284V48.1782H223.822C223.801 47.7948 223.682 47.5025 223.465 47.3015C223.252 47.1005 222.859 47 222.287 47H217.106ZM225.788 45.6919L227.625 43.5674C227.619 43.3293 227.574 43.1638 227.49 43.071C227.407 42.9783 227.263 42.9303 227.059 42.9272V42.751H229.035V42.9272C228.828 42.9272 228.689 42.9489 228.618 42.9922C228.547 43.0324 228.491 43.0834 228.451 43.1453C228.41 43.2071 228.39 43.4081 228.39 43.7483V46.0027C228.39 46.3305 228.407 46.5269 228.441 46.5918C228.475 46.6536 228.528 46.7093 228.599 46.7588C228.673 46.8052 228.819 46.8284 229.035 46.8284V47H226.98V46.8284C227.237 46.8284 227.409 46.782 227.495 46.6892C227.582 46.5933 227.625 46.3645 227.625 46.0027V44.0034L225.788 46.1326C225.794 46.3954 225.831 46.5763 225.899 46.6753C225.967 46.7743 226.114 46.8253 226.34 46.8284V47H224.378V46.8284C224.653 46.8284 224.829 46.7789 224.907 46.6799C224.984 46.5779 225.023 46.3521 225.023 46.0027V43.7483C225.023 43.4174 225.006 43.2226 224.972 43.1638C224.938 43.102 224.885 43.0479 224.814 43.0015C224.743 42.952 224.597 42.9272 224.378 42.9272V42.751H226.433V42.9272C226.226 42.9272 226.086 42.9489 226.015 42.9922C225.944 43.0324 225.889 43.0834 225.848 43.1453C225.808 43.2071 225.788 43.4081 225.788 43.7483V45.6919Z" fill="white"/>
</g>
</svg>
