<?xml version="1.0" standalone="no"?>
<!DOCTYPE svg PUBLIC "-//W3C//DTD SVG 20010904//EN" "http://www.w3.org/TR/2001/REC-SVG-20010904/DTD/svg10.dtd">
<svg xmlns="http://www.w3.org/2000/svg" version="1.0" width="346.000000pt" height="346.000000pt" viewBox="0 0 346.000000 346.000000" preserveAspectRatio="xMidYMid meet">
<metadata>
Created by potrace 1.16, written by Peter Selinger 2001-2019
<meta name="Producer" content="Online-Convert"/></metadata>
<g transform="translate(0.000000,346.000000) scale(0.100000,-0.100000)" fill="#fff" stroke="none">
<path d="M0 1720 l0 -1330 1730 0 1730 0 0 70 0 70 -880 0 -880 0 0 1260 0 1260 -850 0 -850 0 0 -1330z m1500 -20 l0 -1170 -90 0 -90 0 0 1080 0 1080 -475 0 -475 0 0 -1080 0 -1080 -90 0 -90 0 0 1170 0 1170 655 0 655 0 0 -1170z m-306 -96 c58 -59 14 -164 -69 -164 -51 0 -95 44 -95 96 0 85 104 128 164 68z"/>
<path d="M1910 1780 l0 -930 775 0 775 0 0 930 0 930 -775 0 -775 0 0 -930z m690 460 l0 -280 -255 0 -255 0 0 280 0 280 255 0 255 0 0 -280z m670 0 l0 -280 -260 0 -260 0 0 280 0 280 260 0 260 0 0 -280z m-670 -805 l0 -415 -255 0 -255 0 0 415 0 415 255 0 255 0 0 -415z m670 0 l0 -415 -260 0 -260 0 0 415 0 415 260 0 260 0 0 -415z"/>
</g>
</svg>
