<svg width="25" height="24" viewBox="0 0 25 24" fill="none" xmlns="http://www.w3.org/2000/svg">
<g id="place">
<path id="Vector" d="M12.5 12C11.4 12 10.5 11.1 10.5 10C10.5 8.9 11.4 8 12.5 8C13.6 8 14.5 8.9 14.5 10C14.5 11.1 13.6 12 12.5 12ZM18.5 10.2C18.5 6.57 15.85 4 12.5 4C9.15 4 6.5 6.57 6.5 10.2C6.5 12.54 8.45 15.64 12.5 19.34C16.55 15.64 18.5 12.54 18.5 10.2ZM12.5 2C16.7 2 20.5 5.22 20.5 10.2C20.5 13.52 17.83 17.45 12.5 22C7.17 17.45 4.5 13.52 4.5 10.2C4.5 5.22 8.3 2 12.5 2Z" fill="white"/>
</g>
</svg>
